<svg height="50" viewBox="0 0 50 50" width="50" xmlns="http://www.w3.org/2000/svg" xmlns:xlink="http://www.w3.org/1999/xlink"><linearGradient id="a" gradientUnits="objectBoundingBox" x2="1" y1=".5" y2=".5"><stop offset="0" stop-color="#05b34f"/><stop offset="1" stop-color="#8ec94b"/></linearGradient><path d="m50.563 25.563a25 25 0 1 1 -25-25 25 25 0 0 1 25 25zm-27.892 13.237 18.548-18.549a1.613 1.613 0 0 0 0-2.281l-2.281-2.28a1.613 1.613 0 0 0 -2.281 0l-15.127 15.126-7.062-7.062a1.613 1.613 0 0 0 -2.281 0l-2.281 2.281a1.613 1.613 0 0 0 0 2.281l10.484 10.484a1.613 1.613 0 0 0 2.281 0z" fill="url(#a)" transform="translate(-.563 -.563)"/></svg>