<svg height="27.708" viewBox="0 0 38.792 27.708" width="38.792" xmlns="http://www.w3.org/2000/svg"><path d="m8.312 23.375h-5.541a2.771 2.771 0 0 0 -2.771 2.771v5.542a2.771 2.771 0 0 0 2.771 2.771h5.541a2.771 2.771 0 0 0 2.771-2.771v-5.542a2.771 2.771 0 0 0 -2.771-2.771zm13.854 0h-5.541a2.771 2.771 0 0 0 -2.771 2.771v5.542a2.771 2.771 0 0 0 2.771 2.771h5.542a2.771 2.771 0 0 0 2.771-2.771v-5.542a2.771 2.771 0 0 0 -2.771-2.771zm13.854 0h-5.541a2.771 2.771 0 0 0 -2.771 2.771v5.542a2.771 2.771 0 0 0 2.771 2.771h5.542a2.771 2.771 0 0 0 2.771-2.771v-5.542a2.771 2.771 0 0 0 -2.771-2.771zm-27.708-16.625h-5.541a2.771 2.771 0 0 0 -2.771 2.771v5.542a2.771 2.771 0 0 0 2.771 2.771h5.541a2.771 2.771 0 0 0 2.771-2.771v-5.542a2.771 2.771 0 0 0 -2.771-2.771zm13.854 0h-5.541a2.771 2.771 0 0 0 -2.771 2.771v5.542a2.771 2.771 0 0 0 2.771 2.771h5.542a2.771 2.771 0 0 0 2.771-2.771v-5.542a2.771 2.771 0 0 0 -2.771-2.771zm13.854 0h-5.541a2.771 2.771 0 0 0 -2.771 2.771v5.542a2.771 2.771 0 0 0 2.771 2.771h5.542a2.771 2.771 0 0 0 2.771-2.771v-5.542a2.771 2.771 0 0 0 -2.771-2.771z" fill="#008080" transform="translate(0 -6.75)"/></svg>