<svg height="434" viewBox="0 0 653.999 434" width="653.999" xmlns="http://www.w3.org/2000/svg"><path d="m577.547 434.5-15.382-15.382-1.327 1.325-13.931-13.932a7.649 7.649 0 0 1 0-10.8l.627-.628 18.266 18.261 17.04 17.039-4.122 4.117zm-14.31-16.448 14.892 14.892 2.559-2.559-14.888-14.893zm-15.257-12.608 12.859 12.856 3.055-3.054.832-.832-17.166-17.164a6.128 6.128 0 0 0 .42 8.194zm-360.388 29.056-15.382-15.382-1.325 1.325-13.932-13.932a7.651 7.651 0 0 1 0-10.8l.629-.628 18.261 18.261 17.039 17.039-4.121 4.117zm-14.308-16.448 14.892 14.892 2.559-2.559-14.892-14.893zm-15.257-12.608 12.859 12.856 3.055-3.054.831-.832-17.165-17.164a6.13 6.13 0 0 0 .42 8.194zm133.45 22.546a4.316 4.316 0 0 1 -4.313-4.313v-.109a2.8 2.8 0 0 0 -2.8-2.794h-.108a4.318 4.318 0 0 1 -4.313-4.314 2.8 2.8 0 0 0 -2.794-2.8v-1.518a4.318 4.318 0 0 1 4.313 4.313 2.8 2.8 0 0 0 2.794 2.8h.108a4.318 4.318 0 0 1 4.313 4.314v.109a2.8 2.8 0 0 0 2.8 2.794 4.318 4.318 0 0 1 4.321 4.309h-1.517a2.8 2.8 0 0 0 -2.804-2.791zm102-5.276 1.074-1.074 6.392 6.393-1.073 1.074zm-55.035 0 1.074-1.073 6.391 6.391-1.073 1.074zm177.785-11.152 1.074-1.074 16.799 16.792-1.074 1.073zm-385.419 0 1.073-1.074 16.791 16.791-1.074 1.073zm316 15.078 5.921-5.922 1.074 1.074-5.921 5.922zm-388.387 0 5.921-5.922 1.074 1.074-5.916 5.921zm434.247-1.27a2.8 2.8 0 0 0 -2.795-2.795h-.11a4.318 4.318 0 0 1 -4.313-4.314 2.8 2.8 0 0 0 -2.794-2.794 4.317 4.317 0 0 1 -4.314-4.313v-.109a2.8 2.8 0 0 0 -2.794-2.8h-.109a4.318 4.318 0 0 1 -4.315-4.312 2.8 2.8 0 0 0 -2.794-2.8v-1.517a4.315 4.315 0 0 1 4.312 4.312 2.8 2.8 0 0 0 2.794 2.8h.11a4.317 4.317 0 0 1 4.312 4.313v.109a2.8 2.8 0 0 0 2.8 2.794 4.316 4.316 0 0 1 4.312 4.312 2.8 2.8 0 0 0 2.795 2.8h.11a4.317 4.317 0 0 1 4.312 4.31zm-387.1 0a2.8 2.8 0 0 0 -2.795-2.795h-.11a4.318 4.318 0 0 1 -4.313-4.314 2.8 2.8 0 0 0 -2.8-2.794 4.317 4.317 0 0 1 -4.313-4.313v-.109a2.8 2.8 0 0 0 -2.795-2.8h-.11a4.317 4.317 0 0 1 -4.313-4.312 2.8 2.8 0 0 0 -2.795-2.8v-1.517a4.316 4.316 0 0 1 4.312 4.312 2.8 2.8 0 0 0 2.8 2.8h.11a4.317 4.317 0 0 1 4.314 4.313v.109a2.8 2.8 0 0 0 2.794 2.8 4.317 4.317 0 0 1 4.313 4.311 2.8 2.8 0 0 0 2.8 2.8h.11a4.315 4.315 0 0 1 4.312 4.309zm260.732-1.528a8.564 8.564 0 0 1 -1.619-.159 13.465 13.465 0 0 1 -9.958-9.958 5.787 5.787 0 0 1 7.23-7.229 13.462 13.462 0 0 1 9.957 9.959 6.248 6.248 0 0 1 -1.441 5.788 5.735 5.735 0 0 1 -3.975 1.6c-.063.003-.127.002-.194-.001zm2.5-2.2-12.037-12.042c-1.52 2.331-.461 6.36 2.61 9.431 3.071 3.069 7.102 4.13 9.427 2.615zm-10.97-13.11 12.042 12.042c1.518-2.327.46-6.359-2.613-9.427a11.133 11.133 0 0 0 -5.6-3.157 5.18 5.18 0 0 0 -3.833.546zm263.66 13.706a6.243 6.243 0 0 1 -1.441-5.789 13.466 13.466 0 0 1 9.958-9.958 5.787 5.787 0 0 1 7.228 7.23 13.466 13.466 0 0 1 -9.958 9.958 8.571 8.571 0 0 1 -1.618.16h-.191a5.742 5.742 0 0 1 -3.977-1.601zm1.668-.6c2.331 1.519 6.359.461 9.431-2.611 3.072-3.072 4.128-7.1 2.611-9.432zm8.46-13.791a7.114 7.114 0 0 0 -1.325.131 11.96 11.96 0 0 0 -8.753 8.754 5.176 5.176 0 0 0 .545 3.833l12.042-12.043a4.551 4.551 0 0 0 -2.389-.678zm-209.9 14.386a6.249 6.249 0 0 1 -1.441-5.788 13.469 13.469 0 0 1 9.959-9.958 5.789 5.789 0 0 1 7.229 7.23 13.469 13.469 0 0 1 -9.958 9.958 8.563 8.563 0 0 1 -1.618.16h-.191a5.739 5.739 0 0 1 -3.981-1.598zm1.668-.595c2.331 1.519 6.359.461 9.431-2.611 3.068-3.072 4.13-7.1 2.611-9.432zm8.461-13.792a7.015 7.015 0 0 0 -1.323.132 11.123 11.123 0 0 0 -5.6 3.155c-3.071 3.072-4.128 7.1-2.608 9.431l12.042-12.044a4.563 4.563 0 0 0 -2.39-.678zm-195.288 14.391a6.245 6.245 0 0 1 -1.441-5.789 13.468 13.468 0 0 1 9.958-9.957 5.788 5.788 0 0 1 7.228 7.23 13.467 13.467 0 0 1 -9.958 9.958 8.636 8.636 0 0 1 -1.618.16h-.19a5.743 5.743 0 0 1 -3.979-1.602zm1.668-.595c2.332 1.519 6.359.461 9.432-2.611 3.071-3.072 4.125-7.1 2.61-9.432zm8.458-13.792a7.1 7.1 0 0 0 -1.323.132 11.962 11.962 0 0 0 -8.753 8.753 5.176 5.176 0 0 0 .545 3.833l12.046-12.041a4.556 4.556 0 0 0 -2.391-.679zm-214.164 14.387a6.25 6.25 0 0 1 -1.442-5.789 13.47 13.47 0 0 1 9.958-9.957 5.788 5.788 0 0 1 7.229 7.229 13.469 13.469 0 0 1 -9.958 9.958 8.491 8.491 0 0 1 -1.618.16h-.19a5.743 5.743 0 0 1 -3.979-1.601zm1.668-.595c2.331 1.519 6.359.461 9.431-2.611 3.072-3.072 4.129-7.1 2.611-9.432zm8.461-13.792a7.014 7.014 0 0 0 -1.323.131 11.118 11.118 0 0 0 -5.6 3.156c-3.072 3.072-4.129 7.1-2.61 9.431l12.042-12.044a4.552 4.552 0 0 0 -2.389-.678zm275.15 7.335 1.073-1.073 6.392 6.392-1.074 1.073zm275.692-2.76 1.074-1.074 6.391 6.392-1.073 1.073zm-390.553 0 1.074-1.074 6.391 6.392-1.073 1.073zm460.814 1.24v-1.518a4.3 4.3 0 0 1 1.75.372v1.764a2.788 2.788 0 0 0 -1.753-.618zm-157.733-13.005 1.074-1.074 5.406 5.414-1.073 1.073zm-386.11 0 1.074-1.074 5.416 5.414-1.074 1.073zm165.082-5.555-10.428-10.428 26.665-30.834-4.342-4.342 6-6 4.306 4.307 4.924-4.925 25.1 25.1-4.925 4.926 4.306 4.306-6 6-4.344-4.344-30.834 26.664zm-8.354-10.5 9.428 9.43 9.43 9.43 29.683-25.672-22.873-22.872zm22.393-35.1 31.569 31.556 3.849-3.852-15.782-15.782-12.55-12.551-3.232-3.232zm9.231-.621 11.477 11.477 11.477 11.477 3.853-3.853-22.954-22.953zm218.638 46.329 1.074-1.073 6.393 6.392-1.074 1.074zm-385.277 0 1.073-1.073 6.393 6.392-1.074 1.074zm462.671 2.124 61.206-61.208v2.144l-60.133 60.136zm-385.724 0 93.207-93.208a13.979 13.979 0 0 1 19.769 0l13.869 13.871-1.073 1.074-13.868-13.874a12.384 12.384 0 0 0 -8.813-3.649 12.387 12.387 0 0 0 -8.814 3.648l-93.2 93.206zm164.565-.559a2.8 2.8 0 0 0 -2.8-2.8h-.109a4.313 4.313 0 0 1 -4.312-4.312 2.8 2.8 0 0 0 -2.794-2.8 4.318 4.318 0 0 1 -4.315-4.312v-.109a2.8 2.8 0 0 0 -2.794-2.794h-.111a4.316 4.316 0 0 1 -4.312-4.314 2.8 2.8 0 0 0 -2.794-2.794v-1.513a4.318 4.318 0 0 1 4.313 4.312 2.8 2.8 0 0 0 2.794 2.794h.11a4.316 4.316 0 0 1 4.312 4.313v.109a2.8 2.8 0 0 0 2.8 2.8 4.319 4.319 0 0 1 4.312 4.313 2.8 2.8 0 0 0 2.8 2.794h.108a4.316 4.316 0 0 1 4.315 4.313zm29.316-.39a2.8 2.8 0 0 0 -2.794-2.8 4.317 4.317 0 0 1 -4.313-4.313v-.109a2.8 2.8 0 0 0 -2.794-2.8h-.109a4.318 4.318 0 0 1 -4.313-4.313 2.8 2.8 0 0 0 -2.8-2.794v-1.519a4.319 4.319 0 0 1 4.313 4.313 2.8 2.8 0 0 0 2.8 2.8h.109a4.317 4.317 0 0 1 4.312 4.314v.109a2.8 2.8 0 0 0 2.794 2.8 4.317 4.317 0 0 1 4.317 4.313zm-390.148 0a2.8 2.8 0 0 0 -2.8-2.8 4.317 4.317 0 0 1 -4.313-4.313v-.109a2.8 2.8 0 0 0 -2.794-2.8h-.109a4.345 4.345 0 0 1 -.791-.073v-1.553a2.8 2.8 0 0 0 .79.113h.114a4.317 4.317 0 0 1 4.312 4.314v.109a2.8 2.8 0 0 0 2.795 2.8 4.317 4.317 0 0 1 4.315 4.313zm448.966-22.2a22.051 22.051 0 0 1 22.052-22.052 22.052 22.052 0 1 1 -22.051 22.053zm1.518 0a20.533 20.533 0 0 0 20.533 20.533 20.534 20.534 0 1 0 -20.534-20.533zm-388.043 0a22.052 22.052 0 1 1 22.052 22.052 22.051 22.051 0 0 1 -22.053-22.054zm1.518 0a20.534 20.534 0 1 0 20.534-20.534 20.533 20.533 0 0 0 -20.535 20.532zm430.2-36.206 1.074-1.073 58.027 58.027-1.073 1.074zm-389.516 0 1.073-1.073 58.027 58.027-1.073 1.074zm466.109 56.079a21.922 21.922 0 0 1 -15.53-6.422l-27.233-27.239 1.074-1.072 27.232 27.23a20.471 20.471 0 0 0 28.916 0l38.574-38.573 1.073 1.072-38.574 38.573a21.916 21.916 0 0 1 -15.529 6.423zm-388.664 0a21.924 21.924 0 0 1 -15.531-6.422l-27.233-27.239 1.074-1.072 27.232 27.23a20.471 20.471 0 0 0 28.916 0l38.574-38.573 1.073 1.072-38.574 38.573a21.916 21.916 0 0 1 -15.529 6.423zm148.394-10.27 1.074-1.074 6.392 6.393-1.073 1.074zm-56.289 4.7a8.969 8.969 0 1 1 3.432.685 8.975 8.975 0 0 1 -3.428-.692zm-1.838-13.564a7.458 7.458 0 1 0 5.273-2.183 7.457 7.457 0 0 0 -5.274 2.176zm367.064 9.757 3.778-4.369v2.32l-1.706 1.972 1.706 1.705v2.149zm-214.9 2.033 5.921-5.922 1.074 1.074-5.921 5.921zm-388.388 0 5.921-5.922 1.074 1.074-5.929 5.914zm421.964-12.524a13.021 13.021 0 1 1 13.021 13.021 13.022 13.022 0 0 1 -13.025-13.028zm1.521 0a11.5 11.5 0 0 0 11.5 11.5 11.5 11.5 0 1 0 -11.5-11.5zm-388.141 0a13.021 13.021 0 1 1 13.021 13.021 13.022 13.022 0 0 1 -13.025-13.028zm1.521 0a11.5 11.5 0 0 0 11.5 11.5 11.5 11.5 0 1 0 -11.5-11.5zm546.218 11.46 5.921-5.922 1.074 1.074-5.921 5.921zm-385.615 0 5.921-5.922 1.074 1.074-5.921 5.921zm227.742-11.463a9.8 9.8 0 1 1 9.8 9.8 9.8 9.8 0 0 1 -9.8-9.8zm1.521 0a8.279 8.279 0 0 0 8.279 8.279v.005a8.281 8.281 0 0 0 0-16.563 8.279 8.279 0 0 0 -8.279 8.275zm-388.17 0a9.8 9.8 0 0 1 9.8-9.8 9.8 9.8 0 1 1 -9.8 9.8zm1.521 0a8.28 8.28 0 0 0 8.279 8.279v.005a8.281 8.281 0 0 0 0-16.563 8.279 8.279 0 0 0 -8.279 8.275zm503.912 3.158 23.345-23.348 1.074 1.074-23.347 23.344zm-390.227 0 23.344-23.348 1.073 1.074-23.345 23.345zm165.846-9.085 1.074-1.073 6.391 6.391-1.073 1.074zm41.289-.978-12.936-12.944 1.074-1.073 12.938 12.938a22.438 22.438 0 0 0 31.7 0l13.778-13.778 1.072 1.073-13.78 13.779a23.961 23.961 0 0 1 -33.846 0zm-388.779 0-12.939-12.944 1.073-1.073 12.938 12.938a22.441 22.441 0 0 0 31.7 0l13.778-13.778 1.073 1.072-13.78 13.78a23.962 23.962 0 0 1 -33.845 0zm366.749-4.792 1.074-1.073 6.392 6.393-1.074 1.073zm-385.806 4.484v-2.147l2.978 2.979-1.078 1.072zm500.384-63.571 1.074-1.073 59.742 59.746-1.074 1.074zm-389.479 0 1.074-1.073 59.746 59.746-1.073 1.074zm274.585 29.43 1.073-1.074 25.426 25.426-1.073 1.074zm-385.49 4.427v-2.146l22.072 22.072-1.072 1.073zm438.906 19.9 20.508-20.508 1.074 1.074-20.508 20.511zm-387.914 0 20.508-20.505 1.074 1.074-20.509 20.508zm295.135-10.463-10.207 1.33-7.546-19.878 9.229.891a30.839 30.839 0 0 0 11.1-11.1l-.893-9.228 19.88 7.546-1.328 10.211a32.337 32.337 0 0 1 8.684 28.3l-.093.519-.519.093a32.337 32.337 0 0 1 -28.308-8.684zm-7.5-16.494a30.783 30.783 0 0 0 35.012 23.779 30.781 30.781 0 0 0 -23.777-35.013 32.449 32.449 0 0 1 -11.236 11.237zm-1.717 16.168 7.9-1.029a32.1 32.1 0 0 1 -7.663-14.816l-6.489-.628zm13.277-28.885a32.115 32.115 0 0 1 14.815 7.666l1.03-7.9-16.474-6.253zm227.683 31.6-12.175-12.173 20.73-20.731 2.15 2.152 3.493-3.491a6.254 6.254 0 0 1 8.835 0l.148.146a6.257 6.257 0 0 1 0 8.835l-3.493 3.491 1.042 1.042a14.4 14.4 0 0 1 0 20.365l-.363.364a14.4 14.4 0 0 1 -20.367 0zm-10.026-12.175 11.1 11.1a12.884 12.884 0 0 0 18.22 0l.363-.365a12.879 12.879 0 0 0 0-18.219l-1.04-1.042-8.987-8.979-1.079-1.079zm25.3-21-3.492 3.492 6.836 6.835 3.491-3.492a4.732 4.732 0 0 0 0-6.688l-.146-.147a4.737 4.737 0 0 0 -6.689 0zm-405.244 33.174-12.175-12.173 20.73-20.731 2.152 2.152 3.491-3.491a6.254 6.254 0 0 1 8.835 0l.147.146a6.257 6.257 0 0 1 0 8.835l-3.491 3.491 1.041 1.042a14.4 14.4 0 0 1 0 20.365l-.364.364a14.4 14.4 0 0 1 -20.366 0zm-10.027-12.175 11.1 11.1a12.883 12.883 0 0 0 18.221 0l.364-.364a12.884 12.884 0 0 0 0-18.22l-1.041-1.042-8.98-8.978-1.079-1.079zm25.3-21-3.492 3.492 6.835 6.835 3.493-3.491a4.736 4.736 0 0 0 0-6.689l-.146-.147a4.737 4.737 0 0 0 -6.689 0zm226.411 34.067 35.577-35.58 1.074 1.073-35.577 35.577zm-387.929 0 35.577-35.58 1.073 1.073-35.576 35.58zm311.439-5.044a7.87 7.87 0 1 1 5.566 2.306 7.872 7.872 0 0 1 -5.566-2.306zm1.078-10.055a6.35 6.35 0 0 0 8.979 8.982 6.352 6.352 0 1 0 -8.979-8.986zm240.434 9.463a8.088 8.088 0 0 0 0-11.425l-3.663-3.663 1.073-1.073 3.665 3.664a9.611 9.611 0 0 1 0 13.571zm-390.552 0a8.088 8.088 0 0 0 0-11.425l-3.664-3.663 1.073-1.073 3.665 3.664a9.607 9.607 0 0 1 0 13.571zm298.628-21.544a20.473 20.473 0 0 0 -28.917 0l-1.072-1.073a21.989 21.989 0 0 1 31.062 0l20.821 20.822-1.076 1.069zm-385.789 0a20.471 20.471 0 0 0 -28.917 0l-1.076-1.076a21.99 21.99 0 0 1 31.063 0l20.822 20.822-1.074 1.073zm189.4 11.378 1.074-1.073 6.392 6.392-1.074 1.074zm322.6 2.09 25.107-25.11v2.142l-24.034 24.034zm-386.048 0 42.789-42.789 1.074 1.073-42.789 42.789zm145.755-42.015-8.6 5.125 11.049 18-1.3.794-11.854-19.307 9.905-5.9-2.962-4.824 3.681-3.681-5.687-3.5 7.044-7.044 3.5 5.686 3.682-3.681 28.791 17.679v-6.38a5.034 5.034 0 0 0 -1.484-3.583l-9.714-9.715a11.236 11.236 0 0 1 0-15.872l.536-.537 4.354 4.354-.537.537a5.072 5.072 0 0 0 0 7.165l9.716 9.715a11.148 11.148 0 0 1 3.287 7.936v10.15l10.021 6.153-29.572 29.571zm5.6-13.324-4.347 4.347-3.1 3.085 25.974 42.3 26.852-26.851-9.1-5.592v-11a9.641 9.641 0 0 0 -2.842-6.862l-9.716-9.716a6.591 6.591 0 0 1 -.5-8.743l-2.217-2.218a9.715 9.715 0 0 0 .516 13.167l9.715 9.715a6.545 6.545 0 0 1 1.929 4.656v9.087l-30.074-18.466zm-8.929-.257 4.358 2.682 2.651-2.651-2.681-4.357zm-385.271 14.89v-2.894l23.33 37.994 26.851-26.851-9.1-5.592v-11a9.646 9.646 0 0 0 -2.843-6.862l-9.715-9.716a6.591 6.591 0 0 1 -.506-8.743l-2.217-2.216a9.717 9.717 0 0 0 .517 13.167l9.716 9.715a6.539 6.539 0 0 1 1.927 4.656v9.087l-30.073-18.466-3.087 3.089-4.347 4.347-.451.449v-2.51l.226.139 2.651-2.651-2.679-4.357-.2.2v-2.147l.481-.481 3.5 5.686 3.68-3.681 28.78 17.676v-6.38a5.036 5.036 0 0 0 -1.484-3.583l-9.715-9.715a11.236 11.236 0 0 1 0-15.872l.537-.537 4.354 4.354-.537.536a5.073 5.073 0 0 0 0 7.166l9.715 9.715a11.148 11.148 0 0 1 3.289 7.936v10.15l10.021 6.153-29.574 29.572zm565.97 34.35a6.1 6.1 0 0 0 -4.271-4.143 7.612 7.612 0 0 1 -5.329-5.169l1.453-.439a6.1 6.1 0 0 0 4.271 4.144 7.609 7.609 0 0 1 5.33 5.168l-1.453.44zm-394.753-4.142a7.612 7.612 0 0 1 -5.328-5.17l1.454-.439a6.1 6.1 0 0 0 4.27 4.144 7.611 7.611 0 0 1 5.328 5.168l-1.453.44a6.1 6.1 0 0 0 -4.271-4.143zm135.73-2.639 1.073-1.073 6.394 6.392-1.074 1.073zm29.59 1.937a15.506 15.506 0 0 0 7.937-7.936l1.385.621a17.035 17.035 0 0 1 -8.7 8.7zm248.631-1.47 1.074-1.074 2.792 2.792-1.074 1.074zm-390.62 0 1.074-1.074 2.792 2.792-1.074 1.074zm371.425-2.146a7.61 7.61 0 0 1 -5.327-5.168l1.452-.44a6.1 6.1 0 0 0 4.271 4.143 7.611 7.611 0 0 1 5.328 5.169l-1.453.44a6.1 6.1 0 0 0 -4.271-4.143zm-390.483 0a7.611 7.611 0 0 1 -5.328-5.168l1.452-.44a6.1 6.1 0 0 0 4.271 4.143 7.607 7.607 0 0 1 5.328 5.169l-1.452.44a6.1 6.1 0 0 0 -4.271-4.143zm437.919-4.375 1.074-1.077 6.391 6.392-1.073 1.073zm-385 0 1.071-1.077 6.391 6.392-1.073 1.073zm41.9 5.066 21.338-21.337a21.987 21.987 0 0 1 31.063 0l16.34 16.34-1.074 1.073-16.346-16.339a20.446 20.446 0 0 0 -28.917 0l-21.336 21.338zm272.554-.709a2.8 2.8 0 0 0 -2.8-2.794h-.109a4.317 4.317 0 0 1 -4.312-4.313 2.8 2.8 0 0 0 -2.8-2.794 4.317 4.317 0 0 1 -4.313-4.313v-.109a2.8 2.8 0 0 0 -2.795-2.8h-.109a4.315 4.315 0 0 1 -4.312-4.311 2.8 2.8 0 0 0 -2.8-2.793l.012-1.521a4.317 4.317 0 0 1 4.311 4.314 2.8 2.8 0 0 0 2.794 2.8h.109a4.315 4.315 0 0 1 4.312 4.312v.109a2.8 2.8 0 0 0 2.8 2.795 4.317 4.317 0 0 1 4.312 4.312 2.8 2.8 0 0 0 2.794 2.8h.109a4.316 4.316 0 0 1 4.312 4.312zm-390.206 0a2.8 2.8 0 0 0 -2.8-2.794h-.11a4.318 4.318 0 0 1 -4.313-4.313 2.8 2.8 0 0 0 -2.8-2.794 4.316 4.316 0 0 1 -4.313-4.313v-.109a2.8 2.8 0 0 0 -2.794-2.8h-.109a4.317 4.317 0 0 1 -4.31-4.311 2.8 2.8 0 0 0 -2.794-2.793v-1.521a4.317 4.317 0 0 1 4.314 4.314 2.8 2.8 0 0 0 2.794 2.8h.109a4.317 4.317 0 0 1 4.314 4.312v.109a2.8 2.8 0 0 0 2.794 2.795 4.318 4.318 0 0 1 4.313 4.312 2.8 2.8 0 0 0 2.794 2.8h.11a4.317 4.317 0 0 1 4.312 4.312zm417.6-4.3a7.608 7.608 0 0 1 -5.329-5.166l1.453-.44a6.1 6.1 0 0 0 4.271 4.144 7.614 7.614 0 0 1 5.33 5.167l-1.453.439a6.1 6.1 0 0 0 -4.282-4.141zm-390.488 0a7.607 7.607 0 0 1 -5.327-5.166l1.452-.44a6.1 6.1 0 0 0 4.271 4.144 7.608 7.608 0 0 1 5.328 5.167l-1.453.439a6.1 6.1 0 0 0 -4.28-4.141zm217.723-17.024 1.293-.795 12.979 21.138-1.293.794zm-389.7 0 1.294-.795 12.979 21.138-1.293.794zm-7.792 17.484v-2.9l1.647 2.683-1.292.794zm574.52-4.776a7.611 7.611 0 0 1 -5.328-5.168l1.453-.44a6.1 6.1 0 0 0 4.271 4.145 7.61 7.61 0 0 1 5.327 5.168l-1.453.439a6.1 6.1 0 0 0 -4.27-4.144zm-390.485 0a7.609 7.609 0 0 1 -5.328-5.168l1.452-.44a6.1 6.1 0 0 0 4.271 4.145 7.611 7.611 0 0 1 5.329 5.168l-1.454.439a6.1 6.1 0 0 0 -4.27-4.144zm140.324-18.076 1.073-1.073 16.443 16.442-1.074 1.074zm302 14.837a6.251 6.251 0 0 1 -1.441-5.789 13.469 13.469 0 0 1 9.959-9.956 5.785 5.785 0 0 1 7.229 7.227 13.467 13.467 0 0 1 -9.958 9.958 8.634 8.634 0 0 1 -1.617.16h-.187a5.747 5.747 0 0 1 -3.987-1.599zm1.668-.595a5.174 5.174 0 0 0 3.832.544 11.13 11.13 0 0 0 5.6-3.155c3.076-3.072 4.135-7.1 2.614-9.431zm-1.072-1.075 12.045-12.041a4.573 4.573 0 0 0 -2.526-.687 10.343 10.343 0 0 0 -6.9 3.3c-3.081 3.072-4.14 7.104-2.621 9.43zm-386.144 1.671a6.248 6.248 0 0 1 -1.441-5.789 13.468 13.468 0 0 1 9.958-9.957 5.786 5.786 0 0 1 7.228 7.228 13.465 13.465 0 0 1 -9.958 9.958 8.634 8.634 0 0 1 -1.617.16c-.064 0-.127 0-.19 0a5.743 5.743 0 0 1 -3.98-1.6zm1.665-.595a5.176 5.176 0 0 0 3.833.544 11.127 11.127 0 0 0 5.6-3.155c3.071-3.072 4.128-7.1 2.608-9.431zm8.446-13.8a10.347 10.347 0 0 0 -6.906 3.3c-3.073 3.073-4.13 7.1-2.613 9.43l12.045-12.043a4.573 4.573 0 0 0 -2.412-.688zm347.536 1.376 1.073-1.074 13.155 13.155-1.073 1.073zm-390.425 0 1.074-1.074 13.154 13.155-1.073 1.073zm143.125 1.022 5.921-5.921 1.074 1.074-5.921 5.921zm40.937-6.34 1.293-.794 2.6 4.239-1.293.795zm-390.121 0 1.293-.794 2.6 4.239-1.293.795zm451.937 2.074 5.922-5.921 1.073 1.074-5.921 5.921zm-387.668 0 5.921-5.921 1.074 1.074-5.921 5.921zm503.435-9.445 1.074-1.074 7.95 7.951-1.074 1.073zm-390.524 0 1.073-1.074 7.951 7.951-1.074 1.073zm431.412-4.055 1.074-1.073 11.748 11.748-1.073 1.074zm-390.452 0 1.074-1.073 11.748 11.748-1.074 1.074zm247.25-5 27.344-31.882 5.547 5.548 3.52-4.044-8.925-8.925 3.755-3.754 12.421 12.422-7.01 8.06 11.424 11.425-31.883 27.333zm2.069-.079 14.206 14.206 20.327-17.444-7.645-7.646 1.072-1.073 7.729 7.728 8.086-6.936-10.188-10.2-20.784 23.9-4.019-3.47 21.042-24.186-4.463-4.463-6.936 8.087 3.327 3.329-1.074 1.072-3.246-3.245zm10.928-1.075 1.722 1.485 19.859-22.834-1.607-1.607zm16.639-38.157 8.853 8.853-4.517 5.193 1.607 1.607 6.013-6.913-10.356-10.346zm-415.744 39.3 27.344-31.879 5.549 5.548 3.519-4.044-8.925-8.925 3.754-3.754 12.422 12.422-7.011 8.06 11.425 11.425-31.886 27.341zm2.069-.077 14.2 14.2 20.33-17.429-7.647-7.646 1.073-1.075 7.729 7.728 8.087-6.936-10.189-10.191-20.783 23.9-4.02-3.47 21.043-24.186-4.464-4.463-6.936 8.087 3.328 3.329-1.076 1.073-3.246-3.246zm10.928-1.077 1.721 1.485 19.86-22.834-1.608-1.607zm16.636-38.149 8.853 8.853-4.518 5.193 1.607 1.607 6.012-6.913-10.349-10.343zm535.362 55.167a8.58 8.58 0 0 1 -1.619-.16 13.463 13.463 0 0 1 -9.958-9.957 5.788 5.788 0 0 1 7.23-7.229 13.465 13.465 0 0 1 9.957 9.958 6.244 6.244 0 0 1 -1.441 5.788 5.74 5.74 0 0 1 -3.979 1.6c-.063.004-.127.002-.19 0zm-9.542-14.233a5.172 5.172 0 0 0 -.544 3.829 11.959 11.959 0 0 0 8.753 8.754 5.18 5.18 0 0 0 3.833-.545l-12.042-12.042zm1.073-1.078 12.043 12.041c1.52-2.331.46-6.358-2.609-9.431a10.355 10.355 0 0 0 -6.907-3.3h-.115a4.576 4.576 0 0 0 -2.412.69zm-377.258 15.315h-.19a8.637 8.637 0 0 1 -1.618-.16 12.651 12.651 0 0 1 -6.384-3.573 12.648 12.648 0 0 1 -3.575-6.384 5.787 5.787 0 0 1 7.23-7.229 13.464 13.464 0 0 1 9.957 9.958 6.244 6.244 0 0 1 -1.444 5.784 5.733 5.733 0 0 1 -3.975 1.6zm-9.724-14.236a5.175 5.175 0 0 0 -.547 3.829 11.965 11.965 0 0 0 8.753 8.753 5.176 5.176 0 0 0 3.833-.545l-12.041-12.042zm1.072-1.078 12.038 12.04c1.518-2.331.46-6.358-2.611-9.431a10.349 10.349 0 0 0 -6.906-3.3h-.115a4.577 4.577 0 0 0 -2.411.69zm77.617 13.777 37.811-37.807 1.074 1.074-37.816 37.806zm213.561.13h-.19a8.637 8.637 0 0 1 -1.618-.161 13.466 13.466 0 0 1 -9.958-9.957 5.788 5.788 0 0 1 7.23-7.229 13.465 13.465 0 0 1 9.957 9.958 6.249 6.249 0 0 1 -1.44 5.788 5.74 5.74 0 0 1 -3.976 1.6zm-7.122-4.811c3.072 3.071 7.1 4.129 9.433 2.611l-12.042-12.04c-1.519 2.327-.468 6.358 2.604 9.429zm-1.536-10.5 12.043 12.043c1.519-2.331.46-6.358-2.611-9.43a10.348 10.348 0 0 0 -6.906-3.3h-.115a4.568 4.568 0 0 0 -2.416.683zm-381.899 15.308a8.563 8.563 0 0 1 -1.618-.16 13.467 13.467 0 0 1 -9.958-9.957 5.787 5.787 0 0 1 7.229-7.229 13.463 13.463 0 0 1 9.958 9.958 6.248 6.248 0 0 1 -1.44 5.789 5.741 5.741 0 0 1 -3.977 1.6c-.066.002-.13.001-.194-.001zm-6.93-4.808c3.073 3.071 7.1 4.129 9.431 2.611l-12.041-12.041c-1.521 2.327-.462 6.359 2.61 9.43zm-1.536-10.5 12.043 12.043c1.517-2.331.461-6.358-2.611-9.431a10.347 10.347 0 0 0 -6.907-3.3h-.111a4.572 4.572 0 0 0 -2.415.684zm219.7 10.854 14.691-14.691 1.074 1.073-14.692 14.688zm-33.916-1.91a22.178 22.178 0 0 1 -4.33-25.206l-1.609-1.61a3.619 3.619 0 0 1 0-5.118l5.314-5.314a3.62 3.62 0 0 1 5.118 0l1.611 1.612a22.173 22.173 0 0 1 25.2 4.328l.537.536-31.31 31.31zm1.06-30.249a20.621 20.621 0 0 0 -.514 28.629l29.143-29.145a20.62 20.62 0 0 0 -28.63.515zm-6.546.871a2.1 2.1 0 0 0 .617 1.486l1.276 1.275a22.38 22.38 0 0 1 8.287-8.283l-1.275-1.275a2.1 2.1 0 0 0 -2.973 0l-5.315 5.313a2.1 2.1 0 0 0 -.617 1.483zm-50.014 19.732a6.247 6.247 0 0 1 -1.4-5.8 13.462 13.462 0 0 1 10.035-9.878 5.786 5.786 0 0 1 7.172 7.285 13.463 13.463 0 0 1 -10.036 9.878 8.549 8.549 0 0 1 -1.56.148c-.065 0-.13 0-.2 0a5.759 5.759 0 0 1 -4.011-1.634zm1.671-.58a5.176 5.176 0 0 0 3.829.575 11.126 11.126 0 0 0 5.622-3.112c3.1-3.047 4.183-7.071 2.685-9.411zm8.518-13.729a6.992 6.992 0 0 0 -1.277.122 11.965 11.965 0 0 0 -8.822 8.685 5.186 5.186 0 0 0 .515 3.841l12.137-11.948a4.584 4.584 0 0 0 -2.438-.7zm267.117-4.214 1.814-1.816-3.719-3.718-1.313 1.313a4.679 4.679 0 0 1 -3.322 1.373 4.682 4.682 0 0 1 -3.321-1.371l-10.677-10.675 1.073-1.075 10.677 10.676a3.184 3.184 0 0 0 4.5 0l1.312-1.314-12.931-12.931 1.074-1.073 12.933 12.933 1.314-1.314a3.182 3.182 0 0 0 0-4.5l-10.676-10.676 1.073-1.073 10.672 10.677a4.7 4.7 0 0 1 0 6.643l-1.313 1.314 3.72 3.718 1.814-1.817 17.04 17.04-4.705 4.706zm2.143 0 14.893 14.891 2.56-2.559-14.893-14.892zm-392.014 0 1.816-1.816-3.718-3.718-1.314 1.313a4.716 4.716 0 0 1 -6.651 0l-10.679-10.672 1.074-1.074 10.676 10.677a3.182 3.182 0 0 0 4.5 0l1.314-1.314-12.933-12.933 1.073-1.073 12.933 12.933 1.314-1.314a3.182 3.182 0 0 0 0-4.5l-10.676-10.676 1.073-1.073 10.676 10.676a4.7 4.7 0 0 1 0 6.643l-1.314 1.314 3.72 3.718 1.815-1.817 17.038 17.04-4.7 4.706zm2.148 0 14.892 14.89 2.56-2.559-14.892-14.892zm283.736 13.11 5.921-5.922 1.073 1.074-5.921 5.921zm-387.912 0 5.922-5.922 1.073 1.074-5.921 5.921zm529.501-17.841a17.075 17.075 0 0 1 16.7-17.453v-6.637a4.164 4.164 0 0 1 4.16-4.158h8.138v8.139a4.162 4.162 0 0 1 -4.159 4.157h-.342a17.081 17.081 0 0 1 -7.037 32.646c-.129 0-.257 0-.385 0a17.082 17.082 0 0 1 -17.075-16.694zm1.894-.388a15.564 15.564 0 1 0 15.564-15.565 15.582 15.582 0 0 0 -15.564 15.564zm16.322-23.7v6.621h6.62a2.643 2.643 0 0 0 2.641-2.641v-6.62h-6.62a2.644 2.644 0 0 0 -2.641 2.637zm-408.249 24.088a17.076 17.076 0 0 1 16.7-17.453v-6.637a4.163 4.163 0 0 1 4.158-4.158h8.139v8.139a4.162 4.162 0 0 1 -4.158 4.157h-.342a17.082 17.082 0 0 1 -7.037 32.646c-.13 0-.258 0-.387 0a17.082 17.082 0 0 1 -17.073-16.694zm1.893-.388a15.564 15.564 0 1 0 15.565-15.565 15.564 15.564 0 0 0 -15.566 15.564zm16.322-23.7v6.621h6.621a2.643 2.643 0 0 0 2.64-2.641v-6.62h-6.62a2.645 2.645 0 0 0 -2.642 2.637zm376.582 23.588a12.792 12.792 0 1 1 12.794 12.793 12.793 12.793 0 0 1 -12.794-12.793zm13.553 7.346v3.9a11.217 11.217 0 0 0 6.652-2.763l-2.755-2.755 1.074-1.073 2.755 2.756a11.222 11.222 0 0 0 2.759-6.654h-3.9v-1.518h3.9a11.218 11.218 0 0 0 -2.759-6.652l-2.753 2.753-1.074-1.074 2.753-2.751a11.222 11.222 0 0 0 -6.652-2.76v3.9h-1.518v-3.9a11.233 11.233 0 0 0 -6.653 2.758l2.753 2.753-1.073 1.074-2.754-2.753a11.231 11.231 0 0 0 -2.761 6.653h3.9v1.515h-3.9a11.214 11.214 0 0 0 2.761 6.656l2.756-2.757 1.073 1.074-2.756 2.756a11.229 11.229 0 0 0 6.655 2.762v-3.9zm-403.757-7.346a12.792 12.792 0 1 1 12.792 12.792 12.792 12.792 0 0 1 -12.792-12.792zm13.55 7.345v3.9a11.225 11.225 0 0 0 6.655-2.763l-2.756-2.755 1.073-1.073 2.755 2.756a11.221 11.221 0 0 0 2.76-6.654h-3.9v-1.518h3.9a11.221 11.221 0 0 0 -2.761-6.652l-2.753 2.753-1.073-1.074 2.753-2.751a11.222 11.222 0 0 0 -6.651-2.76v3.9h-1.518v-3.9a11.226 11.226 0 0 0 -6.652 2.758l2.753 2.753-1.073 1.074-2.753-2.753a11.226 11.226 0 0 0 -2.764 6.653h3.9v1.515h-3.9a11.22 11.22 0 0 0 2.761 6.655l2.756-2.757 1.073 1.074-2.756 2.756a11.227 11.227 0 0 0 6.654 2.762v-3.9zm50.7 1.425a8.583 8.583 0 0 1 -1.619-.16 13.468 13.468 0 0 1 -9.957-9.957 5.788 5.788 0 0 1 7.229-7.23 13.467 13.467 0 0 1 9.958 9.958 6.249 6.249 0 0 1 -1.441 5.788 5.746 5.746 0 0 1 -3.98 1.6c-.063 0-.127-.001-.19-.003zm-9.544-14.237c-1.519 2.327-.457 6.359 2.615 9.43s7.1 4.13 9.433 2.611l-12.042-12.042zm1.078-1.074 12.037 12.041a5.175 5.175 0 0 0 .544-3.833 11.962 11.962 0 0 0 -8.753-8.753 5.174 5.174 0 0 0 -3.828.544zm393.061 15.151a12.641 12.641 0 0 1 -6.385-3.573 12.654 12.654 0 0 1 -3.575-6.384 5.787 5.787 0 0 1 7.228-7.229 13.446 13.446 0 0 1 4.106 1.742v1.848a11.951 11.951 0 0 0 -4.39-2.1 5.181 5.181 0 0 0 -3.834.544l8.224 8.224v2.146l-9.3-9.3c-1.519 2.327-.464 6.359 2.61 9.43a10.5 10.5 0 0 0 6.687 3.294v1.509a8.574 8.574 0 0 1 -1.371-.155zm-610.656-6.483 17.038-17.037 1.816 1.814 3.756-3.756a6.7 6.7 0 0 1 -1.016-5.351 13.528 13.528 0 0 1 10.133-10.133 6 6 0 0 1 7.439 7.44 13.527 13.527 0 0 1 -10.134 10.133 8.854 8.854 0 0 1 -1.594.152 6.146 6.146 0 0 1 -3.754-1.169l-3.752 3.758 1.816 1.815-17.042 17.04zm2.146 0 2.56 2.559 14.891-14.892-2.559-2.559zm31.153-33.1a10.481 10.481 0 0 0 -7.017 3.33c-3.418 3.418-4.367 8.042-2.1 10.3s6.882 1.321 10.3-2.1 4.36-8.041 2.1-10.3a4.521 4.521 0 0 0 -3.106-1.235c-.062-.004-.12-.003-.178 0zm354.559 33.1 17.038-17.033 1.816 1.814 3.757-3.756a6.7 6.7 0 0 1 -1.018-5.351 13.524 13.524 0 0 1 10.133-10.132 6 6 0 0 1 7.439 7.439 13.524 13.524 0 0 1 -10.132 10.131 8.776 8.776 0 0 1 -1.595.153 6.149 6.149 0 0 1 -3.754-1.169l-3.758 3.757 1.815 1.815-17.036 17.035zm2.145 0 2.56 2.559 14.891-14.892-2.559-2.559zm31.154-33.1a10.479 10.479 0 0 0 -7.018 3.33c-3.417 3.418-4.366 8.042-2.1 10.3s6.881 1.321 10.3-2.1 4.36-8.041 2.1-10.3a4.515 4.515 0 0 0 -3.1-1.234c-.066-.005-.124-.004-.184-.001zm-130.179 36.39a18.862 18.862 0 0 1 3.739-2.91l.773 1.306a17.411 17.411 0 0 0 -3.439 2.676zm8.133-3.263-.386-1.468c4.968-1.306 9.864-.153 13.1 3.083l-1.072 1.074c-2.852-2.857-7.202-3.862-11.643-2.695zm265.148 1.338v-2.695h-2.694v-1.518h2.694v-2.695h1.519v2.695h2.694v1.518h-2.694v2.695zm-390.564 0v-2.695h-2.695v-1.518h2.695v-2.695h1.518v2.695h2.695v1.518h-2.696v2.695zm182.768-3.94a4.317 4.317 0 0 1 4.312-4.313 2.8 2.8 0 0 0 2.795-2.794v-.109a4.316 4.316 0 0 1 4.313-4.313h.11a2.8 2.8 0 0 0 2.794-2.795 4.316 4.316 0 0 1 4.313-4.313v1.518a2.8 2.8 0 0 0 -2.8 2.8 4.317 4.317 0 0 1 -4.312 4.312h-.109a2.8 2.8 0 0 0 -2.8 2.794v.109a4.317 4.317 0 0 1 -4.313 4.313 2.8 2.8 0 0 0 -2.789 2.79zm-389.567 0a4.318 4.318 0 0 1 4.313-4.313 2.8 2.8 0 0 0 2.8-2.794v-.109a4.318 4.318 0 0 1 4.314-4.313h.109a2.8 2.8 0 0 0 2.794-2.795 4.318 4.318 0 0 1 4.306-4.318v1.518a2.8 2.8 0 0 0 -2.8 2.8 4.317 4.317 0 0 1 -4.312 4.312h-.109a2.8 2.8 0 0 0 -2.8 2.794v.109a4.317 4.317 0 0 1 -4.313 4.313 2.8 2.8 0 0 0 -2.785 2.79zm290.836-6.452a4.318 4.318 0 0 1 4.313-4.314 2.8 2.8 0 0 0 2.794-2.795v-.109a4.316 4.316 0 0 1 4.312-4.313h.11a2.8 2.8 0 0 0 2.794-2.8 4.317 4.317 0 0 1 4.313-4.313v1.518a2.8 2.8 0 0 0 -2.8 2.794 4.318 4.318 0 0 1 -4.313 4.314h-.109a2.8 2.8 0 0 0 -2.8 2.794v.109a4.316 4.316 0 0 1 -4.314 4.315 2.8 2.8 0 0 0 -2.785 2.8zm83.6-6.4 5.921-5.922 1.074 1.074-5.921 5.921zm177.429-15.2 1.074-1.074 13.465 13.466-1.073 1.073zm-390.419 0 1.074-1.074 13.466 13.466-1.074 1.073zm342.1 9.846 5.922-5.922 1.073 1.074-5.921 5.921zm-152.049 0 5.922-5.921 1.073 1.074-5.921 5.92zm-73.205 0 5.922-5.921 1.073 1.074-5.921 5.92zm-160.151 0 5.921-5.922 1.073 1.074-5.921 5.921zm423.66-28.646-1.327 1.326-13.931-13.931a7.649 7.649 0 0 1 0-10.8l.627-.629 18.266 18.259v-.005l17.04 17.038-4.706 4.706zm1.072-1.065 14.892 14.891 2.559-2.56-14.888-14.893zm-15.257-12.61 12.858 12.859 3.055-3.053.832-.832-17.166-17.165a6.13 6.13 0 0 0 .421 8.191zm-375.77 13.675-1.325 1.326-13.932-13.932a7.648 7.648 0 0 1 0-10.8l.629-.629 18.261 18.261v-.005l17.039 17.038-4.705 4.706zm1.074-1.065 14.892 14.891 2.559-2.56-14.891-14.892zm-15.257-12.609 12.859 12.859 3.054-3.053.832-.832-17.165-17.165a6.131 6.131 0 0 0 .42 8.19zm133.45 22.34a4.316 4.316 0 0 1 -4.313-4.313v-.111a2.8 2.8 0 0 0 -2.8-2.794h-.108a4.318 4.318 0 0 1 -4.313-4.313 2.8 2.8 0 0 0 -2.794-2.794v-1.519a4.318 4.318 0 0 1 4.313 4.313 2.8 2.8 0 0 0 2.794 2.8h.108a4.317 4.317 0 0 1 4.313 4.312v.111a2.8 2.8 0 0 0 2.8 2.794 4.318 4.318 0 0 1 4.321 4.309h-1.517a2.8 2.8 0 0 0 -2.804-2.796zm102-5.391 1.074-1.073 6.392 6.392-1.073 1.074zm-55.035 0 1.074-1.073 6.391 6.391-1.073 1.074zm177.785-10.978 1.074-1.073 16.79 16.79-1.074 1.074zm-385.419 0 1.073-1.073 16.791 16.79-1.074 1.074zm316 14.936 5.921-5.922 1.074 1.074-5.913 5.915zm-388.387 0 5.921-5.922 1.074 1.074-5.916 5.915zm434.247-.924a2.8 2.8 0 0 0 -2.795-2.794h-.11a4.318 4.318 0 0 1 -4.313-4.314 2.8 2.8 0 0 0 -2.794-2.794 4.318 4.318 0 0 1 -4.314-4.313v-.109a2.8 2.8 0 0 0 -2.794-2.8h-.109a4.317 4.317 0 0 1 -4.315-4.313 2.8 2.8 0 0 0 -2.794-2.794v-1.518a4.318 4.318 0 0 1 4.312 4.313 2.8 2.8 0 0 0 2.794 2.794h.11a4.318 4.318 0 0 1 4.312 4.314v.109a2.8 2.8 0 0 0 2.8 2.8 4.316 4.316 0 0 1 4.312 4.312 2.8 2.8 0 0 0 2.795 2.794h.11a4.318 4.318 0 0 1 4.312 4.308zm-387.1 0a2.8 2.8 0 0 0 -2.795-2.794h-.11a4.319 4.319 0 0 1 -4.314-4.314 2.8 2.8 0 0 0 -2.8-2.794 4.319 4.319 0 0 1 -4.313-4.313v-.109a2.8 2.8 0 0 0 -2.795-2.8h-.101a4.318 4.318 0 0 1 -4.312-4.314 2.8 2.8 0 0 0 -2.795-2.794v-1.518a4.317 4.317 0 0 1 4.312 4.313 2.8 2.8 0 0 0 2.8 2.794h.11a4.318 4.318 0 0 1 4.314 4.314v.109a2.8 2.8 0 0 0 2.794 2.8 4.317 4.317 0 0 1 4.313 4.312 2.8 2.8 0 0 0 2.8 2.794h.11a4.317 4.317 0 0 1 4.312 4.308zm515.915-3.215a6.249 6.249 0 0 1 -1.44-5.788 13.465 13.465 0 0 1 9.958-9.958 5.786 5.786 0 0 1 7.228 7.229 13.463 13.463 0 0 1 -9.958 9.958 8.561 8.561 0 0 1 -1.617.16c-.064 0-.127 0-.19 0a5.745 5.745 0 0 1 -3.973-1.603zm1.668-.59c2.331 1.517 6.359.46 9.431-2.611v-.005c3.072-3.072 4.128-7.1 2.611-9.426zm-1.072-1.078 12.042-12.042a4.562 4.562 0 0 0 -2.51-.677 7.042 7.042 0 0 0 -1.325.131 11.96 11.96 0 0 0 -8.753 8.754 5.174 5.174 0 0 0 .553 3.832zm-255.779 3.266a8.656 8.656 0 0 1 -1.619-.161 13.462 13.462 0 0 1 -9.958-9.957 5.787 5.787 0 0 1 7.23-7.23 13.468 13.468 0 0 1 9.957 9.96 6.245 6.245 0 0 1 -1.441 5.787 5.737 5.737 0 0 1 -3.979 1.6c-.061.009-.125.003-.19.001zm-6.929-4.807c3.072 3.071 7.1 4.129 9.433 2.61l-12.042-12.042c-1.519 2.332-.462 6.361 2.611 9.432zm-1.543-10.5 12.042 12.042c1.518-2.332.46-6.365-2.613-9.436a11.125 11.125 0 0 0 -5.6-3.156 5.184 5.184 0 0 0 -3.833.545zm-121.269 13.707a6.245 6.245 0 0 1 -1.441-5.788 13.467 13.467 0 0 1 9.958-9.958 5.787 5.787 0 0 1 7.229 7.23 13.467 13.467 0 0 1 -9.958 9.958 8.563 8.563 0 0 1 -1.618.16c-.064 0-.127 0-.191 0a5.738 5.738 0 0 1 -3.979-1.602zm1.668-.59c2.332 1.517 6.359.46 9.432-2.611v-.005c3.071-3.072 4.125-7.1 2.61-9.426zm-1.073-1.078 12.046-12.042a4.56 4.56 0 0 0 -2.512-.677 7.031 7.031 0 0 0 -1.323.132 11.962 11.962 0 0 0 -8.753 8.753 5.178 5.178 0 0 0 .542 3.834zm-204.633 1.668a6.247 6.247 0 0 1 -1.442-5.788 13.469 13.469 0 0 1 9.958-9.958 5.789 5.789 0 0 1 7.23 7.23 13.467 13.467 0 0 1 -9.958 9.958 8.563 8.563 0 0 1 -1.618.16c-.064 0-.127 0-.191 0a5.74 5.74 0 0 1 -3.979-1.602zm1.668-.595c2.331 1.519 6.359.46 9.431-2.611s4.129-7.1 2.611-9.431zm-1.072-1.073 12.043-12.042a4.57 4.57 0 0 0 -2.51-.678 7.092 7.092 0 0 0 -1.323.132 11.118 11.118 0 0 0 -5.6 3.156c-3.072 3.072-4.127 7.108-2.611 9.432zm388.6 1.668a6.247 6.247 0 0 1 -1.44-5.788 13.466 13.466 0 0 1 9.958-9.958 5.789 5.789 0 0 1 7.23 7.23 13.469 13.469 0 0 1 -9.958 9.958 8.638 8.638 0 0 1 -1.618.16h-.187a5.746 5.746 0 0 1 -3.985-1.602zm1.668-.595c2.331 1.519 6.359.46 9.431-2.611s4.13-7.1 2.611-9.431zm-1.071-1.073 12.041-12.042a4.562 4.562 0 0 0 -2.509-.678 7.017 7.017 0 0 0 -1.323.133 11.123 11.123 0 0 0 -5.6 3.155c-3.072 3.072-4.13 7.108-2.61 9.432zm-104.514-5.473 1.073-1.074 6.392 6.392-1.074 1.073zm275.692-2.686 1.074-1.073 6.391 6.391-1.073 1.074zm-390.553 0 1.074-1.073 6.391 6.391-1.073 1.074zm460.811 1.075v-1.518a4.3 4.3 0 0 1 1.75.371v1.764a2.786 2.786 0 0 0 -1.75-.617zm-378.759-17.04-10.428-10.427 26.665-30.834-4.342-4.343 6-6 4.306 4.306 4.924-4.925 25.1 25.1-4.925 4.925 4.306 4.306-6 6-4.344-4.343-30.833 26.664zm-8.353-10.5 9.428 9.43 9.43 9.43 29.683-25.67-22.873-22.874zm22.393-35.1 31.569 31.557 3.849-3.852-15.782-15.782-12.55-12.55-3.232-3.233zm9.233-.62 11.477 11.476 11.478 11.477 3.852-3.852-22.955-22.961zm197.756 50.753 1.074-1.073 5.411 5.411-1.073 1.074zm-386.11 0 1.074-1.073 5.412 5.411-1.074 1.074zm406.99-5.308 1.074-1.074 6.393 6.393-1.074 1.074zm-385.277 0 1.073-1.074 6.393 6.393-1.074 1.074zm462.671 4.059 61.206-61.2v2.14l-60.133 60.136zm-385.724 0 93.207-93.2a13.977 13.977 0 0 1 19.769 0l13.87 13.869-1.073 1.073-13.869-13.87a12.47 12.47 0 0 0 -17.626 0l-93.2 93.2zm164.565-2.057a2.8 2.8 0 0 0 -2.8-2.8h-.109a4.317 4.317 0 0 1 -4.312-4.313 2.8 2.8 0 0 0 -2.8-2.794 4.319 4.319 0 0 1 -4.314-4.313v-.107a2.8 2.8 0 0 0 -2.794-2.8h-.11a4.317 4.317 0 0 1 -4.313-4.313 2.8 2.8 0 0 0 -2.794-2.8v-1.517a4.317 4.317 0 0 1 4.313 4.312 2.8 2.8 0 0 0 2.794 2.795h.11a4.316 4.316 0 0 1 4.312 4.313v.11a2.8 2.8 0 0 0 2.8 2.8 4.319 4.319 0 0 1 4.313 4.313 2.8 2.8 0 0 0 2.794 2.8h.108a4.317 4.317 0 0 1 4.315 4.309zm133.326-58.127 1.074-1.074 58.027 58.028-1.073 1.073zm-389.516 0 1.073-1.074 58.027 58.028-1.073 1.073zm344.323 35.9a22.051 22.051 0 1 1 22.051 22.052 22.051 22.051 0 0 1 -22.051-22.057zm1.518 0a20.534 20.534 0 1 0 20.534-20.534 20.534 20.534 0 0 0 -20.534 20.534zm-388.043 0a22.052 22.052 0 1 1 22.052 22.052 22.052 22.052 0 0 1 -22.052-22.057zm1.518 0a20.534 20.534 0 1 0 20.534-20.534 20.534 20.534 0 0 0 -20.534 20.534zm326.189 21.739a2.8 2.8 0 0 0 -2.794-2.8 4.316 4.316 0 0 1 -4.313-4.313v-.109a2.8 2.8 0 0 0 -2.794-2.8h-.109a4.314 4.314 0 0 1 -4.313-4.312 2.8 2.8 0 0 0 -2.8-2.8v-1.518a4.319 4.319 0 0 1 4.313 4.314 2.8 2.8 0 0 0 2.8 2.794h.109a4.317 4.317 0 0 1 4.312 4.313v.109a2.8 2.8 0 0 0 2.794 2.8 4.317 4.317 0 0 1 4.317 4.324zm-390.148 0a2.8 2.8 0 0 0 -2.795-2.8 4.318 4.318 0 0 1 -4.314-4.313v-.109a2.8 2.8 0 0 0 -2.794-2.8h-.109a4.346 4.346 0 0 1 -.791-.073v-1.564a2.8 2.8 0 0 0 .79.113h.111a4.318 4.318 0 0 1 4.312 4.313v.109a2.8 2.8 0 0 0 2.795 2.8 4.317 4.317 0 0 1 4.315 4.324zm555.222-8.192-27.232-27.231 1.074-1.074 27.234 27.233a20.472 20.472 0 0 0 28.916 0l38.572-38.575 1.073 1.073-38.574 38.573a21.986 21.986 0 0 1 -31.063 0zm-388.665 0-27.231-27.231 1.074-1.074 27.232 27.232a20.472 20.472 0 0 0 28.916 0l38.573-38.574 1.073 1.073-38.574 38.573a21.988 21.988 0 0 1 -31.064 0zm163.925-4.437 1.074-1.074 6.392 6.393-1.073 1.071zm-56.288 4.9a8.973 8.973 0 0 1 3.434-17.264 8.974 8.974 0 1 1 -3.435 17.264zm-1.836-13.561a7.456 7.456 0 0 0 10.54 10.551 7.456 7.456 0 1 0 -10.544-10.544zm367.063 10.12 3.777-4.369v2.32l-1.706 1.98 1.706 1.7v2.145zm-214.905 1.521 5.921-5.922 1.074 1.074-5.921 5.922zm-388.388 0 5.921-5.922 1.074 1.074-5.925 5.921zm421.964-12.173a13.021 13.021 0 1 1 13.021 13.02 13.021 13.021 0 0 1 -13.021-13.02zm1.521 0a11.5 11.5 0 0 0 11.5 11.5 11.5 11.5 0 1 0 -11.5-11.5zm-388.141 0a13.021 13.021 0 1 1 13.021 13.02 13.021 13.021 0 0 1 -13.021-13.02zm1.521 0a11.5 11.5 0 0 0 11.5 11.5 11.5 11.5 0 1 0 -11.5-11.5zm546.218 11.137 5.921-5.921 1.074 1.074-5.921 5.921zm-385.616 0 5.921-5.921 1.074 1.074-5.921 5.921zm227.747-11.163a9.8 9.8 0 0 1 9.8-9.8 9.8 9.8 0 1 1 -9.8 9.8zm1.521 0a8.279 8.279 0 1 0 8.279-8.279 8.28 8.28 0 0 0 -8.279 8.279zm-388.17 0a9.8 9.8 0 1 1 9.8 9.8 9.8 9.8 0 0 1 -9.8-9.797zm1.521 0a8.279 8.279 0 1 0 8.279-8.279 8.28 8.28 0 0 0 -8.279 8.279zm503.912 3.4 23.345-23.345 1.074 1.074-23.347 23.348zm-390.227 0 23.345-23.345 1.073 1.074-23.345 23.345zm165.845-9.29 1.074-1.074 6.391 6.392-1.073 1.073zm41.29-.707-12.936-12.934 1.074-1.073 12.938 12.938a22.437 22.437 0 0 0 31.7 0l13.778-13.78 1.072 1.073-13.78 13.782a23.959 23.959 0 0 1 -33.847 0zm-388.779 0-12.939-12.934 1.073-1.073 12.938 12.938a22.44 22.44 0 0 0 31.7 0l13.778-13.78 1.073 1.073-13.78 13.782a23.957 23.957 0 0 1 -33.845 0zm366.749-4.9 1.074-1.073 6.392 6.393-1.074 1.073zm-385.806 4.487v-2.147l2.978 2.979-1.078 1.072zm500.385-64.535 1.074-1.073 59.747 59.747-1.074 1.074zm-389.48 0 1.074-1.073 59.746 59.747-1.073 1.074zm274.585 28.863 1.073-1.073 25.426 25.426-1.073 1.073zm-385.49 4.427v-2.146l22.072 22.072-1.072 1.072zm438.906 19.831 20.508-20.508 1.074 1.073-20.508 20.507zm-387.914 0 20.508-20.509 1.074 1.073-20.509 20.508zm295.135-10.06-10.207 1.331-7.546-19.88 9.229.893a30.833 30.833 0 0 0 11.1-11.1l-.893-9.229 19.88 7.547-1.328 10.2a32.34 32.34 0 0 1 8.684 28.305l-.093.519-.519.094a32.337 32.337 0 0 1 -28.308-8.684zm-7.5-16.494a30.783 30.783 0 0 0 35.012 23.778 30.781 30.781 0 0 0 -23.778-35.011 32.47 32.47 0 0 1 -11.235 11.232zm-1.717 16.169 7.9-1.03a32.117 32.117 0 0 1 -7.663-14.817l-6.489-.628zm13.276-28.882a32.114 32.114 0 0 1 14.815 7.665l1.03-7.9-16.474-6.253zm227.683 31.482-12.176-12.182 20.73-20.731 2.15 2.152 3.493-3.49a6.254 6.254 0 0 1 8.835 0l.148.146a6.257 6.257 0 0 1 0 8.836l-3.493 3.49 1.043 1.042a14.4 14.4 0 0 1 0 20.365l-.364.364a14.4 14.4 0 0 1 -20.366 0zm-10.026-12.182 11.1 11.1a12.884 12.884 0 0 0 18.22 0l.363-.364a12.884 12.884 0 0 0 0-18.22l-1.04-1.04-8.986-8.976-1.079-1.079zm25.3-21-3.492 3.49 6.836 6.835 3.492-3.49a4.736 4.736 0 0 0 0-6.69l-.151-.145a4.734 4.734 0 0 0 -6.689 0zm-405.243 33.178-12.179-12.178 20.73-20.731 2.152 2.152 3.491-3.49a6.254 6.254 0 0 1 8.835 0l.147.146a6.257 6.257 0 0 1 0 8.836l-3.491 3.49 1.041 1.042a14.4 14.4 0 0 1 0 20.365l-.364.364a14.4 14.4 0 0 1 -20.366 0zm-10.031-12.178 11.1 11.1a12.885 12.885 0 0 0 18.221 0l.364-.364a12.885 12.885 0 0 0 0-18.22l-1.041-1.04-8.98-8.98-1.079-1.079zm25.3-21-3.492 3.49 6.835 6.835 3.492-3.49a4.736 4.736 0 0 0 0-6.69l-.148-.145a4.735 4.735 0 0 0 -6.689 0zm226.415 34.01 35.577-35.577 1.074 1.073-35.577 35.577zm-387.929 0 35.577-35.577 1.068 1.073-35.571 35.577zm311.44-5.358a7.87 7.87 0 1 1 5.565 2.3 7.87 7.87 0 0 1 -5.565-2.3zm1.077-10.054a6.35 6.35 0 0 0 8.979 8.981 6.349 6.349 0 1 0 -8.978-8.98zm240.434 9.481a8.086 8.086 0 0 0 0-11.425l-3.663-3.664 1.073-1.073 3.665 3.664a9.611 9.611 0 0 1 0 13.571zm-390.552 0a8.088 8.088 0 0 0 0-11.425l-3.664-3.664 1.073-1.073 3.665 3.664a9.607 9.607 0 0 1 0 13.571zm298.628-21.379a20.473 20.473 0 0 0 -28.917 0l-1.072-1.073a21.99 21.99 0 0 1 31.062 0l20.821 20.822-1.076 1.07zm-385.789 0a20.471 20.471 0 0 0 -28.917 0l-1.076-1.075a21.99 21.99 0 0 1 31.063 0l20.822 20.822-1.074 1.073zm189.4 11.075 1.074-1.074 6.392 6.393-1.074 1.073zm322.6 2.64 25.107-25.109v2.146l-24.034 24.034zm-386.048 0 42.789-42.789 1.074 1.073-42.789 42.79zm145.755-40.073-8.6 5.125 11.049 18-1.3.8-11.843-19.309 9.905-5.9-2.962-4.824 3.681-3.681-5.687-3.5 7.044-7.045 3.5 5.686 3.682-3.681 28.779 17.664v-6.377a5.04 5.04 0 0 0 -1.485-3.582l-9.713-9.718a11.236 11.236 0 0 1 0-15.872l.536-.537 4.354 4.354-.537.537a5.071 5.071 0 0 0 0 7.164l9.716 9.716a11.148 11.148 0 0 1 3.287 7.935v10.162l10.021 6.153-29.572 29.572zm5.6-13.324-4.347 4.347-3.1 3.091 25.974 42.3 26.86-26.856-9.1-5.591v-11.004a9.642 9.642 0 0 0 -2.842-6.863l-9.716-9.716a6.594 6.594 0 0 1 -.5-8.744l-2.217-2.218a9.718 9.718 0 0 0 .516 13.169l9.715 9.715a6.547 6.547 0 0 1 1.929 4.657v9.095l-30.078-18.47zm-8.929-.255 4.358 2.681 2.651-2.652-2.68-4.356zm-385.271 14.888v-2.889l23.33 37.994 26.851-26.856-9.1-5.591v-11.004a9.634 9.634 0 0 0 -2.842-6.863l-9.715-9.716a6.593 6.593 0 0 1 -.506-8.744l-2.218-2.217a9.718 9.718 0 0 0 .517 13.168l9.715 9.715a6.538 6.538 0 0 1 1.928 4.657v9.095l-30.073-18.47-3.087 3.089-4.347 4.347-.451.45v-2.51l.226.139 2.651-2.652-2.679-4.357-.2.2v-2.147l.481-.481 3.5 5.686 3.68-3.681 28.78 17.664v-6.377a5.036 5.036 0 0 0 -1.484-3.583l-9.714-9.717a11.236 11.236 0 0 1 0-15.872l.537-.537 4.354 4.354-.537.537a5.072 5.072 0 0 0 0 7.164l9.715 9.716a11.15 11.15 0 0 1 3.288 7.938v10.159l10.021 6.153-29.574 29.572zm561.7 27.749a7.612 7.612 0 0 1 -5.329-5.168l1.453-.44a6.1 6.1 0 0 0 4.271 4.144 7.61 7.61 0 0 1 5.33 5.169l-1.453.44a6.1 6.1 0 0 0 -4.272-4.145zm-390.481 0a7.611 7.611 0 0 1 -5.328-5.168l1.454-.44a6.1 6.1 0 0 0 4.27 4.144 7.61 7.61 0 0 1 5.328 5.169l-1.453.44a6.1 6.1 0 0 0 -4.273-4.145zm135.73-2.669 1.073-1.073 6.394 6.392-1.074 1.073zm29.59 1.963a15.509 15.509 0 0 0 7.937-7.936l1.385.619a17.028 17.028 0 0 1 -8.7 8.7zm248.631-1.545 1.074-1.074 2.792 2.792-1.074 1.074zm-390.62 0 1.074-1.074 2.792 2.792-1.074 1.074zm371.425-2.065a7.608 7.608 0 0 1 -5.327-5.168l1.452-.44a6.1 6.1 0 0 0 4.271 4.144 7.609 7.609 0 0 1 5.328 5.168l-1.453.44a6.1 6.1 0 0 0 -4.273-4.147zm-390.483 0a7.608 7.608 0 0 1 -5.328-5.168l1.452-.44a6.1 6.1 0 0 0 4.271 4.144 7.608 7.608 0 0 1 5.327 5.168l-1.452.44a6.107 6.107 0 0 0 -4.272-4.147zm94.812.973 21.338-21.338a21.989 21.989 0 0 1 31.063 0l16.34 16.34-1.074 1.075-16.34-16.34a20.448 20.448 0 0 0 -28.917 0l-21.336 21.338zm343.106-5.382 1.074-1.074 6.391 6.392-1.073 1.073zm-385 0 1.07-1.075 6.391 6.392-1.073 1.073zm314.45 4.62a2.8 2.8 0 0 0 -2.8-2.794h-.109a4.317 4.317 0 0 1 -4.312-4.313 2.8 2.8 0 0 0 -2.8-2.8 4.317 4.317 0 0 1 -4.313-4.312v-.11a2.8 2.8 0 0 0 -2.8-2.8h-.109a4.314 4.314 0 0 1 -4.311-4.313 2.8 2.8 0 0 0 -2.8-2.795l.012-1.512a4.317 4.317 0 0 1 4.313 4.313 2.8 2.8 0 0 0 2.794 2.795h.109a4.315 4.315 0 0 1 4.312 4.312v.11a2.8 2.8 0 0 0 2.8 2.794 4.317 4.317 0 0 1 4.312 4.314 2.8 2.8 0 0 0 2.794 2.795h.109a4.317 4.317 0 0 1 4.312 4.313zm-390.206 0a2.8 2.8 0 0 0 -2.8-2.794h-.11a4.318 4.318 0 0 1 -4.314-4.313 2.8 2.8 0 0 0 -2.794-2.8 4.317 4.317 0 0 1 -4.313-4.312v-.11a2.8 2.8 0 0 0 -2.8-2.8h-.109a4.317 4.317 0 0 1 -4.313-4.313 2.8 2.8 0 0 0 -2.794-2.795v-1.512a4.318 4.318 0 0 1 4.313 4.313 2.8 2.8 0 0 0 2.794 2.795h.109a4.318 4.318 0 0 1 4.314 4.313v.11a2.8 2.8 0 0 0 2.794 2.794 4.317 4.317 0 0 1 4.312 4.314 2.8 2.8 0 0 0 2.8 2.795h.11a4.317 4.317 0 0 1 4.312 4.313zm244.829-21.378 1.293-.794 12.979 21.137-1.293.795zm-389.7 0 1.294-.794 12.979 21.137-1.293.795zm562.464 16.849a7.609 7.609 0 0 1 -5.329-5.168l1.453-.441a6.1 6.1 0 0 0 4.271 4.145 7.609 7.609 0 0 1 5.329 5.168l-1.453.439a6.1 6.1 0 0 0 -4.271-4.143zm-390.488 0a7.61 7.61 0 0 1 -5.327-5.168l1.452-.441a6.1 6.1 0 0 0 4.271 4.144 7.612 7.612 0 0 1 5.328 5.169l-1.453.439a6.1 6.1 0 0 0 -4.27-4.143zm-179.759 2.922v-2.9l1.647 2.683-1.292.8zm574.52-7.24a7.613 7.613 0 0 1 -5.328-5.167l1.453-.44a6.1 6.1 0 0 0 4.271 4.144 7.605 7.605 0 0 1 5.327 5.167l-1.453.439a6.1 6.1 0 0 0 -4.27-4.143zm-390.485 0a7.608 7.608 0 0 1 -5.328-5.167l1.452-.44a6.1 6.1 0 0 0 4.271 4.144 7.611 7.611 0 0 1 5.329 5.167l-1.454.439a6.1 6.1 0 0 0 -4.27-4.143zm140.324-17.966 1.073-1.073 16.443 16.442-1.075 1.074zm302 14.839a6.249 6.249 0 0 1 -1.441-5.788 13.468 13.468 0 0 1 9.959-9.959 5.786 5.786 0 0 1 7.223 7.226 13.462 13.462 0 0 1 -9.956 9.958 8.563 8.563 0 0 1 -1.618.16c-.064 0-.127 0-.191 0a5.747 5.747 0 0 1 -3.978-1.597zm1.668-.6a5.178 5.178 0 0 0 3.832.545 11.126 11.126 0 0 0 5.6-3.155c3.076-3.072 4.135-7.1 2.614-9.43zm-1.072-1.074 12.045-12.039a4.574 4.574 0 0 0 -2.526-.688 10.348 10.348 0 0 0 -6.9 3.3c-3.081 3.072-4.14 7.104-2.621 9.431zm-386.142 1.67a6.252 6.252 0 0 1 -1.441-5.788 13.466 13.466 0 0 1 9.958-9.958 5.786 5.786 0 0 1 7.228 7.227 13.462 13.462 0 0 1 -9.958 9.958 8.561 8.561 0 0 1 -1.617.16c-.064 0-.127 0-.191 0a5.743 5.743 0 0 1 -3.981-1.595zm1.665-.6a5.175 5.175 0 0 0 3.833.545 11.124 11.124 0 0 0 5.6-3.155c3.071-3.072 4.128-7.1 2.608-9.43zm-1.078-1.066 12.044-12.043a4.578 4.578 0 0 0 -2.525-.687 10.355 10.355 0 0 0 -6.907 3.3c-3.068 3.071-4.126 7.103-2.612 9.43zm357.053-11.4 1.073-1.073 13.155 13.155-1.069 1.067zm-390.425 0 1.074-1.073 13.158 13.153-1.073 1.069zm143.125 3 5.921-5.921 1.074 1.074-5.921 5.921zm40.937-6.411 1.293-.794 2.6 4.24-1.293.794zm-390.121 0 1.293-.794 2.6 4.24-1.293.794zm451.941 2.025 5.922-5.922 1.073 1.074-5.921 5.921zm-387.668 0 5.921-5.922 1.074 1.074-5.921 5.921zm503.435-9.538 1.074-1.074 7.949 7.947-1.074 1.073zm-390.524 0 1.073-1.074 7.951 7.951-1.077 1.073zm431.412-4.1 1.074-1.074 11.748 11.747-1.073 1.074zm-390.452 0 1.074-1.074 11.749 11.747-1.074 1.074zm426.137 10.792a8.486 8.486 0 0 1 -1.617-.159 13.463 13.463 0 0 1 -9.958-9.957 5.789 5.789 0 0 1 7.229-7.23 13.467 13.467 0 0 1 9.957 9.958 6.242 6.242 0 0 1 -1.441 5.787 5.732 5.732 0 0 1 -3.976 1.6c-.066.004-.13.002-.194.001zm-10.084-10.4a11.956 11.956 0 0 0 8.753 8.753 5.175 5.175 0 0 0 3.833-.545l-12.043-12.045a5.176 5.176 0 0 0 -.544 3.833zm1.616-4.907 12.043 12.043c1.52-2.331.46-6.358-2.609-9.431a10.354 10.354 0 0 0 -6.907-3.3h-.109a4.566 4.566 0 0 0 -2.418.684zm-377.448 15.307a8.489 8.489 0 0 1 -1.618-.159 12.647 12.647 0 0 1 -6.384-3.573 12.645 12.645 0 0 1 -3.575-6.383 5.788 5.788 0 0 1 7.229-7.229 13.463 13.463 0 0 1 9.958 9.958 6.245 6.245 0 0 1 -1.444 5.785 5.732 5.732 0 0 1 -3.975 1.6c-.062.004-.125.002-.191.001zm-10.085-10.4a11.96 11.96 0 0 0 8.753 8.754 5.18 5.18 0 0 0 3.833-.545l-12.042-12.046a5.172 5.172 0 0 0 -.544 3.833zm1.618-4.907 12.043 12.039c1.518-2.331.46-6.358-2.611-9.431a10.36 10.36 0 0 0 -6.906-3.3h-.115a4.561 4.561 0 0 0 -2.411.688zm215.5-1.006 27.341-31.886 5.547 5.548 3.52-4.044-8.926-8.924 3.755-3.754 12.421 12.422-7.01 8.061 11.424 11.425-31.882 27.346zm2.069-.079 14.206 14.206 20.327-17.434-7.645-7.647 1.072-1.074 7.729 7.73 8.086-6.937-10.188-10.2-20.784 23.9-4.022-3.471 21.042-24.186-4.459-4.463-6.936 8.087 3.327 3.329-1.074 1.074-3.25-3.241zm10.928-1.075 1.722 1.485 19.855-22.837-1.607-1.608zm16.636-38.152 8.853 8.853-4.517 5.192 1.607 1.607 6.013-6.913-10.356-10.35zm-415.747 39.3 27.347-31.88 5.549 5.548 3.519-4.044-8.928-8.924 3.754-3.754 12.422 12.422-7.016 8.06 11.425 11.425-31.878 27.347zm2.069-.079 14.2 14.206 20.328-17.434-7.647-7.647 1.073-1.074 7.729 7.73 8.087-6.937-10.189-10.2-20.783 23.9-4.02-3.465 21.043-24.186-4.464-4.465-6.936 8.087 3.328 3.329-1.071 1.076-3.244-3.241zm10.928-1.075 1.721 1.485 19.86-22.831-1.608-1.608zm16.636-38.146 8.853 8.853-4.518 5.192 1.607 1.607 6.012-6.913-10.346-10.35zm218.6 53.844 37.814-37.808 1.074 1.073-37.816 37.807zm213.561.327h-.19a8.578 8.578 0 0 1 -1.618-.16 13.462 13.462 0 0 1 -9.958-9.958 5.788 5.788 0 0 1 7.229-7.229 13.463 13.463 0 0 1 9.957 9.958 6.249 6.249 0 0 1 -1.44 5.788 5.736 5.736 0 0 1 -3.976 1.6zm-7.122-4.809c3.072 3.071 7.1 4.13 9.433 2.611l-12.044-12.043c-1.514 2.329-.462 6.36 2.609 9.43zm-1.536-10.5 12.041 12.038c1.519-2.331.46-6.359-2.611-9.43a10.348 10.348 0 0 0 -6.906-3.3h-.113a4.576 4.576 0 0 0 -2.413.686zm-381.896 15.304a8.561 8.561 0 0 1 -1.617-.16 13.465 13.465 0 0 1 -9.958-9.958 5.786 5.786 0 0 1 7.229-7.227 13.462 13.462 0 0 1 9.958 9.958 6.248 6.248 0 0 1 -1.441 5.788 5.746 5.746 0 0 1 -3.982 1.6zm-6.93-4.806c3.073 3.071 7.1 4.13 9.431 2.611l-12.042-12.042c-1.52 2.329-.461 6.361 2.611 9.431zm-1.536-10.5 12.042 12.04c1.517-2.331.461-6.359-2.611-9.43a10.348 10.348 0 0 0 -6.907-3.3h-.112a4.572 4.572 0 0 0 -2.413.686zm219.7 10.774 14.691-14.692 1.074 1.074-14.692 14.684zm-33.916-2.234a22.18 22.18 0 0 1 -4.33-25.205l-1.609-1.612a3.62 3.62 0 0 1 0-5.119l5.313-5.313a3.619 3.619 0 0 1 5.119 0l1.611 1.611a22.178 22.178 0 0 1 25.2 4.329l.537.537-31.31 31.309zm1.066-30.244a20.621 20.621 0 0 0 -.52 28.624l29.143-29.144a20.621 20.621 0 0 0 -28.623.519zm-.62-5.933-5.315 5.313a2.1 2.1 0 0 0 0 2.973l1.276 1.274a22.4 22.4 0 0 1 8.287-8.285l-1.275-1.275a2.1 2.1 0 0 0 -2.973 0zm-55.946 26.522a6.251 6.251 0 0 1 -1.4-5.8 13.461 13.461 0 0 1 10.035-9.879 5.787 5.787 0 0 1 7.172 7.285 13.468 13.468 0 0 1 -10.036 9.88 8.709 8.709 0 0 1 -1.56.147c-.065 0-.13 0-.2 0a5.755 5.755 0 0 1 -4.011-1.633zm1.671-.581a5.18 5.18 0 0 0 3.829.575 11.126 11.126 0 0 0 5.622-3.112c3.1-3.047 4.183-7.071 2.685-9.411zm8.518-13.727a7.07 7.07 0 0 0 -1.276.122 11.961 11.961 0 0 0 -8.822 8.685 5.178 5.178 0 0 0 .515 3.841l12.136-11.948a4.58 4.58 0 0 0 -2.434-.7zm267.118-4.6 1.814-1.816-3.717-3.721-1.315 1.314a4.684 4.684 0 0 1 -3.322 1.374 4.682 4.682 0 0 1 -3.319-1.37l-10.676-10.676 1.073-1.073 10.675 10.675a3.184 3.184 0 0 0 4.5 0l1.312-1.314-12.933-12.93 1.074-1.073 12.933 12.933 1.314-1.314a3.182 3.182 0 0 0 0-4.5l-10.676-10.679 1.073-1.073 10.672 10.678a4.7 4.7 0 0 1 0 6.643l-1.313 1.314 3.72 3.718 1.814-1.816 17.04 17.039-4.705 4.7zm2.143 0 14.893 14.891 2.56-2.56-14.893-14.89zm-392.014 0 1.816-1.816-3.717-3.721-1.314 1.313a4.707 4.707 0 0 1 -6.644 0l-10.675-10.671 1.073-1.073 10.669 10.677a3.183 3.183 0 0 0 4.5 0l1.314-1.314-12.935-12.932 1.074-1.073 12.933 12.933 1.314-1.314a3.183 3.183 0 0 0 0-4.5l-10.676-10.677 1.073-1.069 10.676 10.676a4.7 4.7 0 0 1 0 6.643l-1.314 1.314 3.719 3.718 1.816-1.816 17.038 17.039-4.7 4.7zm2.148 0 14.892 14.891 2.56-2.559-14.891-14.891zm283.737 13.435 5.921-5.921 1.073 1.074-5.921 5.921zm-387.912 0 5.922-5.921 1.073 1.074-5.921 5.921zm529.5-18.358a17.075 17.075 0 0 1 16.7-17.453v-6.638a4.163 4.163 0 0 1 4.16-4.158h8.138v8.135a4.165 4.165 0 0 1 -4.159 4.158h-.342a17.081 17.081 0 0 1 -7.037 32.646c-.129 0-.257 0-.385 0a17.082 17.082 0 0 1 -17.076-16.691zm1.894-.389a15.564 15.564 0 1 0 15.564-15.564 15.563 15.563 0 0 0 -15.565 15.564zm16.322-23.7v6.621h6.62a2.644 2.644 0 0 0 2.644-2.646v-6.617h-6.619a2.643 2.643 0 0 0 -2.646 2.64zm-408.25 24.09a17.076 17.076 0 0 1 16.7-17.453v-6.639a4.162 4.162 0 0 1 4.158-4.158h8.139v8.135a4.163 4.163 0 0 1 -4.158 4.158h-.342a17.082 17.082 0 0 1 -7.037 32.646c-.129 0-.257 0-.385 0a17.082 17.082 0 0 1 -17.075-16.691zm1.893-.388a15.564 15.564 0 1 0 15.565-15.565 15.564 15.564 0 0 0 -15.566 15.564zm16.321-23.704v6.621h6.621a2.644 2.644 0 0 0 2.64-2.642v-6.619h-6.62a2.643 2.643 0 0 0 -2.641 2.64zm389.377 36.493a12.792 12.792 0 1 1 12.791-12.791 12.806 12.806 0 0 1 -12.791 12.791zm.76-5.447v3.9a11.215 11.215 0 0 0 6.653-2.762l-2.755-2.755 1.074-1.073 2.756 2.755a11.227 11.227 0 0 0 2.758-6.654h-3.9v-1.516h3.9a11.232 11.232 0 0 0 -2.76-6.653l-2.753 2.753-1.074-1.073 2.751-2.753a11.222 11.222 0 0 0 -6.65-2.76v3.9h-1.518v-3.9a11.234 11.234 0 0 0 -6.653 2.759l2.753 2.753-1.073 1.073-2.754-2.754a11.23 11.23 0 0 0 -2.762 6.65h3.9v1.518h-3.9a11.212 11.212 0 0 0 2.761 6.655l2.756-2.757 1.073 1.073-2.755 2.757a11.227 11.227 0 0 0 6.654 2.762v-3.9zm-390.966 5.447a12.792 12.792 0 1 1 12.793-12.792 12.8 12.8 0 0 1 -12.793 12.792zm.759-5.447v3.9a11.221 11.221 0 0 0 6.654-2.762l-2.756-2.755 1.072-1.072 2.755 2.755a11.219 11.219 0 0 0 2.76-6.654h-3.9v-1.517h3.9a11.225 11.225 0 0 0 -2.761-6.653l-2.754 2.754-1.073-1.073 2.752-2.753a11.222 11.222 0 0 0 -6.65-2.76v3.9h-1.518v-3.9a11.223 11.223 0 0 0 -6.652 2.759l2.753 2.753-1.073 1.073-2.753-2.754a11.221 11.221 0 0 0 -2.764 6.65h3.9v1.518h-3.9a11.219 11.219 0 0 0 2.761 6.655l2.756-2.757 1.073 1.073-2.756 2.757a11.227 11.227 0 0 0 6.654 2.762v-3.9zm50.7 1.409a8.57 8.57 0 0 1 -1.618-.159 12.651 12.651 0 0 1 -6.384-3.573 12.655 12.655 0 0 1 -3.574-6.385 5.787 5.787 0 0 1 7.229-7.229 13.466 13.466 0 0 1 9.958 9.958 6.249 6.249 0 0 1 -1.441 5.788 5.741 5.741 0 0 1 -3.977 1.6c-.065.004-.13.003-.194 0zm-9.544-14.236c-1.519 2.326-.457 6.358 2.615 9.429s7.1 4.13 9.433 2.612l-12.043-12.042zm1.078-1.075 12.036 12.042a5.178 5.178 0 0 0 .546-3.834 11.963 11.963 0 0 0 -8.755-8.753h-.005a5.171 5.171 0 0 0 -3.827.545zm393.06 15.152a12.64 12.64 0 0 1 -6.385-3.573 12.648 12.648 0 0 1 -3.574-6.385 5.787 5.787 0 0 1 7.228-7.229 13.452 13.452 0 0 1 4.106 1.742v1.849a11.953 11.953 0 0 0 -4.39-2.1 5.177 5.177 0 0 0 -3.834.545l8.224 8.225v2.146l-9.3-9.3c-1.519 2.326-.464 6.358 2.61 9.429a10.5 10.5 0 0 0 6.687 3.294v1.509a8.469 8.469 0 0 1 -1.372-.152zm-319.68-3.1a18.976 18.976 0 0 1 3.739-2.909l.773 1.306a17.382 17.382 0 0 0 -3.439 2.677zm-290.976-3.719 17.038-17.037 1.816 1.816 3.756-3.757a6.7 6.7 0 0 1 -1.016-5.35 13.523 13.523 0 0 1 9.17-9.872h5.04a6 6 0 0 1 3.363 7.178 13.526 13.526 0 0 1 -10.135 10.134 8.691 8.691 0 0 1 -1.594.15 6.141 6.141 0 0 1 -3.754-1.168l-3.752 3.758 1.816 1.815-17.042 17.04zm2.146 0 2.56 2.559 14.89-14.891-2.559-2.559zm31.152-33.1a10.481 10.481 0 0 0 -7.017 3.33c-3.418 3.418-4.367 8.042-2.1 10.3s6.882 1.321 10.3-2.1 4.36-8.04 2.1-10.3a4.525 4.525 0 0 0 -3.109-1.238c-.058 0-.116.002-.174.008zm354.559 33.1 17.038-17.038 1.816 1.816 3.757-3.757a6.7 6.7 0 0 1 -1.017-5.35 13.522 13.522 0 0 1 9.168-9.871h5.041a6 6 0 0 1 3.362 7.178 13.523 13.523 0 0 1 -10.132 10.133 8.774 8.774 0 0 1 -1.595.151 6.142 6.142 0 0 1 -3.754-1.169l-3.758 3.758 1.815 1.815-17.041 17.034zm2.145 0 2.56 2.559 14.89-14.891-2.559-2.559zm31.153-33.1a10.479 10.479 0 0 0 -7.018 3.33c-3.417 3.418-4.366 8.042-2.1 10.3s6.881 1.321 10.3-2.1 4.36-8.04 2.1-10.3a4.516 4.516 0 0 0 -3.1-1.235c-.064-.003-.122-.001-.182.005zm-122.045 33.5-.386-1.468c4.968-1.306 9.864-.153 13.1 3.084l-1.072 1.073c-2.851-2.848-7.201-3.854-11.642-2.689zm265.148 1.275v-2.7h-2.694v-1.511h2.694v-2.7h1.519v2.7h2.694v1.517h-2.694v2.7zm-390.564 0v-2.7h-2.695v-1.511h2.695v-2.7h1.518v2.7h2.695v1.517h-2.695v2.7zm182.768-4.2a4.317 4.317 0 0 1 4.312-4.314 2.8 2.8 0 0 0 2.795-2.794v-.109a4.316 4.316 0 0 1 4.313-4.313h.11a2.8 2.8 0 0 0 2.794-2.8 4.317 4.317 0 0 1 4.313-4.313v1.518a2.8 2.8 0 0 0 -2.8 2.8 4.317 4.317 0 0 1 -4.312 4.312h-.109a2.8 2.8 0 0 0 -2.8 2.8v.109a4.316 4.316 0 0 1 -4.313 4.312 2.8 2.8 0 0 0 -2.789 2.787zm-389.567 0a4.318 4.318 0 0 1 4.313-4.313 2.8 2.8 0 0 0 2.8-2.794v-.109a4.316 4.316 0 0 1 4.313-4.313h.109a2.8 2.8 0 0 0 2.794-2.8 4.318 4.318 0 0 1 4.308-4.308v1.518a2.8 2.8 0 0 0 -2.8 2.8 4.317 4.317 0 0 1 -4.312 4.312h-.109a2.8 2.8 0 0 0 -2.8 2.8v.109a4.316 4.316 0 0 1 -4.313 4.312 2.8 2.8 0 0 0 -2.785 2.787zm290.837-6.631a4.316 4.316 0 0 1 4.314-4.312 2.8 2.8 0 0 0 2.794-2.8v-.109a4.317 4.317 0 0 1 4.312-4.314h.11a2.8 2.8 0 0 0 2.794-2.795 4.316 4.316 0 0 1 4.313-4.314v1.52a2.8 2.8 0 0 0 -2.8 2.795 4.319 4.319 0 0 1 -4.313 4.313h-.109a2.8 2.8 0 0 0 -2.8 2.8v.109a4.316 4.316 0 0 1 -4.311 4.313 2.8 2.8 0 0 0 -2.785 2.8zm83.6-6.4 5.921-5.922 1.074 1.074-5.921 5.921zm177.432-15.382 1.074-1.074 13.464 13.466-1.07 1.074zm-390.419 0 1.074-1.074 13.466 13.466-1.074 1.074zm342.1 9.875 5.922-5.921 1.073 1.074-5.921 5.921zm-152.049 0 5.922-5.921 1.073 1.074-5.921 5.921zm-73.205 0 5.922-5.921 1.073 1.074-5.921 5.921zm-160.151 0 5.921-5.921 1.071 1.073-5.921 5.921z" fill="#439783" transform="translate(-11.5 -.5)"/></svg>