<svg height="308" viewBox="0 0 289.629 308" width="289.629" xmlns="http://www.w3.org/2000/svg"><path d="m342.206 334.647-33.806-33.809a133.182 133.182 0 0 0 -223.133-60.406l94.215 94.215-94.226 94.226a133.289 133.289 0 0 0 223.157-60.434z" fill="#ff5d2e" transform="translate(-64.606 -201.397)"/><g opacity=".1" transform="translate(0 18.372)"><path d="m355.751 397.543a114.778 114.778 0 1 1 -71.105-106.243 114.877 114.877 0 0 1 71.105 106.243z" opacity="0" transform="translate(-66.122 -222.793)"/><path d="m355.135 396.928a114.775 114.775 0 1 1 -71.105-106.247 114.877 114.877 0 0 1 71.105 106.247z" opacity=".01" transform="translate(-66.099 -222.77)"/><path d="m354.519 396.312a114.779 114.779 0 1 1 -71.106-106.245 114.877 114.877 0 0 1 71.106 106.245z" opacity=".02" transform="translate(-66.076 -222.747)"/><path d="m353.9 395.7a114.779 114.779 0 1 1 -71.1-106.25 114.877 114.877 0 0 1 71.1 106.25z" opacity=".03" transform="translate(-66.053 -222.724)"/><path d="m353.288 395.081a114.776 114.776 0 1 1 -71.106-106.246 114.878 114.878 0 0 1 71.106 106.246z" opacity=".04" transform="translate(-66.031 -222.702)"/><path d="m352.672 394.465a114.776 114.776 0 1 1 -71.106-106.246 114.877 114.877 0 0 1 71.106 106.246z" opacity=".05" transform="translate(-66.008 -222.679)"/><path d="m352.056 393.849a114.778 114.778 0 1 1 -71.105-106.249 114.877 114.877 0 0 1 71.105 106.249z" opacity=".059" transform="translate(-65.985 -222.656)"/><path d="m351.441 393.234a114.775 114.775 0 1 1 -71.106-106.246 114.877 114.877 0 0 1 71.106 106.246z" opacity=".069" transform="translate(-65.962 -222.633)"/><path d="m350.825 392.618a114.775 114.775 0 1 1 -71.105-106.247 114.877 114.877 0 0 1 71.105 106.247z" opacity=".079" transform="translate(-65.939 -222.61)"/><path d="m350.209 392a114.779 114.779 0 1 1 -71.109-106.244 114.877 114.877 0 0 1 71.109 106.244z" opacity=".089" transform="translate(-65.916 -222.587)"/><path d="m349.594 391.386a114.778 114.778 0 1 1 -71.105-106.246 114.878 114.878 0 0 1 71.105 106.246z" opacity=".099" transform="translate(-65.893 -222.564)"/><path d="m348.978 390.771a114.775 114.775 0 1 1 -71.106-106.246 114.878 114.878 0 0 1 71.106 106.246z" opacity=".109" transform="translate(-65.87 -222.541)"/><path d="m348.362 390.155a114.778 114.778 0 1 1 -71.106-106.245 114.877 114.877 0 0 1 71.106 106.245z" opacity=".119" transform="translate(-65.847 -222.518)"/><path d="m347.747 389.539a114.778 114.778 0 1 1 -71.106-106.245 114.877 114.877 0 0 1 71.106 106.245z" opacity=".129" transform="translate(-65.824 -222.495)"/><path d="m347.131 388.924a114.775 114.775 0 1 1 -71.105-106.246 114.877 114.877 0 0 1 71.105 106.246z" opacity=".139" transform="translate(-65.801 -222.472)"/><path d="m346.515 388.308a114.778 114.778 0 1 1 -71.105-106.246 114.877 114.877 0 0 1 71.105 106.246z" opacity=".149" transform="translate(-65.779 -222.45)"/><path d="m345.9 387.692a114.778 114.778 0 1 1 -71.105-106.245 114.876 114.876 0 0 1 71.105 106.245z" opacity=".158" transform="translate(-65.756 -222.427)"/><path d="m345.284 387.077a114.776 114.776 0 1 1 -71.105-106.247 114.877 114.877 0 0 1 71.105 106.247z" opacity=".168" transform="translate(-65.733 -222.404)"/><path d="m344.668 386.461a114.775 114.775 0 1 1 -71.106-106.246 114.878 114.878 0 0 1 71.106 106.246z" opacity=".178" transform="translate(-65.71 -222.381)"/><path d="m344.052 385.845a114.779 114.779 0 1 1 -71.105-106.245 114.877 114.877 0 0 1 71.105 106.245z" opacity=".188" transform="translate(-65.687 -222.358)"/><path d="m343.437 385.23a114.778 114.778 0 1 1 -71.106-106.246 114.877 114.877 0 0 1 71.106 106.246z" opacity=".198" transform="translate(-65.664 -222.335)"/><path d="m342.821 384.614a114.775 114.775 0 1 1 -71.106-106.246 114.877 114.877 0 0 1 71.106 106.246z" opacity=".208" transform="translate(-65.641 -222.312)"/><path d="m342.205 384a114.778 114.778 0 1 1 -71.105-106.248 114.877 114.877 0 0 1 71.105 106.248z" opacity=".218" transform="translate(-65.618 -222.289)"/><path d="m341.59 383.382a114.779 114.779 0 1 1 -71.106-106.245 114.878 114.878 0 0 1 71.106 106.245z" opacity=".228" transform="translate(-65.595 -222.266)"/><path d="m340.974 382.767a114.776 114.776 0 1 1 -71.105-106.247 114.878 114.878 0 0 1 71.105 106.247z" opacity=".238" transform="translate(-65.572 -222.243)"/><path d="m340.358 382.151a114.778 114.778 0 1 1 -71.106-106.245 114.877 114.877 0 0 1 71.106 106.245z" opacity=".248" transform="translate(-65.549 -222.22)"/><path d="m339.743 381.535a114.78 114.78 0 1 1 -71.107-106.245 114.877 114.877 0 0 1 71.107 106.245z" opacity=".257" transform="translate(-65.526 -222.197)"/><path d="m339.127 380.92a114.776 114.776 0 1 1 -71.106-106.246 114.877 114.877 0 0 1 71.106 106.246z" opacity=".267" transform="translate(-65.504 -222.175)"/><path d="m338.511 380.3a114.776 114.776 0 1 1 -71.106-106.246 114.877 114.877 0 0 1 71.106 106.246z" opacity=".277" transform="translate(-65.481 -222.152)"/><path d="m337.9 379.688a114.778 114.778 0 1 1 -71.11-106.246 114.877 114.877 0 0 1 71.11 106.246z" opacity=".287" transform="translate(-65.458 -222.129)"/><path d="m337.28 379.073a114.775 114.775 0 1 1 -71.106-106.246 114.877 114.877 0 0 1 71.106 106.246z" opacity=".297" transform="translate(-65.435 -222.106)"/><path d="m336.664 378.457a114.776 114.776 0 1 1 -71.105-106.247 114.877 114.877 0 0 1 71.105 106.247z" opacity=".307" transform="translate(-65.412 -222.083)"/><path d="m336.048 377.841a114.778 114.778 0 1 1 -71.105-106.241 114.877 114.877 0 0 1 71.105 106.241z" opacity=".317" transform="translate(-65.389 -222.06)"/><path d="m335.433 377.225a114.778 114.778 0 1 1 -71.106-106.245 114.878 114.878 0 0 1 71.106 106.245z" opacity=".327" transform="translate(-65.366 -222.037)"/><path d="m334.817 376.61a114.775 114.775 0 1 1 -71.106-106.246 114.878 114.878 0 0 1 71.106 106.246z" opacity=".337" transform="translate(-65.343 -222.014)"/><path d="m334.2 375.994a114.778 114.778 0 1 1 -71.1-106.246 114.877 114.877 0 0 1 71.1 106.246z" opacity=".347" transform="translate(-65.32 -221.991)"/><path d="m333.586 375.378a114.778 114.778 0 1 1 -71.106-106.245 114.877 114.877 0 0 1 71.106 106.245z" opacity=".356" transform="translate(-65.297 -221.968)"/><path d="m332.97 374.763a114.776 114.776 0 1 1 -71.106-106.246 114.877 114.877 0 0 1 71.106 106.246z" opacity=".366" transform="translate(-65.274 -221.945)"/><path d="m332.354 374.147a114.778 114.778 0 1 1 -71.105-106.247 114.877 114.877 0 0 1 71.105 106.247z" opacity=".376" transform="translate(-65.252 -221.923)"/><path d="m331.738 373.531a114.778 114.778 0 1 1 -71.105-106.245 114.876 114.876 0 0 1 71.105 106.245z" opacity=".386" transform="translate(-65.229 -221.9)"/><path d="m331.123 372.916a114.776 114.776 0 1 1 -71.106-106.246 114.877 114.877 0 0 1 71.106 106.246z" opacity=".396" transform="translate(-65.206 -221.877)"/><path d="m330.507 372.3a114.775 114.775 0 1 1 -71.107-106.247 114.877 114.877 0 0 1 71.107 106.247z" opacity=".406" transform="translate(-65.183 -221.854)"/><path d="m329.891 371.684a114.778 114.778 0 1 1 -71.106-106.245 114.877 114.877 0 0 1 71.106 106.245z" opacity=".416" transform="translate(-65.16 -221.831)"/><path d="m329.276 371.068a114.776 114.776 0 1 1 -71.106-106.245 114.878 114.878 0 0 1 71.106 106.245z" opacity=".426" transform="translate(-65.137 -221.808)"/><path d="m328.66 370.453a114.775 114.775 0 1 1 -71.105-106.246 114.877 114.877 0 0 1 71.105 106.246z" opacity=".436" transform="translate(-65.114 -221.785)"/><path d="m328.044 369.837a114.778 114.778 0 1 1 -71.105-106.245 114.877 114.877 0 0 1 71.105 106.245z" opacity=".446" transform="translate(-65.091 -221.762)"/><path d="m327.429 369.221a114.778 114.778 0 1 1 -71.106-106.245 114.878 114.878 0 0 1 71.106 106.245z" opacity=".455" transform="translate(-65.068 -221.739)"/><path d="m326.813 368.606a114.776 114.776 0 1 1 -71.106-106.246 114.877 114.877 0 0 1 71.106 106.246z" opacity=".465" transform="translate(-65.045 -221.716)"/><path d="m326.2 367.99a114.778 114.778 0 1 1 -71.106-106.245 114.877 114.877 0 0 1 71.106 106.245z" opacity=".475" transform="translate(-65.022 -221.693)"/><path d="m325.582 367.374a114.778 114.778 0 1 1 -71.106-106.245 114.877 114.877 0 0 1 71.106 106.245z" opacity=".485" transform="translate(-64.999 -221.671)"/><path d="m324.966 366.759a114.775 114.775 0 1 1 -71.105-106.246 114.877 114.877 0 0 1 71.105 106.246z" opacity=".495" transform="translate(-64.977 -221.648)"/><path d="m324.35 366.143a114.775 114.775 0 1 1 -71.105-106.243 114.877 114.877 0 0 1 71.105 106.243z" opacity=".505" transform="translate(-64.954 -221.625)"/><path d="m323.734 365.527a114.779 114.779 0 1 1 -71.106-106.245 114.877 114.877 0 0 1 71.106 106.245z" opacity=".515" transform="translate(-64.931 -221.602)"/><path d="m323.119 364.912a114.775 114.775 0 1 1 -71.106-106.246 114.877 114.877 0 0 1 71.106 106.246z" opacity=".525" transform="translate(-64.908 -221.579)"/><path d="m322.5 364.3a114.775 114.775 0 1 1 -71.1-106.251 114.877 114.877 0 0 1 71.1 106.251z" opacity=".535" transform="translate(-64.885 -221.556)"/><path d="m321.887 363.68a114.778 114.778 0 1 1 -71.106-106.245 114.877 114.877 0 0 1 71.106 106.245z" opacity=".545" transform="translate(-64.862 -221.533)"/><path d="m321.272 363.064a114.778 114.778 0 1 1 -71.106-106.245 114.878 114.878 0 0 1 71.106 106.245z" opacity=".554" transform="translate(-64.839 -221.51)"/><path d="m320.656 362.449a114.775 114.775 0 1 1 -71.105-106.249 114.878 114.878 0 0 1 71.105 106.249z" opacity=".564" transform="translate(-64.816 -221.487)"/><path d="m320.04 361.833a114.778 114.778 0 1 1 -71.105-106.245 114.877 114.877 0 0 1 71.105 106.245z" opacity=".574" transform="translate(-64.793 -221.464)"/><path d="m319.425 361.217a114.778 114.778 0 1 1 -71.105-106.246 114.877 114.877 0 0 1 71.105 106.246z" opacity=".584" transform="translate(-64.77 -221.441)"/><path d="m318.809 360.6a114.775 114.775 0 1 1 -71.109-106.245 114.877 114.877 0 0 1 71.109 106.245z" opacity=".594" transform="translate(-64.747 -221.418)"/><path d="m318.193 359.986a114.778 114.778 0 1 1 -71.105-106.246 114.877 114.877 0 0 1 71.105 106.246z" opacity=".604" transform="translate(-64.725 -221.396)"/><path d="m317.578 359.37a114.779 114.779 0 1 1 -71.107-106.245 114.877 114.877 0 0 1 71.107 106.245z" opacity=".614" transform="translate(-64.702 -221.373)"/><path d="m316.962 358.755a114.775 114.775 0 1 1 -71.106-106.246 114.877 114.877 0 0 1 71.106 106.246z" opacity=".624" transform="translate(-64.679 -221.35)"/><path d="m316.346 358.139a114.775 114.775 0 1 1 -71.106-106.246 114.877 114.877 0 0 1 71.106 106.246z" opacity=".634" transform="translate(-64.656 -221.327)"/><path d="m315.73 357.523a114.778 114.778 0 1 1 -71.106-106.245 114.877 114.877 0 0 1 71.106 106.245z" opacity=".644" transform="translate(-64.633 -221.304)"/><path d="m315.115 356.907a114.775 114.775 0 1 1 -71.105-106.246 114.878 114.878 0 0 1 71.105 106.246z" opacity=".653" transform="translate(-64.61 -221.281)"/><path d="m314.5 356.292a114.776 114.776 0 1 1 -71.106-106.246 114.877 114.877 0 0 1 71.106 106.246z" opacity=".663" transform="translate(-64.587 -221.258)"/><path d="m313.883 355.676a114.778 114.778 0 1 1 -71.105-106.246 114.877 114.877 0 0 1 71.105 106.246z" opacity=".673" transform="translate(-64.564 -221.235)"/><path d="m313.268 355.06a114.778 114.778 0 1 1 -71.106-106.245 114.878 114.878 0 0 1 71.106 106.245z" opacity=".683" transform="translate(-64.541 -221.212)"/><path d="m312.652 354.445a114.775 114.775 0 1 1 -71.105-106.245 114.877 114.877 0 0 1 71.105 106.245z" opacity=".693" transform="translate(-64.518 -221.189)"/><path d="m312.036 353.829a114.778 114.778 0 1 1 -71.106-106.245 114.877 114.877 0 0 1 71.106 106.245z" opacity=".703" transform="translate(-64.495 -221.166)"/><path d="m311.421 353.213a114.778 114.778 0 1 1 -71.106-106.245 114.877 114.877 0 0 1 71.106 106.245z" opacity=".713" transform="translate(-64.473 -221.143)"/><path d="m310.805 352.6a114.776 114.776 0 1 1 -71.105-106.249 114.877 114.877 0 0 1 71.105 106.249z" opacity=".723" transform="translate(-64.45 -221.121)"/><path d="m310.189 351.982a114.778 114.778 0 1 1 -71.106-106.245 114.877 114.877 0 0 1 71.106 106.245z" opacity=".733" transform="translate(-64.427 -221.098)"/><path d="m309.573 351.366a114.778 114.778 0 1 1 -71.105-106.246 114.876 114.876 0 0 1 71.105 106.246z" opacity=".743" transform="translate(-64.404 -221.075)"/><path d="m308.958 350.751a114.776 114.776 0 1 1 -71.105-106.251 114.877 114.877 0 0 1 71.105 106.251z" opacity=".752" transform="translate(-64.381 -221.052)"/><path d="m308.342 350.135a114.775 114.775 0 1 1 -71.106-106.246 114.877 114.877 0 0 1 71.106 106.246z" opacity=".762" transform="translate(-64.358 -221.029)"/><path d="m307.726 349.519a114.778 114.778 0 1 1 -71.106-106.245 114.877 114.877 0 0 1 71.106 106.245z" opacity=".772" transform="translate(-64.335 -221.006)"/><path d="m307.111 348.9a114.778 114.778 0 1 1 -71.106-106.245 114.878 114.878 0 0 1 71.106 106.245z" opacity=".782" transform="translate(-64.312 -220.983)"/><path d="m306.5 348.288a114.776 114.776 0 1 1 -71.11-106.247 114.877 114.877 0 0 1 71.11 106.247z" opacity=".792" transform="translate(-64.289 -220.96)"/><path d="m305.879 347.672a114.778 114.778 0 1 1 -71.106-106.245 114.877 114.877 0 0 1 71.106 106.245z" opacity=".802" transform="translate(-64.266 -220.937)"/><path d="m305.264 347.056a114.778 114.778 0 1 1 -71.105-106.246 114.878 114.878 0 0 1 71.105 106.246z" opacity=".812" transform="translate(-64.243 -220.914)"/><path d="m304.648 346.441a114.776 114.776 0 1 1 -71.106-106.246 114.877 114.877 0 0 1 71.106 106.246z" opacity=".822" transform="translate(-64.22 -220.891)"/><path d="m304.032 345.825a114.778 114.778 0 1 1 -71.106-106.245 114.877 114.877 0 0 1 71.106 106.245z" opacity=".832" transform="translate(-64.198 -220.869)"/><path d="m303.417 345.209a114.779 114.779 0 1 1 -71.107-106.245 114.877 114.877 0 0 1 71.107 106.245z" opacity=".842" transform="translate(-64.175 -220.846)"/><path d="m302.8 344.594a114.776 114.776 0 1 1 -71.1-106.247 114.877 114.877 0 0 1 71.1 106.247z" opacity=".851" transform="translate(-64.152 -220.823)"/><path d="m302.185 343.978a114.776 114.776 0 1 1 -71.105-106.247 114.877 114.877 0 0 1 71.105 106.247z" opacity=".861" transform="translate(-64.129 -220.8)"/><path d="m301.569 343.362a114.778 114.778 0 1 1 -71.106-106.245 114.877 114.877 0 0 1 71.106 106.245z" opacity=".871" transform="translate(-64.106 -220.777)"/><path d="m300.954 342.746a114.775 114.775 0 1 1 -71.105-106.246 114.878 114.878 0 0 1 71.105 106.246z" opacity=".881" transform="translate(-64.083 -220.754)"/><path d="m300.338 342.131a114.775 114.775 0 1 1 -71.106-106.246 114.877 114.877 0 0 1 71.106 106.246z" opacity=".891" transform="translate(-64.06 -220.731)"/><path d="m299.722 341.515a114.778 114.778 0 1 1 -71.106-106.245 114.877 114.877 0 0 1 71.106 106.245z" opacity=".901" transform="translate(-64.037 -220.708)"/><path d="m299.107 340.9a114.778 114.778 0 1 1 -71.107-106.247 114.877 114.877 0 0 1 71.107 106.247z" opacity=".911" transform="translate(-64.014 -220.685)"/><path d="m298.491 340.284a114.776 114.776 0 1 1 -71.106-106.246 114.878 114.878 0 0 1 71.106 106.246z" opacity=".921" transform="translate(-63.991 -220.662)"/><path d="m297.875 339.668a114.778 114.778 0 1 1 -71.105-106.246 114.877 114.877 0 0 1 71.105 106.246z" opacity=".931" transform="translate(-63.968 -220.639)"/><path d="m297.26 339.052a114.778 114.778 0 1 1 -71.106-106.245 114.877 114.877 0 0 1 71.106 106.245z" opacity=".941" transform="translate(-63.946 -220.616)"/><path d="m296.644 338.437a114.775 114.775 0 1 1 -71.105-106.247 114.877 114.877 0 0 1 71.105 106.247z" opacity=".95" transform="translate(-63.923 -220.594)"/><path d="m296.028 337.821a114.778 114.778 0 1 1 -71.106-106.245 114.877 114.877 0 0 1 71.106 106.245z" opacity=".96" transform="translate(-63.9 -220.571)"/><path d="m295.412 337.2a114.778 114.778 0 1 1 -71.106-106.245 114.876 114.876 0 0 1 71.106 106.245z" opacity=".97" transform="translate(-63.877 -220.548)"/><path d="m294.8 336.59a114.775 114.775 0 1 1 -71.106-106.246 114.877 114.877 0 0 1 71.106 106.246z" opacity=".98" transform="translate(-63.854 -220.525)"/><path d="m294.181 335.974a114.775 114.775 0 1 1 -71.106-106.246 114.877 114.877 0 0 1 71.106 106.246z" opacity=".99" transform="translate(-63.831 -220.502)"/><path d="m293.565 335.358a114.778 114.778 0 1 1 -71.105-106.246 114.877 114.877 0 0 1 71.105 106.246z" transform="translate(-63.808 -220.479)"/></g><path d="m293.565 335.358a114.778 114.778 0 1 1 -71.105-106.246 114.877 114.877 0 0 1 71.105 106.246z" fill="#f9f9f9" transform="translate(-63.808 -202.107)"/><path d="m-86.57-3.784a4.092 4.092 0 0 1 .37-1.859 2.056 2.056 0 0 1 1.32-1.023l-2.24-.594v-2.84a8.874 8.874 0 0 1 2.541-1.43 9.26 9.26 0 0 1 3.311-.572 6.693 6.693 0 0 1 4.235 1.133 4.582 4.582 0 0 1 1.419 3.8v7.169h-2.97v-7.238a2.544 2.544 0 0 0 -.649-1.969 3.261 3.261 0 0 0 -2.189-.583 5.468 5.468 0 0 0 -1.778.29 4.271 4.271 0 0 0 -1.364.726v.308l2.442.66v1.8a1.834 1.834 0 0 0 -1.166.715 2.965 2.965 0 0 0 -.312 1.529v3.762h-2.97zm17.578 4a15.547 15.547 0 0 1 -2.387-.172 7.982 7.982 0 0 1 -1.815-.462v-2.4a9.376 9.376 0 0 0 1.8.528 9.692 9.692 0 0 0 1.848.2 6.7 6.7 0 0 0 2.112-.231.875.875 0 0 0 .616-.891 1 1 0 0 0 -.231-.682 1.835 1.835 0 0 0 -.66-.451q-.429-.187-1.353-.495l-.938-.308a7.8 7.8 0 0 1 -2.611-1.352 2.616 2.616 0 0 1 -.825-2.057 3.072 3.072 0 0 1 1.265-2.585 6.034 6.034 0 0 1 3.685-.957 13.953 13.953 0 0 1 2.035.154 10.961 10.961 0 0 1 1.727.374v2.371a7.241 7.241 0 0 0 -1.617-.44 10.68 10.68 0 0 0 -1.727-.154 5.544 5.544 0 0 0 -1.87.253.92.92 0 0 0 -.682.913.839.839 0 0 0 .462.77 10.032 10.032 0 0 0 1.716.66q.4.11 1.012.33a10.026 10.026 0 0 1 2.013.9 2.937 2.937 0 0 1 1.078 1.111 3.5 3.5 0 0 1 .339 1.645 2.879 2.879 0 0 1 -1.307 2.563 6.63 6.63 0 0 1 -3.685.869zm11.528 0a13.829 13.829 0 0 1 -2.673-.253 10.606 10.606 0 0 1 -2.233-.663v-6.252h5.038l.132 2.178h-2.354v2.4a5.373 5.373 0 0 0 .99.209 8.747 8.747 0 0 0 1.122.077 4.108 4.108 0 0 0 1.914-.374 2.192 2.192 0 0 0 1.023-1.2 6.35 6.35 0 0 0 .319-2.238 5.773 5.773 0 0 0 -.385-2.354 2.269 2.269 0 0 0 -1.243-1.188 6.439 6.439 0 0 0 -2.376-.348 13.506 13.506 0 0 0 -4.026.594v-2.222a12.125 12.125 0 0 1 2.244-.506 18.342 18.342 0 0 1 2.508-.176 6.086 6.086 0 0 1 4.62 1.562 6.533 6.533 0 0 1 1.474 4.638 6.388 6.388 0 0 1 -1.474 4.565 6.112 6.112 0 0 1 -4.62 1.555zm8.272-4a4.092 4.092 0 0 1 .374-1.859 2.056 2.056 0 0 1 1.318-1.023l-2.244-.594v-2.84a8.875 8.875 0 0 1 2.541-1.43 9.26 9.26 0 0 1 3.313-.57 6.693 6.693 0 0 1 4.235 1.133 4.582 4.582 0 0 1 1.419 3.8v7.167h-2.97v-7.238a2.544 2.544 0 0 0 -.649-1.969 3.261 3.261 0 0 0 -2.189-.583 5.468 5.468 0 0 0 -1.782.286 4.271 4.271 0 0 0 -1.364.726v.308l2.442.66v1.8a1.834 1.834 0 0 0 -1.166.715 2.965 2.965 0 0 0 -.308 1.529v3.766h-2.97zm18.656 4a5.824 5.824 0 0 1 -3.982-1.206 4.293 4.293 0 0 1 -1.364-3.388v-.748a2.951 2.951 0 0 1 .319-1.4 9.891 9.891 0 0 1 .869-1.331 8.688 8.688 0 0 0 .517-.737 1.045 1.045 0 0 0 .165-.539.513.513 0 0 0 -.154-.44 1 1 0 0 0 -.55-.11h-1.43l.242-2.2h3.08q1.824.003 1.824 1.697a2.9 2.9 0 0 1 -.242 1.2 12.967 12.967 0 0 1 -.7 1.309 8.367 8.367 0 0 0 -.726 1.287 3.106 3.106 0 0 0 -.242 1.243v.947a2 2 0 0 0 .6 1.573 2.584 2.584 0 0 0 1.771.539q2.42 0 2.42-2.2v-7.59h2.97v7.458a4.254 4.254 0 0 1 -1.441 3.4 5.846 5.846 0 0 1 -3.946 1.24zm.044-15.686h-1.716v-2.02h3.718v1.958h4.708l-.11 2.024h-6.6zm12.43 15.69a13.829 13.829 0 0 1 -2.673-.253 10.606 10.606 0 0 1 -2.233-.667v-6.252h5.038l.132 2.178h-2.354v2.4a5.373 5.373 0 0 0 .99.209 8.747 8.747 0 0 0 1.122.077 4.108 4.108 0 0 0 1.914-.374 2.192 2.192 0 0 0 1.023-1.2 6.35 6.35 0 0 0 .319-2.238 5.773 5.773 0 0 0 -.385-2.354 2.269 2.269 0 0 0 -1.243-1.188 6.439 6.439 0 0 0 -2.376-.352 13.506 13.506 0 0 0 -4.026.594v-2.222a12.125 12.125 0 0 1 2.244-.506 18.342 18.342 0 0 1 2.508-.176 6.086 6.086 0 0 1 4.62 1.562 6.533 6.533 0 0 1 1.474 4.642 6.388 6.388 0 0 1 -1.474 4.565 6.112 6.112 0 0 1 -4.62 1.555zm15.026 0a6.183 6.183 0 0 1 -4-1.386l-.136 1.166h-2.728v-11.88h2.97v8.558a3.766 3.766 0 0 0 1.287.88 4 4 0 0 0 1.617.352 2.184 2.184 0 0 0 1.606-.528 2.356 2.356 0 0 0 .528-1.716v-7.546h2.97v7.722a4.493 4.493 0 0 1 -1.1 3.212 3.944 3.944 0 0 1 -3.014 1.166zm1.144 5.588a3.759 3.759 0 0 1 -2.1-.517 1.563 1.563 0 0 1 -.781-1.353v-1.038h-1.21l.11-1.782h3.168v2.116q0 .7.814.7a.962.962 0 0 0 .616-.176.636.636 0 0 0 .22-.528v-2.108h2.111v2.332a2.166 2.166 0 0 1 -.748 1.683 3.2 3.2 0 0 1 -2.2.671zm9.35-5.588a4.691 4.691 0 0 1 -2.992-.9 3.393 3.393 0 0 1 -1.144-2.84 3.287 3.287 0 0 1 1.21-2.739 5.5 5.5 0 0 1 3.476-.957h3.366v-.572a1.8 1.8 0 0 0 -.616-1.551 3.852 3.852 0 0 0 -2.178-.451 12.93 12.93 0 0 0 -3.938.59v-2.222a13.9 13.9 0 0 1 2.134-.495 14.718 14.718 0 0 1 2.288-.183 5.941 5.941 0 0 1 3.971 1.133 4.367 4.367 0 0 1 1.309 3.487v7.48h-2.97v-5.038h-3.19a2.725 2.725 0 0 0 -1.529.352 1.308 1.308 0 0 0 -.517 1.166 1.237 1.237 0 0 0 .473 1.12 3.173 3.173 0 0 0 1.639.31 4.915 4.915 0 0 0 1.518-.176v2.178a7.8 7.8 0 0 1 -2.31.308zm12.166-.22a2.8 2.8 0 0 1 -2-.583 2.549 2.549 0 0 1 -.594-1.881v-9.416h2.97v8.646a.807.807 0 0 0 .9.924h.748v2.31zm4.224-3.784a4.092 4.092 0 0 1 .374-1.859 2.056 2.056 0 0 1 1.32-1.023l-2.242-.594v-2.84a8.875 8.875 0 0 1 2.541-1.43 9.26 9.26 0 0 1 3.309-.57 6.693 6.693 0 0 1 4.235 1.133 4.582 4.582 0 0 1 1.419 3.8v7.167h-2.97v-7.238a2.544 2.544 0 0 0 -.649-1.969 3.261 3.261 0 0 0 -2.185-.583 5.468 5.468 0 0 0 -1.782.286 4.271 4.271 0 0 0 -1.364.726v.308l2.442.66v1.8a1.834 1.834 0 0 0 -1.166.715 2.965 2.965 0 0 0 -.308 1.529v3.766h-2.97zm1.5-11.748h7.04v-1.782h2.412v3.806h-9.61zm7.04-5.808h2.412v3.08h-2.42zm10.138 21.56a8.224 8.224 0 0 1 -4.147-.9 3.125 3.125 0 0 1 -1.551-2.926 3 3 0 0 1 .372-1.487 2.818 2.818 0 0 1 1.122-1.089 2.316 2.316 0 0 1 -1.056-.913 2.722 2.722 0 0 1 -.4-1.485 3.243 3.243 0 0 1 1.067-2.607 4.268 4.268 0 0 1 2.877-.913 5.836 5.836 0 0 1 2.046.308v2.178a5.756 5.756 0 0 0 -1.518-.176 2.177 2.177 0 0 0 -1.238.29 1.05 1.05 0 0 0 -.407.924 1.09 1.09 0 0 0 .44.99 2.66 2.66 0 0 0 1.408.286h1.232l.11 2.178h-1.369q-1.87 0-1.87 1.518a1.226 1.226 0 0 0 .671 1.144 4.431 4.431 0 0 0 2.079.374q2.794 0 2.794-2.31v-7.48h2.97v7.216a4.533 4.533 0 0 1 -1.43 3.7 6.436 6.436 0 0 1 -4.202 1.18zm11.242 0a9.567 9.567 0 0 1 -3.784-.7v-2.27a7.556 7.556 0 0 0 3.08.66 4.142 4.142 0 0 0 2.97-.869 4.1 4.1 0 0 0 .88-2.981 4.1 4.1 0 0 0 -.88-2.981 4.142 4.142 0 0 0 -2.97-.869 7.556 7.556 0 0 0 -3.08.66v-2.27a9.567 9.567 0 0 1 3.784-.7 5.9 5.9 0 0 1 4.477 1.562 6.433 6.433 0 0 1 1.485 4.6 6.433 6.433 0 0 1 -1.485 4.6 5.9 5.9 0 0 1 -4.477 1.558zm7.92-4a4.092 4.092 0 0 1 .374-1.859 2.056 2.056 0 0 1 1.32-1.023l-2.244-.598v-2.84a8.875 8.875 0 0 1 2.541-1.43 9.26 9.26 0 0 1 3.311-.57 6.693 6.693 0 0 1 4.235 1.133 4.582 4.582 0 0 1 1.419 3.8v7.167h-2.97v-7.238a2.544 2.544 0 0 0 -.649-1.969 3.261 3.261 0 0 0 -2.189-.583 5.468 5.468 0 0 0 -1.782.286 4.271 4.271 0 0 0 -1.364.726v.308l2.442.66v1.8a1.834 1.834 0 0 0 -1.166.715 2.965 2.965 0 0 0 -.308 1.529v3.766h-2.97zm5.412-13.226h2.42v1.474h5.48l-.11 2.024h-7.79zm13.816 17.226a6.238 6.238 0 0 1 -4.169-1.265 4.626 4.626 0 0 1 -1.485-3.729v-7.106h2.97v7.15a2.656 2.656 0 0 0 .668 1.991 2.792 2.792 0 0 0 2.013.649 2.792 2.792 0 0 0 2.013-.649 2.656 2.656 0 0 0 .674-1.991v-7.15h2.97v7.106a4.626 4.626 0 0 1 -1.485 3.729 6.238 6.238 0 0 1 -4.169 1.265zm-140.877 33a15.547 15.547 0 0 1 -2.387-.176 7.982 7.982 0 0 1 -1.815-.462v-2.4a9.376 9.376 0 0 0 1.8.528 9.692 9.692 0 0 0 1.848.2 6.7 6.7 0 0 0 2.112-.231.875.875 0 0 0 .616-.891 1 1 0 0 0 -.231-.682 1.835 1.835 0 0 0 -.66-.451q-.429-.187-1.353-.495l-.946-.308a7.8 7.8 0 0 1 -2.603-1.352 2.616 2.616 0 0 1 -.825-2.057 3.072 3.072 0 0 1 1.265-2.585 6.034 6.034 0 0 1 3.685-.957 13.953 13.953 0 0 1 2.035.154 10.962 10.962 0 0 1 1.727.374v2.371a7.241 7.241 0 0 0 -1.617-.44 10.68 10.68 0 0 0 -1.727-.154 5.544 5.544 0 0 0 -1.87.253.92.92 0 0 0 -.682.913.839.839 0 0 0 .462.77 10.033 10.033 0 0 0 1.716.66q.4.11 1.012.33a10.026 10.026 0 0 1 2.013.9 2.937 2.937 0 0 1 1.078 1.111 3.5 3.5 0 0 1 .341 1.639 2.879 2.879 0 0 1 -1.309 2.563 6.63 6.63 0 0 1 -3.685.875zm-.9-15.686h-1.716v-2.024h3.718v1.958h4.708l-.11 2.024h-6.6zm12.161 8.166a2.944 2.944 0 0 0 -.5-1.881 2.249 2.249 0 0 0 -1.815-.605 8.2 8.2 0 0 0 -1.518.154 7.946 7.946 0 0 0 -1.467.414v-2.182a7.864 7.864 0 0 1 1.65-.506 9.532 9.532 0 0 1 1.914-.2 5.105 5.105 0 0 1 3.6 1.056 4.4 4.4 0 0 1 1.111 3.322v7.728h-2.975zm9.7 7.524a3.944 3.944 0 0 1 -3.014-1.166 4.493 4.493 0 0 1 -1.1-3.212v-7.726h2.97v7.546a2.356 2.356 0 0 0 .528 1.716 2.184 2.184 0 0 0 1.616.528 4 4 0 0 0 1.617-.352 3.766 3.766 0 0 0 1.287-.88v-8.558h2.97v11.88h-2.728l-.132-1.166a6.183 6.183 0 0 1 -4.009 1.386zm9.482-7.59a4.46 4.46 0 0 1 1.375-3.487 6.164 6.164 0 0 1 4.243-1.247 6.12 6.12 0 0 1 4.224 1.243 4.479 4.479 0 0 1 1.364 3.487v7.37h-2.97v-7.59a1.985 1.985 0 0 0 -.693-1.639 2.98 2.98 0 0 0 -1.925-.561 3 3 0 0 0 -1.969.561 2.015 2.015 0 0 0 -.671 1.639v2.134a3.328 3.328 0 0 1 2.068-.7h1.43l.088 2.354h-1.584a3.2 3.2 0 0 0 -2 .638v3.164h-2.97zm5.852-8.1h-1.716v-2.024h3.718v1.958h4.708l-.11 2.024h-6.6zm12.166 8.166a2.944 2.944 0 0 0 -.495-1.881 2.249 2.249 0 0 0 -1.815-.605 8.2 8.2 0 0 0 -1.518.154 7.946 7.946 0 0 0 -1.474.418v-2.186a7.864 7.864 0 0 1 1.65-.506 9.532 9.532 0 0 1 1.914-.2 5.105 5.105 0 0 1 3.6 1.056 4.4 4.4 0 0 1 1.111 3.322v7.728h-2.973zm10.675 7.52a5.824 5.824 0 0 1 -3.982-1.21 4.293 4.293 0 0 1 -1.364-3.388v-.748a2.951 2.951 0 0 1 .319-1.4 9.891 9.891 0 0 1 .869-1.331 8.688 8.688 0 0 0 .517-.737 1.045 1.045 0 0 0 .166-.536.513.513 0 0 0 -.154-.44 1 1 0 0 0 -.55-.11h-1.43l.242-2.2h3.08q1.826 0 1.826 1.694a2.9 2.9 0 0 1 -.242 1.2 12.967 12.967 0 0 1 -.7 1.309 8.367 8.367 0 0 0 -.726 1.287 3.106 3.106 0 0 0 -.246 1.242v.948a2 2 0 0 0 .6 1.571 2.584 2.584 0 0 0 1.771.539q2.42 0 2.42-2.2v-7.59h2.97v7.458a4.254 4.254 0 0 1 -1.441 3.4 5.846 5.846 0 0 1 -3.945 1.242zm12.474 0a13.829 13.829 0 0 1 -2.673-.253 10.606 10.606 0 0 1 -2.233-.667v-6.252h5.038l.132 2.178h-2.354v2.4a5.373 5.373 0 0 0 .99.209 8.747 8.747 0 0 0 1.122.077 4.108 4.108 0 0 0 1.914-.374 2.192 2.192 0 0 0 1.023-1.2 6.35 6.35 0 0 0 .319-2.233 5.773 5.773 0 0 0 -.385-2.354 2.269 2.269 0 0 0 -1.242-1.189 6.439 6.439 0 0 0 -2.376-.352 13.506 13.506 0 0 0 -4.024.59v-2.218a12.125 12.125 0 0 1 2.244-.506 18.342 18.342 0 0 1 2.508-.176 6.086 6.086 0 0 1 4.62 1.562 6.533 6.533 0 0 1 1.471 4.638 6.388 6.388 0 0 1 -1.474 4.565 6.112 6.112 0 0 1 -4.62 1.555zm12.628 0a8.063 8.063 0 0 1 -2.442-.33l-3.344-8.14h2.882l2.618 6.358a2.668 2.668 0 0 0 2.376-1.1 5.955 5.955 0 0 0 .748-3.322 6.681 6.681 0 0 0 -.253-2.079 1.825 1.825 0 0 0 -.825-1.056 3.276 3.276 0 0 0 -1.584-.319h-.9v-2.112h1.32a4.911 4.911 0 0 1 3.827 1.364 6.12 6.12 0 0 1 1.232 4.2 6.951 6.951 0 0 1 -1.518 4.939 5.438 5.438 0 0 1 -4.137 1.597zm7.128-7.59a4.46 4.46 0 0 1 1.375-3.487 6.164 6.164 0 0 1 4.235-1.243 6.12 6.12 0 0 1 4.224 1.243 4.479 4.479 0 0 1 1.361 3.487v7.37h-2.97v-7.59a1.985 1.985 0 0 0 -.693-1.639 2.98 2.98 0 0 0 -1.925-.561 3 3 0 0 0 -1.969.561 2.015 2.015 0 0 0 -.671 1.639v2.134a3.328 3.328 0 0 1 2.068-.7h1.43l.088 2.354h-1.581a3.2 3.2 0 0 0 -2 .638v3.164h-2.97zm8.668 10.384h-1.32l.11-1.892h3.718v4.444h-2.508zm17.027-2.794a3.786 3.786 0 0 1 -2.959-1.155 4.632 4.632 0 0 1 -1.041-3.223v-3.08a2.633 2.633 0 0 0 -.616-1.958 2.816 2.816 0 0 0 -2-.594 5.468 5.468 0 0 0 -1.784.29 4.271 4.271 0 0 0 -1.364.726v.308l2.442.66v1.8a1.834 1.834 0 0 0 -1.166.715 2.965 2.965 0 0 0 -.308 1.529v.638a.688.688 0 0 0 .814.814h1.166v2.31h-2.684a2.176 2.176 0 0 1 -1.639-.649 2.321 2.321 0 0 1 -.627-1.683v-1.452a4.092 4.092 0 0 1 .374-1.859 2.056 2.056 0 0 1 1.32-1.023l-2.244-.594v-2.84a8.875 8.875 0 0 1 2.541-1.43 9.26 9.26 0 0 1 3.311-.572 6.04 6.04 0 0 1 3.982 1.133 4.723 4.723 0 0 1 1.342 3.795v2.838a2.356 2.356 0 0 0 .528 1.716 2.184 2.184 0 0 0 1.606.528 3.675 3.675 0 0 0 1.54-.341 3.847 3.847 0 0 0 1.254-.891v-8.556h2.97v11.88h-2.731l-.132-1.166a5.076 5.076 0 0 1 -1.716 1.045 6.406 6.406 0 0 1 -2.179.341z" fill="#333" transform="translate(111.048 167)"/><g fill="#ff5d2e"><path d="m155.264 774.287h-5.164v-.821c0-4.727-4.378-8.573-9.759-8.573s-9.758 3.846-9.758 8.573v.821h-28.73a1.583 1.583 0 0 0 -1.675 1.472v64.012a1.583 1.583 0 0 0 1.675 1.472h53.412a1.583 1.583 0 0 0 1.675-1.472v-64.012a1.583 1.583 0 0 0 -1.676-1.472zm-21.332-.821c0-3.1 2.874-5.629 6.407-5.629s6.408 2.525 6.408 5.629v.821h-1.863v-.909a4.4 4.4 0 0 0 -8.735 0v.909h-2.219zm5.569 3.764h2.034v8.362a1.689 1.689 0 0 0 3.351 0v-8.362h1.863v9.638a3.654 3.654 0 0 1 -7.247 0zm2.034-2.943h-2.035v-.909a1.025 1.025 0 0 1 2.034 0zm12.054 64.013h-50.061v-61.07h32.623v9.638c0 3.377 3.128 6.125 6.974 6.125s6.974-2.748 6.974-6.125v-9.638h3.49z" transform="translate(-12.225 -717.598)"/><path d="m154.487 860.97h-36.834a1.675 1.675 0 0 0 0 3.351h36.833a1.675 1.675 0 1 0 0-3.351z" transform="translate(-19.448 -768.113)"/><path d="m154.487 881.518h-36.834a1.675 1.675 0 0 0 0 3.351h36.833a1.675 1.675 0 1 0 0-3.351z" transform="translate(-19.448 -778.917)"/><path d="m154.487 902.068h-36.834a1.675 1.675 0 0 0 0 3.351h36.833a1.675 1.675 0 1 0 0-3.351z" transform="translate(-19.448 -790.872)"/><path d="m117.653 824.209h22.588a1.675 1.675 0 0 0 1.675-1.675 12.975 12.975 0 0 0 -7.544-11.764 8.036 8.036 0 1 0 -10.849 0 12.975 12.975 0 0 0 -7.545 11.764 1.675 1.675 0 0 0 1.675 1.675zm6.609-19.329a4.686 4.686 0 1 1 4.685 4.685 4.692 4.692 0 0 1 -4.685-4.686zm4.685 8.036a9.633 9.633 0 0 1 9.472 7.943h-18.944a9.635 9.635 0 0 1 9.472-7.944z" transform="translate(-19.448 -735.281)"/></g></svg>