<svg height="307.737" viewBox="0 0 289.378 307.737" width="289.378" xmlns="http://www.w3.org/2000/svg"><path d="m1515.833 334.53a133.13 133.13 0 0 1 -227.281 94.136l94.137-94.136-94.127-94.13a133.1 133.1 0 0 1 227.272 94.128z" fill="#8ac900" transform="translate(-1267.917 -201.394)"/><g opacity=".1" transform="translate(0 18.359)"><path d="m1558.845 397.444a114.679 114.679 0 1 1 -71.045-106.154 114.778 114.778 0 0 1 71.045 106.154z" opacity="0" transform="translate(-1269.467 -222.845)"/><path d="m1558.229 396.829a114.677 114.677 0 1 1 -71.044-106.155 114.779 114.779 0 0 1 71.044 106.155z" opacity=".01" transform="translate(-1269.443 -222.821)"/><path d="m1557.614 396.213a114.681 114.681 0 1 1 -71.045-106.154 114.778 114.778 0 0 1 71.045 106.154z" opacity=".02" transform="translate(-1269.42 -222.798)"/><path d="m1557 395.6a114.68 114.68 0 1 1 -71.044-106.154 114.778 114.778 0 0 1 71.044 106.154z" opacity=".03" transform="translate(-1269.397 -222.774)"/><path d="m1556.382 394.982a114.676 114.676 0 1 1 -71.044-106.155 114.778 114.778 0 0 1 71.044 106.155z" opacity=".04" transform="translate(-1269.373 -222.751)"/><path d="m1555.766 394.366a114.677 114.677 0 1 1 -71.044-106.155 114.778 114.778 0 0 1 71.044 106.155z" opacity=".05" transform="translate(-1269.349 -222.728)"/><path d="m1555.151 393.75a114.679 114.679 0 1 1 -71.044-106.15 114.778 114.778 0 0 1 71.044 106.15z" opacity=".059" transform="translate(-1269.326 -222.704)"/><path d="m1554.535 393.135a114.677 114.677 0 1 1 -71.044-106.155 114.778 114.778 0 0 1 71.044 106.155z" opacity=".069" transform="translate(-1269.302 -222.681)"/><path d="m1553.919 392.519a114.676 114.676 0 1 1 -71.044-106.155 114.778 114.778 0 0 1 71.044 106.155z" opacity=".079" transform="translate(-1269.279 -222.657)"/><path d="m1553.3 391.9a114.679 114.679 0 1 1 -71.044-106.154 114.778 114.778 0 0 1 71.044 106.154z" opacity=".089" transform="translate(-1269.256 -222.634)"/><path d="m1552.688 391.287a114.679 114.679 0 1 1 -71.044-106.154 114.779 114.779 0 0 1 71.044 106.154z" opacity=".099" transform="translate(-1269.232 -222.61)"/><path d="m1552.072 390.672a114.677 114.677 0 1 1 -71.045-106.155 114.778 114.778 0 0 1 71.045 106.155z" opacity=".109" transform="translate(-1269.209 -222.587)"/><path d="m1551.457 390.056a114.68 114.68 0 1 1 -71.044-106.156 114.778 114.778 0 0 1 71.044 106.156z" opacity=".119" transform="translate(-1269.186 -222.564)"/><path d="m1550.841 389.44a114.68 114.68 0 1 1 -71.041-106.154 114.778 114.778 0 0 1 71.041 106.154z" opacity=".129" transform="translate(-1269.162 -222.54)"/><path d="m1550.225 388.825a114.676 114.676 0 1 1 -71.044-106.155 114.778 114.778 0 0 1 71.044 106.155z" opacity=".139" transform="translate(-1269.139 -222.517)"/><path d="m1549.609 388.209a114.68 114.68 0 1 1 -71.044-106.154 114.777 114.777 0 0 1 71.044 106.154z" opacity=".149" transform="translate(-1269.116 -222.493)"/><path d="m1548.994 387.593a114.679 114.679 0 1 1 -71.044-106.154 114.778 114.778 0 0 1 71.044 106.154z" opacity=".158" transform="translate(-1269.092 -222.47)"/><path d="m1548.378 386.978a114.677 114.677 0 1 1 -71.045-106.155 114.779 114.779 0 0 1 71.045 106.155z" opacity=".168" transform="translate(-1269.068 -222.447)"/><path d="m1547.762 386.362a114.677 114.677 0 1 1 -71.044-106.155 114.778 114.778 0 0 1 71.044 106.155z" opacity=".178" transform="translate(-1269.045 -222.423)"/><path d="m1547.147 385.746a114.68 114.68 0 1 1 -71.047-106.154 114.778 114.778 0 0 1 71.047 106.154z" opacity=".188" transform="translate(-1269.021 -222.4)"/><path d="m1546.531 385.131a114.679 114.679 0 1 1 -71.044-106.155 114.778 114.778 0 0 1 71.044 106.155z" opacity=".198" transform="translate(-1268.998 -222.376)"/><path d="m1545.915 384.515a114.677 114.677 0 1 1 -71.044-106.155 114.778 114.778 0 0 1 71.044 106.155z" opacity=".208" transform="translate(-1268.975 -222.353)"/><path d="m1545.3 383.9a114.68 114.68 0 1 1 -71.044-106.154 114.778 114.778 0 0 1 71.044 106.154z" opacity=".218" transform="translate(-1268.951 -222.329)"/><path d="m1544.684 383.283a114.68 114.68 0 1 1 -71.044-106.154 114.779 114.779 0 0 1 71.044 106.154z" opacity=".228" transform="translate(-1268.928 -222.306)"/><path d="m1544.068 382.668a114.677 114.677 0 1 1 -71.044-106.155 114.778 114.778 0 0 1 71.044 106.155z" opacity=".238" transform="translate(-1268.904 -222.283)"/><path d="m1543.453 382.052a114.681 114.681 0 1 1 -71.045-106.152 114.778 114.778 0 0 1 71.045 106.152z" opacity=".248" transform="translate(-1268.881 -222.259)"/><path d="m1542.837 381.436a114.679 114.679 0 1 1 -71.044-106.154 114.778 114.778 0 0 1 71.044 106.154z" opacity=".257" transform="translate(-1268.858 -222.236)"/><path d="m1542.221 380.821a114.676 114.676 0 1 1 -71.044-106.155 114.778 114.778 0 0 1 71.044 106.155z" opacity=".267" transform="translate(-1268.834 -222.212)"/><path d="m1541.6 380.2a114.677 114.677 0 1 1 -71.044-106.155 114.778 114.778 0 0 1 71.044 106.155z" opacity=".277" transform="translate(-1268.811 -222.189)"/><path d="m1540.99 379.589a114.679 114.679 0 1 1 -71.044-106.154 114.778 114.778 0 0 1 71.044 106.154z" opacity=".287" transform="translate(-1268.788 -222.165)"/><path d="m1540.374 378.974a114.677 114.677 0 1 1 -71.044-106.155 114.778 114.778 0 0 1 71.044 106.155z" opacity=".297" transform="translate(-1268.764 -222.142)"/><path d="m1539.758 378.358a114.677 114.677 0 1 1 -71.044-106.158 114.779 114.779 0 0 1 71.044 106.158z" opacity=".307" transform="translate(-1268.74 -222.119)"/><path d="m1539.143 377.742a114.679 114.679 0 1 1 -71.043-106.154 114.778 114.778 0 0 1 71.043 106.154z" opacity=".317" transform="translate(-1268.717 -222.095)"/><path d="m1538.527 377.126a114.679 114.679 0 1 1 -71.044-106.154 114.779 114.779 0 0 1 71.044 106.154z" opacity=".327" transform="translate(-1268.694 -222.072)"/><path d="m1537.911 376.511a114.676 114.676 0 1 1 -71.044-106.155 114.778 114.778 0 0 1 71.044 106.155z" opacity=".337" transform="translate(-1268.67 -222.048)"/><path d="m1537.3 375.895a114.68 114.68 0 1 1 -71.044-106.154 114.778 114.778 0 0 1 71.044 106.154z" opacity=".347" transform="translate(-1268.647 -222.025)"/><path d="m1536.68 375.279a114.679 114.679 0 1 1 -71.044-106.154 114.778 114.778 0 0 1 71.044 106.154z" opacity=".356" transform="translate(-1268.623 -222.002)"/><path d="m1536.064 374.664a114.676 114.676 0 1 1 -71.044-106.155 114.778 114.778 0 0 1 71.044 106.155z" opacity=".366" transform="translate(-1268.6 -221.978)"/><path d="m1535.448 374.048a114.68 114.68 0 1 1 -71.048-106.154 114.777 114.777 0 0 1 71.048 106.154z" opacity=".376" transform="translate(-1268.577 -221.955)"/><path d="m1534.833 373.432a114.68 114.68 0 1 1 -71.044-106.154 114.778 114.778 0 0 1 71.044 106.154z" opacity=".386" transform="translate(-1268.553 -221.931)"/><path d="m1534.217 372.817a114.676 114.676 0 1 1 -71.044-106.155 114.778 114.778 0 0 1 71.044 106.155z" opacity=".396" transform="translate(-1268.53 -221.908)"/><path d="m1533.6 372.2a114.677 114.677 0 1 1 -71.044-106.155 114.778 114.778 0 0 1 71.044 106.155z" opacity=".406" transform="translate(-1268.506 -221.884)"/><path d="m1532.986 371.585a114.679 114.679 0 1 1 -71.044-106.154 114.778 114.778 0 0 1 71.044 106.154z" opacity=".416" transform="translate(-1268.483 -221.861)"/><path d="m1532.37 370.969a114.676 114.676 0 1 1 -71.044-106.154 114.779 114.779 0 0 1 71.044 106.154z" opacity=".426" transform="translate(-1268.459 -221.838)"/><path d="m1531.754 370.354a114.677 114.677 0 1 1 -71.044-106.154 114.778 114.778 0 0 1 71.044 106.154z" opacity=".436" transform="translate(-1268.436 -221.814)"/><path d="m1531.139 369.738a114.679 114.679 0 1 1 -71.039-106.154 114.778 114.778 0 0 1 71.039 106.154z" opacity=".446" transform="translate(-1268.413 -221.791)"/><path d="m1530.523 369.122a114.68 114.68 0 1 1 -71.044-106.154 114.779 114.779 0 0 1 71.044 106.154z" opacity=".455" transform="translate(-1268.389 -221.767)"/><path d="m1529.907 368.507a114.676 114.676 0 1 1 -71.044-106.155 114.778 114.778 0 0 1 71.044 106.155z" opacity=".465" transform="translate(-1268.366 -221.744)"/><path d="m1529.292 367.891a114.68 114.68 0 1 1 -71.044-106.154 114.778 114.778 0 0 1 71.044 106.154z" opacity=".475" transform="translate(-1268.342 -221.72)"/><path d="m1528.676 367.275a114.679 114.679 0 1 1 -71.044-106.154 114.778 114.778 0 0 1 71.044 106.154z" opacity=".485" transform="translate(-1268.319 -221.697)"/><path d="m1528.06 366.66a114.676 114.676 0 1 1 -71.044-106.16 114.778 114.778 0 0 1 71.044 106.16z" opacity=".495" transform="translate(-1268.296 -221.674)"/><path d="m1527.444 366.044a114.677 114.677 0 1 1 -71.044-106.155 114.778 114.778 0 0 1 71.044 106.155z" opacity=".505" transform="translate(-1268.272 -221.65)"/><path d="m1526.829 365.428a114.68 114.68 0 1 1 -71.044-106.154 114.778 114.778 0 0 1 71.044 106.154z" opacity=".515" transform="translate(-1268.249 -221.627)"/><path d="m1526.213 364.813a114.676 114.676 0 1 1 -71.044-106.155 114.779 114.779 0 0 1 71.044 106.155z" opacity=".525" transform="translate(-1268.225 -221.603)"/><path d="m1525.6 364.2a114.677 114.677 0 1 1 -71.044-106.155 114.779 114.779 0 0 1 71.044 106.155z" opacity=".535" transform="translate(-1268.202 -221.58)"/><path d="m1524.982 363.581a114.679 114.679 0 1 1 -71.044-106.154 114.778 114.778 0 0 1 71.044 106.154z" opacity=".545" transform="translate(-1268.178 -221.556)"/><path d="m1524.366 362.965a114.68 114.68 0 1 1 -71.045-106.154 114.779 114.779 0 0 1 71.045 106.154z" opacity=".554" transform="translate(-1268.155 -221.533)"/><path d="m1523.75 362.35a114.677 114.677 0 1 1 -71.044-106.155 114.779 114.779 0 0 1 71.044 106.155z" opacity=".564" transform="translate(-1268.132 -221.51)"/><path d="m1523.135 361.734a114.679 114.679 0 1 1 -71.044-106.154 114.778 114.778 0 0 1 71.044 106.154z" opacity=".574" transform="translate(-1268.108 -221.486)"/><path d="m1522.519 361.118a114.679 114.679 0 1 1 -71.044-106.154 114.778 114.778 0 0 1 71.044 106.154z" opacity=".584" transform="translate(-1268.085 -221.463)"/><path d="m1521.9 360.5a114.677 114.677 0 1 1 -71.044-106.155 114.778 114.778 0 0 1 71.044 106.155z" opacity=".594" transform="translate(-1268.061 -221.439)"/><path d="m1521.288 359.887a114.68 114.68 0 1 1 -71.045-106.154 114.778 114.778 0 0 1 71.045 106.154z" opacity=".604" transform="translate(-1268.038 -221.416)"/><path d="m1520.672 359.271a114.679 114.679 0 1 1 -71.044-106.154 114.778 114.778 0 0 1 71.044 106.154z" opacity=".614" transform="translate(-1268.014 -221.392)"/><path d="m1520.056 358.656a114.676 114.676 0 1 1 -71.044-106.156 114.778 114.778 0 0 1 71.044 106.156z" opacity=".624" transform="translate(-1267.991 -221.369)"/><path d="m1519.44 358.04a114.677 114.677 0 1 1 -71.04-106.155 114.778 114.778 0 0 1 71.04 106.155z" opacity=".634" transform="translate(-1267.967 -221.346)"/><path d="m1518.825 357.424a114.68 114.68 0 1 1 -71.044-106.154 114.778 114.778 0 0 1 71.044 106.154z" opacity=".644" transform="translate(-1267.944 -221.322)"/><path d="m1518.209 356.808a114.676 114.676 0 1 1 -71.044-106.154 114.779 114.779 0 0 1 71.044 106.154z" opacity=".653" transform="translate(-1267.921 -221.299)"/><path d="m1517.593 356.193a114.677 114.677 0 1 1 -71.044-106.155 114.778 114.778 0 0 1 71.044 106.155z" opacity=".663" transform="translate(-1267.897 -221.275)"/><path d="m1516.978 355.577a114.679 114.679 0 1 1 -71.044-106.154 114.778 114.778 0 0 1 71.044 106.154z" opacity=".673" transform="translate(-1267.874 -221.252)"/><path d="m1516.362 354.961a114.679 114.679 0 1 1 -71.044-106.154 114.779 114.779 0 0 1 71.044 106.154z" opacity=".683" transform="translate(-1267.85 -221.229)"/><path d="m1515.746 354.346a114.677 114.677 0 1 1 -71.046-106.155 114.778 114.778 0 0 1 71.046 106.155z" opacity=".693" transform="translate(-1267.827 -221.205)"/><path d="m1515.131 353.73a114.68 114.68 0 1 1 -71.044-106.154 114.778 114.778 0 0 1 71.044 106.154z" opacity=".703" transform="translate(-1267.804 -221.182)"/><path d="m1514.515 353.114a114.679 114.679 0 1 1 -71.044-106.154 114.778 114.778 0 0 1 71.044 106.154z" opacity=".713" transform="translate(-1267.78 -221.158)"/><path d="m1513.9 352.5a114.676 114.676 0 1 1 -71.044-106.155 114.778 114.778 0 0 1 71.044 106.155z" opacity=".723" transform="translate(-1267.757 -221.135)"/><path d="m1513.283 351.883a114.68 114.68 0 1 1 -71.044-106.154 114.777 114.777 0 0 1 71.044 106.154z" opacity=".733" transform="translate(-1267.733 -221.111)"/><path d="m1512.668 351.267a114.679 114.679 0 1 1 -71.044-106.154 114.778 114.778 0 0 1 71.044 106.154z" opacity=".743" transform="translate(-1267.71 -221.088)"/><path d="m1512.052 350.652a114.677 114.677 0 1 1 -71.045-106.152 114.778 114.778 0 0 1 71.045 106.152z" opacity=".752" transform="translate(-1267.686 -221.065)"/><path d="m1511.436 350.036a114.676 114.676 0 1 1 -71.044-106.155 114.779 114.779 0 0 1 71.044 106.155z" opacity=".762" transform="translate(-1267.663 -221.041)"/><path d="m1510.821 349.42a114.679 114.679 0 1 1 -71.044-106.154 114.778 114.778 0 0 1 71.044 106.154z" opacity=".772" transform="translate(-1267.64 -221.018)"/><path d="m1510.205 348.8a114.68 114.68 0 1 1 -71.044-106.154 114.779 114.779 0 0 1 71.044 106.154z" opacity=".782" transform="translate(-1267.616 -220.994)"/><path d="m1509.589 348.189a114.677 114.677 0 1 1 -71.044-106.155 114.778 114.778 0 0 1 71.044 106.155z" opacity=".792" transform="translate(-1267.593 -220.971)"/><path d="m1508.974 347.573a114.679 114.679 0 1 1 -71.044-106.154 114.778 114.778 0 0 1 71.044 106.154z" opacity=".802" transform="translate(-1267.569 -220.947)"/><path d="m1508.358 346.957a114.68 114.68 0 1 1 -71.044-106.157 114.779 114.779 0 0 1 71.044 106.157z" opacity=".812" transform="translate(-1267.546 -220.924)"/><path d="m1507.742 346.342a114.677 114.677 0 1 1 -71.042-106.155 114.779 114.779 0 0 1 71.042 106.155z" opacity=".822" transform="translate(-1267.522 -220.901)"/><path d="m1507.127 345.726a114.68 114.68 0 1 1 -71.045-106.154 114.778 114.778 0 0 1 71.045 106.154z" opacity=".832" transform="translate(-1267.499 -220.877)"/><path d="m1506.511 345.11a114.679 114.679 0 1 1 -71.044-106.154 114.778 114.778 0 0 1 71.044 106.154z" opacity=".842" transform="translate(-1267.475 -220.854)"/><path d="m1505.9 344.495a114.676 114.676 0 1 1 -71.044-106.155 114.778 114.778 0 0 1 71.044 106.155z" opacity=".851" transform="translate(-1267.452 -220.83)"/><path d="m1505.279 343.879a114.677 114.677 0 1 1 -71.045-106.155 114.778 114.778 0 0 1 71.045 106.155z" opacity=".861" transform="translate(-1267.429 -220.807)"/><path d="m1504.664 343.263a114.68 114.68 0 1 1 -71.044-106.154 114.778 114.778 0 0 1 71.044 106.154z" opacity=".871" transform="translate(-1267.405 -220.783)"/><path d="m1504.048 342.647a114.676 114.676 0 1 1 -71.048-106.154 114.779 114.779 0 0 1 71.048 106.154z" opacity=".881" transform="translate(-1267.382 -220.76)"/><path d="m1503.432 342.032a114.677 114.677 0 1 1 -71.044-106.155 114.778 114.778 0 0 1 71.044 106.155z" opacity=".891" transform="translate(-1267.359 -220.737)"/><path d="m1502.817 341.416a114.679 114.679 0 1 1 -71.044-106.154 114.778 114.778 0 0 1 71.044 106.154z" opacity=".901" transform="translate(-1267.335 -220.713)"/><path d="m1502.2 340.8a114.68 114.68 0 1 1 -71.044-106.155 114.779 114.779 0 0 1 71.044 106.155z" opacity=".911" transform="translate(-1267.312 -220.69)"/><path d="m1501.585 340.185a114.676 114.676 0 1 1 -71.044-106.155 114.778 114.778 0 0 1 71.044 106.155z" opacity=".921" transform="translate(-1267.288 -220.666)"/><path d="m1500.97 339.569a114.679 114.679 0 1 1 -71.044-106.154 114.778 114.778 0 0 1 71.044 106.154z" opacity=".931" transform="translate(-1267.265 -220.643)"/><path d="m1500.354 338.953a114.679 114.679 0 1 1 -71.044-106.153 114.778 114.778 0 0 1 71.044 106.153z" opacity=".941" transform="translate(-1267.241 -220.619)"/><path d="m1499.738 338.338a114.676 114.676 0 1 1 -71.044-106.155 114.778 114.778 0 0 1 71.044 106.155z" opacity=".95" transform="translate(-1267.218 -220.596)"/><path d="m1499.122 337.721a114.679 114.679 0 1 1 -71.044-106.154 114.777 114.777 0 0 1 71.044 106.154z" opacity=".96" transform="translate(-1267.194 -220.573)"/><path d="m1498.507 337.106a114.679 114.679 0 1 1 -71.044-106.154 114.778 114.778 0 0 1 71.044 106.154z" opacity=".97" transform="translate(-1267.171 -220.549)"/><path d="m1497.891 336.491a114.676 114.676 0 1 1 -71.044-106.155 114.778 114.778 0 0 1 71.044 106.155z" opacity=".98" transform="translate(-1267.148 -220.526)"/><path d="m1497.275 335.875a114.676 114.676 0 1 1 -71.044-106.155 114.778 114.778 0 0 1 71.044 106.155z" opacity=".99" transform="translate(-1267.124 -220.502)"/><path d="m1496.66 335.259a114.679 114.679 0 1 1 -71.044-106.159 114.778 114.778 0 0 1 71.044 106.159z" transform="translate(-1267.101 -220.479)"/></g><path d="m1496.66 335.259a114.679 114.679 0 1 1 -71.044-106.159 114.778 114.778 0 0 1 71.044 106.159z" fill="#f9f9f9" transform="translate(-1267.101 -202.12)"/><path d="m32.227 3.375a28.852 28.852 0 1 0 28.852 28.852 28.937 28.937 0 0 0 -28.852-28.852zm-5.927 44.235-14.783-14.787 4.147-4.147 10.654 10.653 22.482-22.485 4.147 4.147z" fill="#8ac900" transform="translate(84.577 53.438)"/><path d="m-56.771 0a2.8 2.8 0 0 1 -2-.583 2.549 2.549 0 0 1 -.594-1.881v-4.752a3.857 3.857 0 0 1 .416-1.884 8.824 8.824 0 0 1 1.166-1.6 7.622 7.622 0 0 0 .627-.759.988.988 0 0 0 .187-.561.914.914 0 0 0 -.308-.781 1.669 1.669 0 0 0 -.99-.231 4.616 4.616 0 0 0 -2.332.66v-2.128a5.577 5.577 0 0 1 1.584-.616 7.864 7.864 0 0 1 1.826-.22 4.068 4.068 0 0 1 2.475.638 2.22 2.22 0 0 1 .847 1.892 2.838 2.838 0 0 1 -.308 1.364 11.243 11.243 0 0 1 -.924 1.386 9.539 9.539 0 0 0 -.968 1.456 3.214 3.214 0 0 0 -.33 1.5v3.872a.807.807 0 0 0 .9.924h.748v2.304zm9.438.22a5.824 5.824 0 0 1 -3.982-1.21 4.293 4.293 0 0 1 -1.364-3.388v-.748a2.951 2.951 0 0 1 .319-1.4 9.891 9.891 0 0 1 .869-1.331 8.686 8.686 0 0 0 .517-.737 1.045 1.045 0 0 0 .165-.539.513.513 0 0 0 -.154-.44 1 1 0 0 0 -.55-.11h-1.43l.242-2.2h3.08q1.826 0 1.826 1.694a2.9 2.9 0 0 1 -.242 1.2 12.966 12.966 0 0 1 -.7 1.309 8.367 8.367 0 0 0 -.726 1.287 3.106 3.106 0 0 0 -.242 1.243v.95a2 2 0 0 0 .6 1.573 2.584 2.584 0 0 0 1.771.539q2.42 0 2.42-2.2v-1.388a1.907 1.907 0 0 0 -.286-1.188 1.242 1.242 0 0 0 -1.012-.352h-.616l.132-2.068h.4a1.341 1.341 0 0 0 1.056-.374 1.769 1.769 0 0 0 .33-1.188v-1.254h2.97v1.188a3.562 3.562 0 0 1 -.33 1.672 2.334 2.334 0 0 1 -1.188.99 2.472 2.472 0 0 1 1.2 1.034 3.609 3.609 0 0 1 .319 1.65v1.144a4.254 4.254 0 0 1 -1.441 3.4 5.846 5.846 0 0 1 -3.953 1.242zm.044-15.686h-1.716v-2.024h3.718v1.958h4.708l-.11 2.024h-6.6zm12.43 15.686a8.063 8.063 0 0 1 -2.441-.33l-3.344-8.14h2.882l2.618 6.358a2.668 2.668 0 0 0 2.376-1.1 5.955 5.955 0 0 0 .748-3.322 6.681 6.681 0 0 0 -.253-2.079 1.825 1.825 0 0 0 -.827-1.056 3.276 3.276 0 0 0 -1.584-.319h-.9v-2.112h1.32a4.911 4.911 0 0 1 3.828 1.364 6.12 6.12 0 0 1 1.232 4.2 6.951 6.951 0 0 1 -1.518 4.939 5.438 5.438 0 0 1 -4.137 1.597zm11.33-7.52a2.944 2.944 0 0 0 -.495-1.881 2.249 2.249 0 0 0 -1.815-.605 8.2 8.2 0 0 0 -1.518.154 7.946 7.946 0 0 0 -1.474.418v-2.186a7.864 7.864 0 0 1 1.65-.506 9.532 9.532 0 0 1 1.914-.2 5.105 5.105 0 0 1 3.6 1.056 4.4 4.4 0 0 1 1.111 3.322v7.728h-2.97zm9.7 7.524a3.944 3.944 0 0 1 -3.012-1.17 4.493 4.493 0 0 1 -1.1-3.212v-7.722h2.97v7.546a2.356 2.356 0 0 0 .528 1.716 2.184 2.184 0 0 0 1.606.528 4 4 0 0 0 1.617-.352 3.766 3.766 0 0 0 1.287-.88v-8.558h2.97v11.88h-2.728l-.132-1.166a6.183 6.183 0 0 1 -4.004 1.386zm12.146-.224a2.8 2.8 0 0 1 -2-.583 2.549 2.549 0 0 1 -.594-1.881v-9.416h2.97v8.646a.807.807 0 0 0 .9.924h.748v2.31zm7.106.22a9.567 9.567 0 0 1 -3.784-.7v-2.27a7.556 7.556 0 0 0 3.08.66 4.142 4.142 0 0 0 2.97-.869 4.1 4.1 0 0 0 .88-2.981 4.1 4.1 0 0 0 -.88-2.981 4.142 4.142 0 0 0 -2.97-.869 7.556 7.556 0 0 0 -3.08.66v-2.27a9.567 9.567 0 0 1 3.784-.7 5.9 5.9 0 0 1 4.477 1.562 6.433 6.433 0 0 1 1.485 4.6 6.433 6.433 0 0 1 -1.485 4.596 5.9 5.9 0 0 1 -4.477 1.562zm-1.408-13.684a3.053 3.053 0 0 1 -2.123-.7 2.5 2.5 0 0 1 -.781-1.958 2.64 2.64 0 0 1 .8-2.013 3.154 3.154 0 0 1 2.258-.765h5.544l-.132 1.65h-5.126a1.613 1.613 0 0 0 -1 .264 1.018 1.018 0 0 0 -.341.858q0 1.034 1.1 1.034 1.056 0 1.056-.88v-.4h1.76v.4a.763.763 0 0 0 .231.627 1.127 1.127 0 0 0 .715.187h1.341v1.65h-1.562a2.871 2.871 0 0 1 -1.012-.165 1.07 1.07 0 0 1 -.616-.517 1.535 1.535 0 0 1 -.847.528 4.179 4.179 0 0 1 -1.265.2zm14.872 13.684a6.238 6.238 0 0 1 -4.169-1.265 4.626 4.626 0 0 1 -1.485-3.729v-7.106h2.967v7.15a2.656 2.656 0 0 0 .671 1.991 2.792 2.792 0 0 0 2.013.649 2.792 2.792 0 0 0 2.016-.649 2.656 2.656 0 0 0 .671-1.991v-7.15h2.97v7.106a4.626 4.626 0 0 1 -1.485 3.729 6.238 6.238 0 0 1 -4.169 1.265zm11.176-.22a2.8 2.8 0 0 1 -2-.583 2.549 2.549 0 0 1 -.594-1.881v-7.26a3.664 3.664 0 0 1 1.452-3.234h-3.19v-2.31h6.776v2.156a2.843 2.843 0 0 0 -1.584 1.243 4.586 4.586 0 0 0 -.484 2.277v6.358a.807.807 0 0 0 .9.924h.748v2.31zm9 .22a6.136 6.136 0 0 1 -3.984-1.12 3.9 3.9 0 0 1 -1.364-3.19v-.55a3.059 3.059 0 0 1 .418-1.529 12.619 12.619 0 0 1 1.188-1.683q.44-.55.66-.88a1.1 1.1 0 0 0 .22-.594q0-.418-.352-.418a.868.868 0 0 0 -.55.242v.9h-1.87v-3.278h1.958v.616a2.727 2.727 0 0 1 .792-.462 2.865 2.865 0 0 1 .99-.154 1.575 1.575 0 0 1 1.76 1.8 3.075 3.075 0 0 1 -.286 1.331 11.8 11.8 0 0 1 -.88 1.485 9.407 9.407 0 0 0 -.814 1.364 2.853 2.853 0 0 0 -.264 1.21v.49a2 2 0 0 0 .6 1.573 2.584 2.584 0 0 0 1.771.539q2.42 0 2.42-2.2v-1.388a1.907 1.907 0 0 0 -.276-1.188 1.242 1.242 0 0 0 -1.012-.352h-.616l.128-2.068h.4a1.341 1.341 0 0 0 1.056-.374 1.769 1.769 0 0 0 .33-1.188v-1.254h2.97v1.188a3.562 3.562 0 0 1 -.33 1.672 2.334 2.334 0 0 1 -1.188.99 2.472 2.472 0 0 1 1.2 1.034 3.609 3.609 0 0 1 .319 1.65v1.144a4.254 4.254 0 0 1 -1.441 3.4 5.846 5.846 0 0 1 -3.955 1.242zm12.537 0a4.692 4.692 0 0 1 -3.619-1.463 6.374 6.374 0 0 1 -1.352-4.457 8.629 8.629 0 0 1 1.089-4.752 3.433 3.433 0 0 1 3.025-1.65 3.1 3.1 0 0 1 1.43.286 2.512 2.512 0 0 1 .924.836 3.076 3.076 0 0 1 1.221-.814 4.313 4.313 0 0 1 1.595-.308 2.781 2.781 0 0 1 2.266.924 3.8 3.8 0 0 1 .77 2.508v8.67h-2.97v-8.206a2.505 2.505 0 0 0 -.22-1.2.833.833 0 0 0 -.792-.385 1.108 1.108 0 0 0 -.726.253 1.406 1.406 0 0 0 -.44.759h-1.43a2.479 2.479 0 0 0 -.484-.781.948.948 0 0 0 -.687-.23 1.393 1.393 0 0 0 -1.37 1.045 9.259 9.259 0 0 0 -.385 3.045 4.47 4.47 0 0 0 .671 2.772 2.427 2.427 0 0 0 2.013.836 4.915 4.915 0 0 0 1.518-.176v2.18a5.836 5.836 0 0 1 -2.047.308zm1.8-17.182h6.732l-.088 2.024h-4.219v1.43h-2.425zm-80.207 49.962a2.8 2.8 0 0 1 -2-.583 2.549 2.549 0 0 1 -.594-1.881v-7.26a3.664 3.664 0 0 1 1.452-3.234h-3.19v-2.31h6.776v2.156a2.843 2.843 0 0 0 -1.584 1.243 4.586 4.586 0 0 0 -.484 2.277v6.358a.807.807 0 0 0 .9.924h.748v2.31zm8.4.22a4.692 4.692 0 0 1 -3.619-1.463 6.374 6.374 0 0 1 -1.349-4.457 6.609 6.609 0 0 1 1.584-4.73 6.064 6.064 0 0 1 4.62-1.672 7.465 7.465 0 0 1 3.377.682 4.5 4.5 0 0 1 1.98 1.8 4.923 4.923 0 0 1 .627 2.442v7.178h-2.97v-6.974a2.918 2.918 0 0 0 -.693-2.079 3.149 3.149 0 0 0 -2.365-.737q-3.344 0-3.344 4.092a4.47 4.47 0 0 0 .671 2.772 2.427 2.427 0 0 0 2.013.836 4.915 4.915 0 0 0 1.518-.176v2.178a5.836 5.836 0 0 1 -2.043.308zm1.87-15.686h-1.716v-2.024h3.718v1.958h4.708l-.11 2.024h-6.6zm7.964 3.586h2.728l.132 1.166a6.1 6.1 0 0 1 1.863-1.023 6.826 6.826 0 0 1 2.255-.363 3.82 3.82 0 0 1 2.937 1.144 4.431 4.431 0 0 1 1.067 3.146v7.81h-2.97v-7.634a2.212 2.212 0 0 0 -.528-1.639 2.214 2.214 0 0 0 -1.606-.517 4 4 0 0 0 -1.617.352 3.766 3.766 0 0 0 -1.287.88v8.558h-2.97zm5.434-5.126h2.42v1.474h5.482l-.11 2.024h-7.788zm12.28 17.226a3.944 3.944 0 0 1 -3.014-1.166 4.493 4.493 0 0 1 -1.1-3.212v-7.722h2.973v7.546a2.356 2.356 0 0 0 .528 1.716 2.184 2.184 0 0 0 1.606.528 4 4 0 0 0 1.617-.352 3.766 3.766 0 0 0 1.287-.88v-8.558h2.962v11.88h-2.723l-.132-1.166a6.183 6.183 0 0 1 -4.004 1.386zm9.482-12.1h2.728l.132 1.166a6.1 6.1 0 0 1 1.859-1.023 6.826 6.826 0 0 1 2.258-.363 3.82 3.82 0 0 1 2.937 1.144 4.431 4.431 0 0 1 1.063 3.146v7.81h-2.97v-7.634a1.868 1.868 0 0 0 -2.13-2.156 4 4 0 0 0 -1.617.352 3.766 3.766 0 0 0 -1.287.88v8.558h-2.97zm1.518-3.652h7.04v-1.782h2.419v3.806h-9.613z" fill="#333" transform="translate(114.079 166.737)"/></svg>