<svg height="308" viewBox="0 0 289.628 308" width="289.628" xmlns="http://www.w3.org/2000/svg"><path d="m643.029 334.647-33.808-33.809a133.182 133.182 0 0 0 -223.131-60.406l94.21 94.215-94.226 94.226a133.289 133.289 0 0 0 223.158-60.434z" fill="#fbb03b" transform="translate(-365.43 -201.397)"/><g opacity=".1" transform="translate(0 18.372)"><path d="m656.574 397.543a114.778 114.778 0 1 1 -71.105-106.243 114.877 114.877 0 0 1 71.105 106.243z" opacity="0" transform="translate(-366.946 -222.793)"/><path d="m655.958 396.928a114.775 114.775 0 1 1 -71.105-106.246 114.877 114.877 0 0 1 71.105 106.246z" opacity=".01" transform="translate(-366.923 -222.77)"/><path d="m655.342 396.312a114.778 114.778 0 1 1 -71.105-106.245 114.877 114.877 0 0 1 71.105 106.245z" opacity=".02" transform="translate(-366.9 -222.747)"/><path d="m654.727 395.7a114.778 114.778 0 1 1 -71.105-106.25 114.877 114.877 0 0 1 71.105 106.25z" opacity=".03" transform="translate(-366.878 -222.724)"/><path d="m654.111 395.081a114.775 114.775 0 1 1 -71.105-106.246 114.878 114.878 0 0 1 71.105 106.246z" opacity=".04" transform="translate(-366.855 -222.702)"/><path d="m653.5 394.465a114.776 114.776 0 1 1 -71.11-106.247 114.877 114.877 0 0 1 71.11 106.247z" opacity=".05" transform="translate(-366.832 -222.679)"/><path d="m652.88 393.849a114.779 114.779 0 1 1 -71.106-106.249 114.877 114.877 0 0 1 71.106 106.249z" opacity=".059" transform="translate(-366.809 -222.656)"/><path d="m652.264 393.234a114.775 114.775 0 1 1 -71.105-106.246 114.877 114.877 0 0 1 71.105 106.246z" opacity=".069" transform="translate(-366.786 -222.633)"/><path d="m651.648 392.618a114.775 114.775 0 1 1 -71.105-106.246 114.877 114.877 0 0 1 71.105 106.246z" opacity=".079" transform="translate(-366.763 -222.61)"/><path d="m651.032 392a114.779 114.779 0 1 1 -71.106-106.245 114.877 114.877 0 0 1 71.106 106.245z" opacity=".089" transform="translate(-366.74 -222.587)"/><path d="m650.417 391.386a114.778 114.778 0 1 1 -71.105-106.246 114.878 114.878 0 0 1 71.105 106.246z" opacity=".099" transform="translate(-366.717 -222.564)"/><path d="m649.8 390.771a114.775 114.775 0 1 1 -71.1-106.247 114.878 114.878 0 0 1 71.1 106.247z" opacity=".109" transform="translate(-366.694 -222.541)"/><path d="m649.185 390.155a114.778 114.778 0 1 1 -71.105-106.246 114.877 114.877 0 0 1 71.105 106.246z" opacity=".119" transform="translate(-366.671 -222.518)"/><path d="m648.57 389.539a114.779 114.779 0 1 1 -71.106-106.245 114.877 114.877 0 0 1 71.106 106.245z" opacity=".129" transform="translate(-366.648 -222.495)"/><path d="m647.954 388.924a114.775 114.775 0 1 1 -71.106-106.246 114.877 114.877 0 0 1 71.106 106.246z" opacity=".139" transform="translate(-366.625 -222.472)"/><path d="m647.338 388.308a114.778 114.778 0 1 1 -71.106-106.245 114.877 114.877 0 0 1 71.106 106.245z" opacity=".149" transform="translate(-366.603 -222.45)"/><path d="m646.723 387.692a114.778 114.778 0 1 1 -71.105-106.245 114.877 114.877 0 0 1 71.105 106.245z" opacity=".158" transform="translate(-366.58 -222.427)"/><path d="m646.107 387.077a114.776 114.776 0 1 1 -71.107-106.247 114.877 114.877 0 0 1 71.107 106.247z" opacity=".168" transform="translate(-366.557 -222.404)"/><path d="m645.491 386.461a114.775 114.775 0 1 1 -71.106-106.246 114.877 114.877 0 0 1 71.106 106.246z" opacity=".178" transform="translate(-366.534 -222.381)"/><path d="m644.875 385.845a114.779 114.779 0 1 1 -71.105-106.245 114.876 114.876 0 0 1 71.105 106.245z" opacity=".188" transform="translate(-366.511 -222.358)"/><path d="m644.26 385.23a114.778 114.778 0 1 1 -71.106-106.246 114.877 114.877 0 0 1 71.106 106.246z" opacity=".198" transform="translate(-366.488 -222.335)"/><path d="m643.644 384.614a114.775 114.775 0 1 1 -71.106-106.246 114.877 114.877 0 0 1 71.106 106.246z" opacity=".208" transform="translate(-366.465 -222.312)"/><path d="m643.028 384a114.778 114.778 0 1 1 -71.106-106.245 114.877 114.877 0 0 1 71.106 106.245z" opacity=".218" transform="translate(-366.442 -222.289)"/><path d="m642.413 383.382a114.778 114.778 0 1 1 -71.105-106.245 114.878 114.878 0 0 1 71.105 106.245z" opacity=".228" transform="translate(-366.419 -222.266)"/><path d="m641.8 382.767a114.775 114.775 0 1 1 -71.108-106.247 114.877 114.877 0 0 1 71.108 106.247z" opacity=".238" transform="translate(-366.396 -222.243)"/><path d="m641.181 382.151a114.778 114.778 0 1 1 -71.105-106.245 114.877 114.877 0 0 1 71.105 106.245z" opacity=".248" transform="translate(-366.373 -222.22)"/><path d="m640.566 381.535a114.778 114.778 0 1 1 -71.106-106.245 114.877 114.877 0 0 1 71.106 106.245z" opacity=".257" transform="translate(-366.35 -222.197)"/><path d="m639.95 380.92a114.776 114.776 0 1 1 -71.106-106.246 114.878 114.878 0 0 1 71.106 106.246z" opacity=".267" transform="translate(-366.328 -222.175)"/><path d="m639.334 380.3a114.776 114.776 0 1 1 -71.106-106.246 114.877 114.877 0 0 1 71.106 106.246z" opacity=".277" transform="translate(-366.305 -222.152)"/><path d="m638.719 379.688a114.778 114.778 0 1 1 -71.106-106.245 114.877 114.877 0 0 1 71.106 106.245z" opacity=".287" transform="translate(-366.282 -222.129)"/><path d="m638.1 379.073a114.775 114.775 0 1 1 -71.1-106.247 114.878 114.878 0 0 1 71.1 106.247z" opacity=".297" transform="translate(-366.259 -222.106)"/><path d="m637.487 378.457a114.776 114.776 0 1 1 -71.105-106.247 114.877 114.877 0 0 1 71.105 106.247z" opacity=".307" transform="translate(-366.236 -222.083)"/><path d="m636.871 377.841a114.778 114.778 0 1 1 -71.105-106.241 114.877 114.877 0 0 1 71.105 106.241z" opacity=".317" transform="translate(-366.213 -222.06)"/><path d="m636.256 377.225a114.778 114.778 0 1 1 -71.106-106.245 114.878 114.878 0 0 1 71.106 106.245z" opacity=".327" transform="translate(-366.19 -222.037)"/><path d="m635.64 376.61a114.775 114.775 0 1 1 -71.106-106.246 114.878 114.878 0 0 1 71.106 106.246z" opacity=".337" transform="translate(-366.167 -222.014)"/><path d="m635.024 375.994a114.779 114.779 0 1 1 -71.106-106.245 114.877 114.877 0 0 1 71.106 106.245z" opacity=".347" transform="translate(-366.144 -221.991)"/><path d="m634.409 375.378a114.778 114.778 0 1 1 -71.109-106.246 114.877 114.877 0 0 1 71.109 106.246z" opacity=".356" transform="translate(-366.121 -221.968)"/><path d="m633.793 374.763a114.776 114.776 0 1 1 -71.106-106.246 114.878 114.878 0 0 1 71.106 106.246z" opacity=".366" transform="translate(-366.098 -221.945)"/><path d="m633.177 374.147a114.778 114.778 0 1 1 -71.105-106.247 114.877 114.877 0 0 1 71.105 106.247z" opacity=".376" transform="translate(-366.075 -221.923)"/><path d="m632.562 373.531a114.778 114.778 0 1 1 -71.105-106.245 114.877 114.877 0 0 1 71.105 106.245z" opacity=".386" transform="translate(-366.053 -221.9)"/><path d="m631.946 372.916a114.776 114.776 0 1 1 -71.106-106.246 114.878 114.878 0 0 1 71.106 106.246z" opacity=".396" transform="translate(-366.03 -221.877)"/><path d="m631.33 372.3a114.775 114.775 0 1 1 -71.105-106.246 114.877 114.877 0 0 1 71.105 106.246z" opacity=".406" transform="translate(-366.007 -221.854)"/><path d="m630.715 371.684a114.78 114.78 0 1 1 -71.107-106.245 114.877 114.877 0 0 1 71.107 106.245z" opacity=".416" transform="translate(-365.984 -221.831)"/><path d="m630.1 371.068a114.776 114.776 0 1 1 -71.106-106.245 114.878 114.878 0 0 1 71.106 106.245z" opacity=".426" transform="translate(-365.961 -221.808)"/><path d="m629.483 370.453a114.775 114.775 0 1 1 -71.106-106.246 114.877 114.877 0 0 1 71.106 106.246z" opacity=".436" transform="translate(-365.938 -221.785)"/><path d="m628.867 369.837a114.778 114.778 0 1 1 -71.106-106.245 114.877 114.877 0 0 1 71.106 106.245z" opacity=".446" transform="translate(-365.915 -221.762)"/><path d="m628.252 369.221a114.778 114.778 0 1 1 -71.106-106.245 114.878 114.878 0 0 1 71.106 106.245z" opacity=".455" transform="translate(-365.892 -221.739)"/><path d="m627.636 368.606a114.775 114.775 0 1 1 -71.105-106.246 114.877 114.877 0 0 1 71.105 106.246z" opacity=".465" transform="translate(-365.869 -221.716)"/><path d="m627.02 367.99a114.778 114.778 0 1 1 -71.106-106.245 114.877 114.877 0 0 1 71.106 106.245z" opacity=".475" transform="translate(-365.846 -221.693)"/><path d="m626.405 367.374a114.779 114.779 0 1 1 -71.105-106.246 114.877 114.877 0 0 1 71.105 106.246z" opacity=".485" transform="translate(-365.824 -221.671)"/><path d="m625.789 366.759a114.776 114.776 0 1 1 -71.106-106.246 114.877 114.877 0 0 1 71.106 106.246z" opacity=".495" transform="translate(-365.801 -221.648)"/><path d="m625.173 366.143a114.776 114.776 0 1 1 -71.105-106.243 114.877 114.877 0 0 1 71.105 106.243z" opacity=".505" transform="translate(-365.778 -221.625)"/><path d="m624.558 365.527a114.779 114.779 0 1 1 -71.106-106.245 114.877 114.877 0 0 1 71.106 106.245z" opacity=".515" transform="translate(-365.755 -221.602)"/><path d="m623.942 364.912a114.775 114.775 0 1 1 -71.105-106.246 114.877 114.877 0 0 1 71.105 106.246z" opacity=".525" transform="translate(-365.732 -221.579)"/><path d="m623.326 364.3a114.775 114.775 0 1 1 -71.105-106.246 114.877 114.877 0 0 1 71.105 106.246z" opacity=".535" transform="translate(-365.709 -221.556)"/><path d="m622.71 363.68a114.778 114.778 0 1 1 -71.11-106.246 114.876 114.876 0 0 1 71.11 106.246z" opacity=".545" transform="translate(-365.686 -221.533)"/><path d="m622.1 363.064a114.778 114.778 0 1 1 -71.11-106.246 114.878 114.878 0 0 1 71.11 106.246z" opacity=".554" transform="translate(-365.663 -221.51)"/><path d="m621.479 362.449a114.775 114.775 0 1 1 -71.105-106.249 114.878 114.878 0 0 1 71.105 106.249z" opacity=".564" transform="translate(-365.64 -221.487)"/><path d="m620.863 361.833a114.778 114.778 0 1 1 -71.106-106.245 114.877 114.877 0 0 1 71.106 106.245z" opacity=".574" transform="translate(-365.617 -221.464)"/><path d="m620.248 361.217a114.778 114.778 0 1 1 -71.105-106.245 114.877 114.877 0 0 1 71.105 106.245z" opacity=".584" transform="translate(-365.594 -221.441)"/><path d="m619.632 360.6a114.775 114.775 0 1 1 -71.105-106.246 114.877 114.877 0 0 1 71.105 106.246z" opacity=".594" transform="translate(-365.571 -221.418)"/><path d="m619.016 359.986a114.778 114.778 0 1 1 -71.105-106.246 114.877 114.877 0 0 1 71.105 106.246z" opacity=".604" transform="translate(-365.548 -221.396)"/><path d="m618.4 359.37a114.778 114.778 0 1 1 -71.1-106.246 114.877 114.877 0 0 1 71.1 106.246z" opacity=".614" transform="translate(-365.526 -221.373)"/><path d="m617.785 358.755a114.776 114.776 0 1 1 -71.105-106.247 114.878 114.878 0 0 1 71.105 106.247z" opacity=".624" transform="translate(-365.503 -221.35)"/><path d="m617.169 358.139a114.775 114.775 0 1 1 -71.106-106.246 114.877 114.877 0 0 1 71.106 106.246z" opacity=".634" transform="translate(-365.48 -221.327)"/><path d="m616.554 357.523a114.78 114.78 0 1 1 -71.107-106.245 114.877 114.877 0 0 1 71.107 106.245z" opacity=".644" transform="translate(-365.457 -221.304)"/><path d="m615.938 356.907a114.776 114.776 0 1 1 -71.106-106.245 114.878 114.878 0 0 1 71.106 106.245z" opacity=".653" transform="translate(-365.434 -221.281)"/><path d="m615.322 356.292a114.775 114.775 0 1 1 -71.106-106.246 114.878 114.878 0 0 1 71.106 106.246z" opacity=".663" transform="translate(-365.411 -221.258)"/><path d="m614.706 355.676a114.778 114.778 0 1 1 -71.106-106.246 114.877 114.877 0 0 1 71.106 106.246z" opacity=".673" transform="translate(-365.388 -221.235)"/><path d="m614.091 355.06a114.778 114.778 0 1 1 -71.106-106.245 114.878 114.878 0 0 1 71.106 106.245z" opacity=".683" transform="translate(-365.365 -221.212)"/><path d="m613.475 354.445a114.776 114.776 0 1 1 -71.105-106.245 114.878 114.878 0 0 1 71.105 106.245z" opacity=".693" transform="translate(-365.342 -221.189)"/><path d="m612.859 353.829a114.778 114.778 0 1 1 -71.105-106.245 114.877 114.877 0 0 1 71.105 106.245z" opacity=".703" transform="translate(-365.319 -221.166)"/><path d="m612.244 353.213a114.778 114.778 0 1 1 -71.106-106.245 114.877 114.877 0 0 1 71.106 106.245z" opacity=".713" transform="translate(-365.296 -221.143)"/><path d="m611.628 352.6a114.775 114.775 0 1 1 -71.106-106.246 114.877 114.877 0 0 1 71.106 106.246z" opacity=".723" transform="translate(-365.274 -221.121)"/><path d="m611.012 351.982a114.779 114.779 0 1 1 -71.106-106.245 114.877 114.877 0 0 1 71.106 106.245z" opacity=".733" transform="translate(-365.251 -221.098)"/><path d="m610.4 351.366a114.778 114.778 0 1 1 -71.108-106.246 114.877 114.877 0 0 1 71.108 106.246z" opacity=".743" transform="translate(-365.228 -221.075)"/><path d="m609.781 350.751a114.776 114.776 0 1 1 -71.105-106.251 114.877 114.877 0 0 1 71.105 106.251z" opacity=".752" transform="translate(-365.205 -221.052)"/><path d="m609.165 350.135a114.775 114.775 0 1 1 -71.105-106.247 114.878 114.878 0 0 1 71.105 106.247z" opacity=".762" transform="translate(-365.182 -221.029)"/><path d="m608.549 349.519a114.779 114.779 0 1 1 -71.106-106.245 114.876 114.876 0 0 1 71.106 106.245z" opacity=".772" transform="translate(-365.159 -221.006)"/><path d="m607.934 348.9a114.778 114.778 0 1 1 -71.106-106.245 114.878 114.878 0 0 1 71.106 106.245z" opacity=".782" transform="translate(-365.136 -220.983)"/><path d="m607.318 348.288a114.776 114.776 0 1 1 -71.106-106.246 114.877 114.877 0 0 1 71.106 106.246z" opacity=".792" transform="translate(-365.113 -220.96)"/><path d="m606.7 347.672a114.778 114.778 0 1 1 -71.1-106.246 114.877 114.877 0 0 1 71.1 106.246z" opacity=".802" transform="translate(-365.09 -220.937)"/><path d="m606.087 347.056a114.778 114.778 0 1 1 -71.105-106.246 114.878 114.878 0 0 1 71.105 106.246z" opacity=".812" transform="translate(-365.067 -220.914)"/><path d="m605.471 346.441a114.776 114.776 0 1 1 -71.106-106.246 114.877 114.877 0 0 1 71.106 106.246z" opacity=".822" transform="translate(-365.044 -220.891)"/><path d="m604.855 345.825a114.778 114.778 0 1 1 -71.105-106.246 114.877 114.877 0 0 1 71.105 106.246z" opacity=".832" transform="translate(-365.022 -220.869)"/><path d="m604.24 345.209a114.778 114.778 0 1 1 -71.106-106.245 114.877 114.877 0 0 1 71.106 106.245z" opacity=".842" transform="translate(-364.999 -220.846)"/><path d="m603.624 344.594a114.776 114.776 0 1 1 -71.106-106.246 114.877 114.877 0 0 1 71.106 106.246z" opacity=".851" transform="translate(-364.976 -220.823)"/><path d="m603.008 343.978a114.775 114.775 0 1 1 -71.108-106.247 114.877 114.877 0 0 1 71.108 106.247z" opacity=".861" transform="translate(-364.953 -220.8)"/><path d="m602.393 343.362a114.779 114.779 0 1 1 -71.106-106.245 114.877 114.877 0 0 1 71.106 106.245z" opacity=".871" transform="translate(-364.93 -220.777)"/><path d="m601.777 342.746a114.775 114.775 0 1 1 -71.105-106.246 114.878 114.878 0 0 1 71.105 106.246z" opacity=".881" transform="translate(-364.907 -220.754)"/><path d="m601.161 342.131a114.775 114.775 0 1 1 -71.106-106.246 114.877 114.877 0 0 1 71.106 106.246z" opacity=".891" transform="translate(-364.884 -220.731)"/><path d="m600.546 341.515a114.778 114.778 0 1 1 -71.106-106.246 114.877 114.877 0 0 1 71.106 106.246z" opacity=".901" transform="translate(-364.861 -220.708)"/><path d="m599.93 340.9a114.778 114.778 0 1 1 -71.106-106.246 114.878 114.878 0 0 1 71.106 106.246z" opacity=".911" transform="translate(-364.838 -220.685)"/><path d="m599.314 340.284a114.775 114.775 0 1 1 -71.106-106.246 114.878 114.878 0 0 1 71.106 106.246z" opacity=".921" transform="translate(-364.815 -220.662)"/><path d="m598.7 339.668a114.778 114.778 0 1 1 -71.106-106.245 114.877 114.877 0 0 1 71.106 106.245z" opacity=".931" transform="translate(-364.792 -220.639)"/><path d="m598.083 339.052a114.778 114.778 0 1 1 -71.106-106.245 114.877 114.877 0 0 1 71.106 106.245z" opacity=".941" transform="translate(-364.77 -220.616)"/><path d="m597.467 338.437a114.776 114.776 0 1 1 -71.105-106.247 114.878 114.878 0 0 1 71.105 106.247z" opacity=".95" transform="translate(-364.747 -220.594)"/><path d="m596.851 337.821a114.778 114.778 0 1 1 -71.106-106.245 114.877 114.877 0 0 1 71.106 106.245z" opacity=".96" transform="translate(-364.724 -220.571)"/><path d="m596.236 337.2a114.778 114.778 0 1 1 -71.106-106.245 114.877 114.877 0 0 1 71.106 106.245z" opacity=".97" transform="translate(-364.701 -220.548)"/><path d="m595.62 336.59a114.775 114.775 0 1 1 -71.106-106.246 114.877 114.877 0 0 1 71.106 106.246z" opacity=".98" transform="translate(-364.678 -220.525)"/><path d="m595 335.974a114.775 114.775 0 1 1 -71.1-106.247 114.877 114.877 0 0 1 71.1 106.247z" opacity=".99" transform="translate(-364.655 -220.502)"/><path d="m594.389 335.358a114.779 114.779 0 1 1 -71.107-106.245 114.877 114.877 0 0 1 71.107 106.245z" transform="translate(-364.632 -220.479)"/></g><path d="m594.389 335.358a114.779 114.779 0 1 1 -71.107-106.245 114.877 114.877 0 0 1 71.107 106.245z" fill="#f9f9f9" transform="translate(-364.632 -202.107)"/><path d="m-41.437.22a4.691 4.691 0 0 1 -2.992-.9 3.393 3.393 0 0 1 -1.144-2.84 3.287 3.287 0 0 1 1.21-2.739 5.5 5.5 0 0 1 3.476-.957h3.366v-.572a1.8 1.8 0 0 0 -.616-1.551 3.852 3.852 0 0 0 -2.178-.451 12.93 12.93 0 0 0 -3.938.594v-2.222a13.9 13.9 0 0 1 2.134-.495 14.718 14.718 0 0 1 2.288-.187 8.811 8.811 0 0 1 2.112.22h4.136l-.154 2.266h-1.342a3.865 3.865 0 0 1 .528 2.134v7.48h-2.97v-5.038h-3.19a2.725 2.725 0 0 0 -1.529.352 1.308 1.308 0 0 0 -.517 1.166 1.237 1.237 0 0 0 .473 1.12 3.173 3.173 0 0 0 1.639.308 4.915 4.915 0 0 0 1.518-.176v2.18a7.8 7.8 0 0 1 -2.31.308zm4.337-17.358h2.97v3.63h-2.97zm10.051 17.358a8.063 8.063 0 0 1 -2.442-.33l-3.344-8.14h2.882l2.618 6.358a2.668 2.668 0 0 0 2.376-1.1 5.955 5.955 0 0 0 .748-3.322 6.681 6.681 0 0 0 -.253-2.079 1.825 1.825 0 0 0 -.825-1.056 3.276 3.276 0 0 0 -1.584-.319h-.9v-2.112h1.32a4.911 4.911 0 0 1 3.828 1.364 6.12 6.12 0 0 1 1.232 4.2 6.951 6.951 0 0 1 -1.518 4.939 5.438 5.438 0 0 1 -4.138 1.597zm9.79-.22a2.8 2.8 0 0 1 -2-.583 2.549 2.549 0 0 1 -.594-1.881v-9.416h2.97v8.646a.807.807 0 0 0 .9.924h.748v2.31zm8.58.22a13.829 13.829 0 0 1 -2.673-.253 10.606 10.606 0 0 1 -2.233-.667v-6.252h5.038l.132 2.178h-2.354v2.4a5.373 5.373 0 0 0 .99.209 8.747 8.747 0 0 0 1.122.077 4.108 4.108 0 0 0 1.914-.374 2.192 2.192 0 0 0 1.023-1.2 6.35 6.35 0 0 0 .32-2.238 5.773 5.773 0 0 0 -.386-2.35 2.269 2.269 0 0 0 -1.243-1.188 6.439 6.439 0 0 0 -2.371-.352 13.506 13.506 0 0 0 -4.026.594v-2.222a12.125 12.125 0 0 1 2.244-.506 18.342 18.342 0 0 1 2.503-.176 6.086 6.086 0 0 1 4.62 1.562 6.533 6.533 0 0 1 1.474 4.638 6.388 6.388 0 0 1 -1.474 4.569 6.112 6.112 0 0 1 -4.62 1.551zm8.272-4a4.092 4.092 0 0 1 .374-1.863 2.056 2.056 0 0 1 1.32-1.023l-2.244-.594v-2.84a8.875 8.875 0 0 1 2.541-1.43 9.26 9.26 0 0 1 3.311-.57 6.693 6.693 0 0 1 4.235 1.133 4.582 4.582 0 0 1 1.419 3.8v7.167h-2.97v-7.238a2.544 2.544 0 0 0 -.649-1.969 3.261 3.261 0 0 0 -2.189-.583 5.468 5.468 0 0 0 -1.782.29 4.271 4.271 0 0 0 -1.359.722v.308l2.442.66v1.8a1.834 1.834 0 0 0 -1.166.715 2.965 2.965 0 0 0 -.308 1.529v3.766h-2.975zm17.336 4a4.691 4.691 0 0 1 -2.992-.9 3.393 3.393 0 0 1 -1.144-2.84 3.287 3.287 0 0 1 1.207-2.739 5.5 5.5 0 0 1 3.476-.957h3.366v-.572a1.8 1.8 0 0 0 -.616-1.551 3.852 3.852 0 0 0 -2.178-.451 12.93 12.93 0 0 0 -3.938.594v-2.222a13.9 13.9 0 0 1 2.134-.495 14.718 14.718 0 0 1 2.288-.187 8.811 8.811 0 0 1 2.112.22h4.136l-.154 2.266h-1.339a3.865 3.865 0 0 1 .528 2.134v7.48h-2.97v-5.038h-3.19a2.725 2.725 0 0 0 -1.529.352 1.308 1.308 0 0 0 -.517 1.166 1.237 1.237 0 0 0 .473 1.12 3.173 3.173 0 0 0 1.639.308 4.915 4.915 0 0 0 1.518-.176v2.18a7.8 7.8 0 0 1 -2.31.308zm14.124-7.52a2.944 2.944 0 0 0 -.495-1.881 2.249 2.249 0 0 0 -1.815-.605 8.2 8.2 0 0 0 -1.518.154 7.946 7.946 0 0 0 -1.474.418v-2.186a7.864 7.864 0 0 1 1.649-.5 9.532 9.532 0 0 1 1.914-.2 5.105 5.105 0 0 1 3.6 1.056 4.4 4.4 0 0 1 1.111 3.322v7.722h-2.97zm9.592 7.52a15.547 15.547 0 0 1 -2.387-.176 7.982 7.982 0 0 1 -1.815-.462v-2.4a9.376 9.376 0 0 0 1.8.528 9.692 9.692 0 0 0 1.848.2 6.7 6.7 0 0 0 2.112-.231.875.875 0 0 0 .616-.891 1 1 0 0 0 -.231-.682 1.835 1.835 0 0 0 -.66-.451q-.429-.187-1.353-.495l-.946-.308a7.8 7.8 0 0 1 -2.603-1.352 2.616 2.616 0 0 1 -.826-2.058 3.072 3.072 0 0 1 1.265-2.585 6.034 6.034 0 0 1 3.685-.957 13.953 13.953 0 0 1 2.035.154 10.961 10.961 0 0 1 1.727.374v2.372a7.242 7.242 0 0 0 -1.617-.44 10.68 10.68 0 0 0 -1.727-.154 5.544 5.544 0 0 0 -1.87.253.92.92 0 0 0 -.682.913.839.839 0 0 0 .462.77 10.033 10.033 0 0 0 1.716.66q.4.11 1.012.33a10.026 10.026 0 0 1 2.013.9 2.937 2.937 0 0 1 1.081 1.117 3.5 3.5 0 0 1 .341 1.639 2.879 2.879 0 0 1 -1.311 2.563 6.63 6.63 0 0 1 -3.685.869zm-108.053 32.78a2.8 2.8 0 0 1 -2-.583 2.549 2.549 0 0 1 -.592-1.881v-9.416h2.97v8.646a.807.807 0 0 0 .9.924h.748v2.31zm3.454-11.88h2.86l1.562 7.634 1.8-5.742v-1.892h2.068l2.112 7.634 1.518-7.634h2.838l-2.768 11.88h-2.574l-1.962-6.8-2.108 6.8h-2.574zm3.454-3.652h4.026v-1.782h2.09v1.782h1.254v-1.782h2.09v3.806h-9.614zm7.04-5.808h2.42v3.08h-2.42zm10.582 21.56a13.829 13.829 0 0 1 -2.673-.253 10.606 10.606 0 0 1 -2.233-.671v-6.248h5.038l.132 2.178h-2.354v2.4a5.373 5.373 0 0 0 .99.209 8.747 8.747 0 0 0 1.122.077 4.108 4.108 0 0 0 1.914-.374 2.192 2.192 0 0 0 1.023-1.2 6.35 6.35 0 0 0 .319-2.238 5.773 5.773 0 0 0 -.385-2.354 2.269 2.269 0 0 0 -1.243-1.188 6.439 6.439 0 0 0 -2.372-.348 13.506 13.506 0 0 0 -4.026.594v-2.222a12.125 12.125 0 0 1 2.244-.506 18.342 18.342 0 0 1 2.508-.176 6.086 6.086 0 0 1 4.62 1.562 6.533 6.533 0 0 1 1.47 4.638 6.388 6.388 0 0 1 -1.474 4.565 6.112 6.112 0 0 1 -4.62 1.555zm13.266 0a8.224 8.224 0 0 1 -4.147-.9 3.125 3.125 0 0 1 -1.551-2.926 3 3 0 0 1 .374-1.485 2.818 2.818 0 0 1 1.122-1.089 2.316 2.316 0 0 1 -1.056-.913 2.722 2.722 0 0 1 -.4-1.485 3.243 3.243 0 0 1 1.07-2.609 4.268 4.268 0 0 1 2.871-.913 5.836 5.836 0 0 1 2.046.308v2.178a5.756 5.756 0 0 0 -1.517-.176 2.177 2.177 0 0 0 -1.243.286 1.05 1.05 0 0 0 -.407.924 1.09 1.09 0 0 0 .44.99 2.66 2.66 0 0 0 1.41.29h1.232l.11 2.178h-1.364q-1.87 0-1.87 1.518a1.226 1.226 0 0 0 .671 1.144 4.431 4.431 0 0 0 2.079.374q2.794 0 2.794-2.31v-7.484h2.97v7.216a4.533 4.533 0 0 1 -1.43 3.7 6.437 6.437 0 0 1 -4.204 1.184zm-3.828-15.752h4.026v-1.782h2.09v1.782h1.254v-1.782h2.09v3.806h-9.614zm16.192 15.752a3.944 3.944 0 0 1 -3.014-1.166 4.493 4.493 0 0 1 -1.1-3.212v-7.722h2.97v7.546a2.356 2.356 0 0 0 .528 1.716 2.184 2.184 0 0 0 1.606.528 4 4 0 0 0 1.617-.352 3.766 3.766 0 0 0 1.287-.88v-8.558h2.97v11.88h-2.728l-.132-1.166a6.183 6.183 0 0 1 -4.004 1.386zm14.586 0a8.224 8.224 0 0 1 -4.147-.9 3.125 3.125 0 0 1 -1.551-2.928 3 3 0 0 1 .374-1.485 2.818 2.818 0 0 1 1.122-1.089 2.316 2.316 0 0 1 -1.056-.913 2.722 2.722 0 0 1 -.4-1.485 3.243 3.243 0 0 1 1.067-2.607 4.268 4.268 0 0 1 2.875-.913 5.836 5.836 0 0 1 2.046.308v2.178a5.756 5.756 0 0 0 -1.518-.176 2.177 2.177 0 0 0 -1.243.286 1.05 1.05 0 0 0 -.407.924 1.09 1.09 0 0 0 .44.99 2.66 2.66 0 0 0 1.408.286h1.232l.11 2.178h-1.364q-1.87 0-1.87 1.518a1.226 1.226 0 0 0 .671 1.144 4.431 4.431 0 0 0 2.079.374q2.794 0 2.794-2.31v-7.48h2.97v7.216a4.533 4.533 0 0 1 -1.43 3.7 6.437 6.437 0 0 1 -4.202 1.184zm.088-17.226h2.42v1.474h5.478l-.11 2.024h-7.788zm12.274 17.226a3.944 3.944 0 0 1 -3.014-1.166 4.493 4.493 0 0 1 -1.1-3.212v-7.722h2.97v7.546a2.356 2.356 0 0 0 .528 1.716 2.184 2.184 0 0 0 1.606.528 4 4 0 0 0 1.617-.352 3.766 3.766 0 0 0 1.287-.88v-8.558h2.97v11.88h-2.726l-.132-1.166a6.183 6.183 0 0 1 -4.006 1.386zm14.014 0a4.692 4.692 0 0 1 -3.614-1.463 6.374 6.374 0 0 1 -1.356-4.457 8.629 8.629 0 0 1 1.089-4.752 3.433 3.433 0 0 1 3.025-1.65 3.1 3.1 0 0 1 1.43.286 2.512 2.512 0 0 1 .924.836 3.076 3.076 0 0 1 1.221-.814 4.313 4.313 0 0 1 1.595-.308 2.781 2.781 0 0 1 2.266.924 3.8 3.8 0 0 1 .77 2.508v8.67h-2.97v-8.206a2.505 2.505 0 0 0 -.22-1.2.833.833 0 0 0 -.792-.385 1.108 1.108 0 0 0 -.726.253 1.406 1.406 0 0 0 -.44.759h-1.43a2.479 2.479 0 0 0 -.486-.78.948.948 0 0 0 -.682-.231 1.393 1.393 0 0 0 -1.375 1.045 9.259 9.259 0 0 0 -.383 3.045 4.47 4.47 0 0 0 .671 2.772 2.427 2.427 0 0 0 2.013.836 4.915 4.915 0 0 0 1.518-.176v2.178a5.836 5.836 0 0 1 -2.046.31zm1.8-17.226h2.42v1.474h5.478l-.11 2.024h-7.782zm11.16 17.226a9.567 9.567 0 0 1 -3.784-.7v-2.27a7.556 7.556 0 0 0 3.08.66 4.142 4.142 0 0 0 2.97-.869 4.1 4.1 0 0 0 .88-2.981 4.1 4.1 0 0 0 -.88-2.981 4.142 4.142 0 0 0 -2.97-.869 7.556 7.556 0 0 0 -3.08.66v-2.27a9.567 9.567 0 0 1 3.784-.7 5.9 5.9 0 0 1 4.477 1.562 6.433 6.433 0 0 1 1.485 4.6 6.433 6.433 0 0 1 -1.485 4.6 5.9 5.9 0 0 1 -4.477 1.558zm12.342 0a4.692 4.692 0 0 1 -3.616-1.463 6.374 6.374 0 0 1 -1.356-4.457 8.629 8.629 0 0 1 1.089-4.752 3.433 3.433 0 0 1 3.025-1.65 3.1 3.1 0 0 1 1.43.286 2.512 2.512 0 0 1 .924.836 3.076 3.076 0 0 1 1.221-.814 4.313 4.313 0 0 1 1.6-.308 2.781 2.781 0 0 1 2.266.924 3.8 3.8 0 0 1 .77 2.508v8.67h-2.97v-8.206a2.505 2.505 0 0 0 -.22-1.2.833.833 0 0 0 -.792-.385 1.108 1.108 0 0 0 -.726.253 1.406 1.406 0 0 0 -.44.759h-1.43a2.479 2.479 0 0 0 -.484-.781.948.948 0 0 0 -.682-.231 1.393 1.393 0 0 0 -1.375 1.045 9.259 9.259 0 0 0 -.39 3.046 4.47 4.47 0 0 0 .671 2.772 2.427 2.427 0 0 0 2.013.836 4.915 4.915 0 0 0 1.518-.176v2.178a5.836 5.836 0 0 1 -2.046.31zm14.08 0a3.944 3.944 0 0 1 -3.014-1.166 4.493 4.493 0 0 1 -1.1-3.212v-7.722h2.97v7.546a2.356 2.356 0 0 0 .528 1.716 2.184 2.184 0 0 0 1.606.528 4 4 0 0 0 1.617-.352 3.766 3.766 0 0 0 1.287-.88v-8.558h2.97v11.88h-2.728l-.132-1.166a6.183 6.183 0 0 1 -4 1.386z" fill="#333" transform="translate(112.419 167)"/><g fill="#fbb03b"><path d="m689.47 1125.818-13.216-13.218a1.38 1.38 0 0 0 -.973-.4h-33.367a1.377 1.377 0 0 0 -1.377 1.377v15.536a5.059 5.059 0 0 0 -1.669 1.1 5.318 5.318 0 0 0 -.75 6.607l-9.364 7.587a1.377 1.377 0 0 0 -.2 1.937l11.987 14.8v15.713a1.376 1.376 0 0 0 1.377 1.376h46.582a1.376 1.376 0 0 0 1.377-1.376v-50.055a1.375 1.375 0 0 0 -.407-.984zm-12.812-8.92 8.516 8.516h-8.516zm-35.843 15.255a2.6 2.6 0 0 1 3.368-.252l-3.9 3.156a2.579 2.579 0 0 1 .531-2.903zm5.356 1.68 9.136 9.136a.644.644 0 1 1 -.91.911l-7.747-7.747a1.376 1.376 0 0 0 -1.947 1.946l7.747 7.747a3.4 3.4 0 0 0 4.8-4.8l-8.932-8.932 8.1-6.566 20.149 24.869-24.869 20.149-20.149-24.869zm-2.88 41.636v-10.938l7.142 8.815a1.378 1.378 0 0 0 1.936.2l27.009-21.882a1.377 1.377 0 0 0 .2-1.937l-21.878-27.005a1.378 1.378 0 0 0 -1.936-.2l-9.407 7.621a5.256 5.256 0 0 0 -3.064-1.391v-13.8h30.607v11.839a1.377 1.377 0 0 0 1.377 1.377h11.843v47.3z" transform="translate(-555.434 -1055.346)"/><path d="m691.167 1186.966a1.377 1.377 0 0 0 -1.93-.253l-14.942 11.479a1.377 1.377 0 0 0 1.678 2.183l14.942-11.479a1.376 1.376 0 0 0 .252-1.93z" transform="translate(-580.646 -1096.465)"/><path d="m696.885 1201.932-8.841 6.791a1.377 1.377 0 1 0 1.678 2.183l8.841-6.791a1.377 1.377 0 0 0 -1.678-2.183z" transform="translate(-588.264 -1104.895)"/><path d="m11.115 4.354 1.3-1.3a1.4 1.4 0 0 1 1.978 0l11.338 11.346a1.4 1.4 0 0 1 0 1.978l-11.342 11.338a1.4 1.4 0 0 1 -1.978 0l-1.3-1.3a1.4 1.4 0 0 1 .023-2l7.031-6.7h-16.765a1.4 1.4 0 0 1 -1.4-1.4v-1.862a1.4 1.4 0 0 1 1.4-1.4h16.77l-7.031-6.7a1.392 1.392 0 0 1 -.024-2z" transform="translate(133.624 74.502)"/></g></svg>